<?xml version="1.0" encoding="iso-8859-1"?>
<!-- Generator: Adobe Illustrator 19.0.0, SVG Export Plug-In . SVG Version: 6.00 Build 0)  -->
<svg version="1.1" id="Layer_1" xmlns="http://www.w3.org/2000/svg" xmlns:xlink="http://www.w3.org/1999/xlink" x="0px" y="0px"
	 viewBox="0 0 512 512" style="enable-background:new 0 0 512 512;" xml:space="preserve">
<g>
	<path style="fill:#55575B;" d="M159.319,5.132l-6.523,45.268l0.02,67.431l0.006,40.126l-0.001,16.638l0.01,23.499l0.005,16.624
		l-0.001,40.108l0.02,67.764l6.469,44.947l43.77,0.005l6.479-44.963l0.008-67.72l0.01-40.144l0.004-16.627v-23.503l0.001-16.638
		l0.006-40.154l0.008-67.385l-0.003-0.009l-6.518-45.263L159.319,5.132z M205.309,186.485c0.003,13.309-10.795,24.109-24.106,24.103
		c-13.309,0.003-24.106-10.784-24.099-24.096c-0.007-13.318,10.784-24.106,24.102-24.113
		C194.517,162.385,205.305,173.177,205.309,186.485z"/>
	<path style="fill:#55575B;" d="M293.855,42.738l-36.609,27.395l-47.643,47.664L181.2,146.212l-11.745,11.738l-16.634,16.646
		l-11.741,11.749l-28.363,28.367l-47.903,47.926l-27.205,36.357l30.949,30.945l36.368-27.207l47.911-47.907l28.367-28.358
		l11.751-11.752l16.642-16.627l11.752-11.752l28.399-28.391l47.651-47.644l0.009-0.003l27.399-36.617L293.855,42.738z
		 M205.309,186.485c0.003,13.309-10.795,24.109-24.106,24.103c-13.309,0.003-24.106-10.784-24.099-24.096
		c-0.007-13.318,10.784-24.106,24.102-24.113C194.517,162.385,205.305,173.177,205.309,186.485z"/>
	<path style="fill:#55575B;" d="M317.143,157.928l-67.398,0.019l-40.15,0.003l-16.647,0.003l-23.493-0.003l-16.633,0.009
		l-40.114,0.013l-67.759,0.006l-44.943,6.478L0,208.225l44.963,6.479l67.753,0.007l40.12,0.007l16.615-0.002h23.502l16.638,0.001
		l40.154,0.006l67.385,0.008l0.014,0.006l45.263-6.518l0.005-43.77L317.143,157.928z M181.202,210.589
		c-13.309,0.003-24.106-10.784-24.099-24.096c-0.007-13.318,10.784-24.106,24.102-24.113c13.312,0.006,24.1,10.798,24.103,24.106
		C205.312,199.793,194.514,210.595,181.202,210.589z"/>
	<path style="fill:#55575B;" d="M297.412,262.377l-47.667-47.653l-28.398-28.386l-11.752-11.752l-16.646-16.634L181.2,146.211
		l-28.384-28.38l-47.911-47.887L68.55,42.739l-30.945,30.95l27.205,36.368l47.897,47.914l28.372,28.374l11.752,11.752l16.62,16.622
		l11.752,11.752l28.379,28.392l47.661,47.666l0.003,0.009l36.617,27.399l30.945-30.949L297.412,262.377z M157.102,186.492
		c-0.007-13.318,10.784-24.106,24.102-24.113c13.312,0.006,24.1,10.798,24.103,24.106c0.003,13.309-10.795,24.109-24.106,24.103
		C167.894,210.592,157.096,199.803,157.102,186.492z"/>
</g>
<path style="fill:#484B54;" d="M229.029,55.987c-0.136-0.052-0.282-0.104-0.418-0.146C156.65,29.729,77.062,66.728,50.7,138.668
	c-26.414,72.076,10.605,151.915,82.681,178.329c5.099,1.87,10.229,3.417,15.381,4.65c67.718,16.352,138.404-20.354,162.949-87.331
	C338.124,162.251,301.104,82.401,229.029,55.987z M203.837,194.788c-1.714,4.681-4.733,8.516-8.495,11.232
	c-6.269,4.535-14.618,5.977-22.434,3.103c-12.497-4.577-18.923-18.421-14.336-30.918c4.577-12.507,18.421-18.923,30.928-14.346
	c6.771,2.487,11.755,7.68,14.169,13.918C205.728,183.054,205.937,189.062,203.837,194.788z"/>
<path style="fill:#92949B;" d="M213.126,99.391c-10.104-3.699-20.438-5.538-30.615-5.684c-38.305-0.533-74.479,22.862-88.407,60.864
	c-15.851,43.237,2.508,90.664,41.314,112.627c4.368,2.476,8.996,4.618,13.866,6.405c48.106,17.627,101.395-7.084,119.022-55.19
	S261.232,117.018,213.126,99.391z M203.837,194.788c-4.577,12.497-18.432,18.923-30.928,14.336
	c-5.883-2.152-10.417-6.353-13.092-11.504c-3.009-5.799-3.678-12.8-1.243-19.414c1.902-5.203,5.412-9.352,9.759-12.089
	c6.102-3.856,13.866-4.932,21.169-2.257C201.998,168.447,208.413,182.291,203.837,194.788z"/>
<path style="fill:#B5B6BA;" d="M182.511,93.707c-2.466,17.366-6.813,42.621-14.179,72.41c-4.347,2.738-7.857,6.886-9.759,12.089
	c-2.435,6.614-1.766,13.615,1.243,19.414c-6.447,21.984-14.461,45.525-24.398,69.578c-38.807-21.963-57.165-69.39-41.314-112.627
	C108.032,116.569,144.206,93.174,182.511,93.707z"/>
<g>
	<path style="fill:#66686D;" d="M376.135,151.526l-21.702,40.259l-23.186,63.32l-13.803,37.678l-5.726,15.621l-8.077,22.068
		l-5.715,15.61l-13.803,37.657l-23.301,63.633l-9.393,44.428l41.095,15.067l21.556-39.987l23.311-63.581l13.824-37.689L356.94,350
		l8.087-22.068l5.726-15.621l13.824-37.699l23.196-63.267v-0.01l9.456-44.742L376.135,151.526z M356.909,337.629
		c-4.577,12.497-18.432,18.923-30.928,14.336c-12.497-4.577-18.923-18.421-14.336-30.918c4.577-12.507,18.421-18.923,30.928-14.346
		C355.07,311.288,361.486,325.132,356.909,337.629z"/>
	<path style="fill:#66686D;" d="M489.514,233.131l-43.801,13.124l-61.136,28.358l-36.445,16.906l-15.067,6.98l-21.347,9.905
		l-15.067,6.99l-36.393,16.875l-61.47,28.515l-38.054,24.774l18.411,39.705l43.509-13.03l61.47-28.494l36.393-16.864l15.078-6.99
		L356.94,350l15.078-6.99l36.435-16.885l61.136-28.337h0.01l38.326-24.952L489.514,233.131z M356.909,337.629
		c-4.577,12.497-18.432,18.923-30.928,14.336c-12.497-4.577-18.923-18.421-14.336-30.918c4.577-12.507,18.421-18.923,30.928-14.346
		C355.07,311.288,361.486,325.132,356.909,337.629z"/>
	<path style="fill:#66686D;" d="M471.741,349.3l-63.288-23.175l-37.699-13.813l-15.631-5.726l-22.057-8.087l-15.621-5.715
		l-37.668-13.792l-63.623-23.311l-44.428-9.383l-15.067,41.095l39.987,21.556l63.612,23.322l37.668,13.813l15.6,5.715l22.068,8.087
		l15.621,5.726l37.699,13.824l63.267,23.196l0.01,0.01l44.742,9.456L512,371.002L471.741,349.3z M325.981,351.965
		c-12.497-4.577-18.923-18.421-14.336-30.918c4.577-12.507,18.421-18.923,30.928-14.346c12.497,4.587,18.912,18.432,14.336,30.928
		S338.477,356.552,325.981,351.965z"/>
	<path style="fill:#66686D;" d="M417.271,440.581l-28.358-61.146l-16.896-36.424l-6.99-15.078l-9.905-21.347l-6.99-15.067
		l-16.885-36.414l-28.504-61.449l-24.774-38.054l-39.705,18.411l13.03,43.509l28.483,61.47l16.875,36.403l6.99,15.078l9.885,21.326
		l6.99,15.078l16.875,36.424l28.348,61.157v0.01l24.952,38.326l39.705-18.411L417.271,440.581z M311.645,321.047
		c4.577-12.507,18.421-18.923,30.928-14.346c12.497,4.587,18.912,18.432,14.336,30.928c-4.577,12.497-18.432,18.923-30.928,14.336
		C313.484,347.388,307.058,333.543,311.645,321.047z"/>
</g>
<path style="fill:#484B54;" d="M382.101,198.827c-0.136-0.052-0.282-0.105-0.418-0.146
	c-71.961-26.111-151.549,10.888-177.911,82.827c-26.414,72.076,10.605,151.915,82.681,178.329c5.099,1.87,10.229,3.417,15.381,4.65
	c67.718,16.352,138.404-20.354,162.949-87.331C491.196,305.091,454.177,225.242,382.101,198.827z M356.909,337.629
	c-1.714,4.681-4.733,8.516-8.495,11.232c-6.269,4.535-14.618,5.977-22.434,3.103c-12.497-4.577-18.923-18.421-14.336-30.918
	c4.577-12.507,18.421-18.923,30.928-14.346c6.771,2.487,11.755,7.68,14.169,13.918C358.8,325.895,359.009,331.903,356.909,337.629z"
	/>
<path style="fill:#54575E;" d="M464.782,377.157c-24.544,66.977-95.23,103.683-162.949,87.331
	c19.518-38.723,34.721-77.864,46.581-115.626c3.762-2.717,6.781-6.551,8.495-11.232c2.1-5.726,1.891-11.734-0.167-17.011
	c12.256-44.313,20.02-86.004,24.941-121.937c0.136,0.042,0.282,0.094,0.418,0.146C454.177,225.242,491.196,305.091,464.782,377.157z
	"/>
<path style="fill:#92949B;" d="M366.198,242.232c-10.104-3.699-20.438-5.538-30.615-5.684
	c-38.305-0.533-74.479,22.862-88.407,60.864c-15.851,43.237,2.508,90.664,41.314,112.627c4.368,2.476,8.996,4.618,13.866,6.405
	c48.106,17.627,101.395-7.084,119.022-55.19C439.005,313.147,414.304,259.859,366.198,242.232z M356.909,337.629
	c-4.577,12.497-18.432,18.923-30.928,14.336c-5.883-2.152-10.417-6.353-13.092-11.504c-3.009-5.799-3.678-12.8-1.243-19.414
	c1.902-5.203,5.412-9.352,9.759-12.089c6.102-3.856,13.865-4.932,21.169-2.257C355.07,311.288,361.486,325.132,356.909,337.629z"/>
<path style="fill:#B5B6BA;" d="M335.583,236.548c-2.466,17.366-6.813,42.621-14.179,72.41c-4.347,2.738-7.857,6.886-9.759,12.089
	c-2.435,6.614-1.766,13.615,1.243,19.414c-6.447,21.984-14.461,45.525-24.398,69.578c-38.807-21.963-57.165-69.39-41.314-112.627
	C261.104,259.409,297.278,236.015,335.583,236.548z"/>
<g>
</g>
<g>
</g>
<g>
</g>
<g>
</g>
<g>
</g>
<g>
</g>
<g>
</g>
<g>
</g>
<g>
</g>
<g>
</g>
<g>
</g>
<g>
</g>
<g>
</g>
<g>
</g>
<g>
</g>
</svg>
