<svg enable-background="new 0 0 512 512" viewBox="0 0 512 512" xmlns="http://www.w3.org/2000/svg"><g fill="#55575b"><path d="m159.319 5.132-6.523 45.268.02 67.431.006 40.126-.001 16.638.01 23.499.005 16.624-.001 40.108.02 67.764 6.469 44.947 43.77.005 6.479-44.963.008-67.72.01-40.144.004-16.627v-23.503l.001-16.638.006-40.154.008-67.385-.003-.009-6.518-45.263zm45.99 181.353c.003 13.309-10.795 24.109-24.106 24.103-13.309.003-24.106-10.784-24.099-24.096-.007-13.318 10.784-24.106 24.102-24.113 13.311.006 24.099 10.798 24.103 24.106z"/><path d="m293.855 42.738-36.609 27.395-47.643 47.664-28.403 28.415-11.745 11.738-16.634 16.646-11.741 11.749-28.363 28.367-47.903 47.926-27.205 36.357 30.949 30.945 36.368-27.207 47.911-47.907 28.367-28.358 11.751-11.752 16.642-16.627 11.752-11.752 28.399-28.391 47.651-47.644.009-.003 27.399-36.617zm-88.546 143.747c.003 13.309-10.795 24.109-24.106 24.103-13.309.003-24.106-10.784-24.099-24.096-.007-13.318 10.784-24.106 24.102-24.113 13.311.006 24.099 10.798 24.103 24.106z"/><path d="m317.143 157.928-67.398.019-40.15.003-16.647.003-23.493-.003-16.633.009-40.114.013-67.759.006-44.943 6.478-.006 43.769 44.963 6.479 67.753.007 40.12.007 16.615-.002h23.502l16.638.001 40.154.006 67.385.008.014.006 45.263-6.518.005-43.77zm-135.941 52.661c-13.309.003-24.106-10.784-24.099-24.096-.007-13.318 10.784-24.106 24.102-24.113 13.312.006 24.1 10.798 24.103 24.106.004 13.307-10.794 24.109-24.106 24.103z"/><path d="m297.412 262.377-47.667-47.653-28.398-28.386-11.752-11.752-16.646-16.634-11.749-11.741-28.384-28.38-47.911-47.887-36.355-27.205-30.945 30.95 27.205 36.368 47.897 47.914 28.372 28.374 11.752 11.752 16.62 16.622 11.752 11.752 28.379 28.392 47.661 47.666.003.009 36.617 27.399 30.945-30.949zm-140.31-75.885c-.007-13.318 10.784-24.106 24.102-24.113 13.312.006 24.1 10.798 24.103 24.106.003 13.309-10.795 24.109-24.106 24.103-13.307.004-24.105-10.785-24.099-24.096z"/></g><path d="m229.029 55.987c-.136-.052-.282-.104-.418-.146-71.961-26.112-151.549 10.887-177.911 82.827-26.414 72.076 10.605 151.915 82.681 178.329 5.099 1.87 10.229 3.417 15.381 4.65 67.718 16.352 138.404-20.354 162.949-87.331 26.413-72.065-10.607-151.915-82.682-178.329zm-25.192 138.801c-1.714 4.681-4.733 8.516-8.495 11.232-6.269 4.535-14.618 5.977-22.434 3.103-12.497-4.577-18.923-18.421-14.336-30.918 4.577-12.507 18.421-18.923 30.928-14.346 6.771 2.487 11.755 7.68 14.169 13.918 2.059 5.277 2.268 11.285.168 17.011z" fill="#484b54"/><path d="m213.126 99.391c-10.104-3.699-20.438-5.538-30.615-5.684-38.305-.533-74.479 22.862-88.407 60.864-15.851 43.237 2.508 90.664 41.314 112.627 4.368 2.476 8.996 4.618 13.866 6.405 48.106 17.627 101.395-7.084 119.022-55.19s-7.074-101.395-55.18-119.022zm-9.289 95.397c-4.577 12.497-18.432 18.923-30.928 14.336-5.883-2.152-10.417-6.353-13.092-11.504-3.009-5.799-3.678-12.8-1.243-19.414 1.902-5.203 5.412-9.352 9.759-12.089 6.102-3.856 13.866-4.932 21.169-2.257 12.496 4.587 18.911 18.431 14.335 30.928z" fill="#92949b"/><path d="m182.511 93.707c-2.466 17.366-6.813 42.621-14.179 72.41-4.347 2.738-7.857 6.886-9.759 12.089-2.435 6.614-1.766 13.615 1.243 19.414-6.447 21.984-14.461 45.525-24.398 69.578-38.807-21.963-57.165-69.39-41.314-112.627 13.928-38.002 50.102-61.397 88.407-60.864z" fill="#b5b6ba"/><g fill="#66686d"><path d="m376.135 151.526-21.702 40.259-23.186 63.32-13.803 37.678-5.726 15.621-8.077 22.068-5.715 15.61-13.803 37.657-23.301 63.633-9.393 44.428 41.095 15.067 21.556-39.987 23.311-63.581 13.824-37.689 5.725-15.61 8.087-22.068 5.726-15.621 13.824-37.699 23.196-63.267v-.01l9.456-44.742zm-19.226 186.103c-4.577 12.497-18.432 18.923-30.928 14.336-12.497-4.577-18.923-18.421-14.336-30.918 4.577-12.507 18.421-18.923 30.928-14.346 12.497 4.587 18.913 18.431 14.336 30.928z"/><path d="m489.514 233.131-43.801 13.124-61.136 28.358-36.445 16.906-15.067 6.98-21.347 9.905-15.067 6.99-36.393 16.875-61.47 28.515-38.054 24.774 18.411 39.705 43.509-13.03 61.47-28.494 36.393-16.864 15.078-6.99 21.345-9.885 15.078-6.99 36.435-16.885 61.136-28.337h.01l38.326-24.952zm-132.605 104.498c-4.577 12.497-18.432 18.923-30.928 14.336-12.497-4.577-18.923-18.421-14.336-30.918 4.577-12.507 18.421-18.923 30.928-14.346 12.497 4.587 18.913 18.431 14.336 30.928z"/><path d="m471.741 349.3-63.288-23.175-37.699-13.813-15.631-5.726-22.057-8.087-15.621-5.715-37.668-13.792-63.623-23.311-44.428-9.383-15.067 41.095 39.987 21.556 63.612 23.322 37.668 13.813 15.6 5.715 22.068 8.087 15.621 5.726 37.699 13.824 63.267 23.196.01.01 44.742 9.456 15.067-41.096zm-145.76 2.665c-12.497-4.577-18.923-18.421-14.336-30.918 4.577-12.507 18.421-18.923 30.928-14.346 12.497 4.587 18.912 18.432 14.336 30.928s-18.432 18.923-30.928 14.336z"/><path d="m417.271 440.581-28.358-61.146-16.896-36.424-6.99-15.078-9.905-21.347-6.99-15.067-16.885-36.414-28.504-61.449-24.774-38.054-39.705 18.411 13.03 43.509 28.483 61.47 16.875 36.403 6.99 15.078 9.885 21.326 6.99 15.078 16.875 36.424 28.348 61.157v.01l24.952 38.326 39.705-18.411zm-105.626-119.534c4.577-12.507 18.421-18.923 30.928-14.346 12.497 4.587 18.912 18.432 14.336 30.928-4.577 12.497-18.432 18.923-30.928 14.336-12.497-4.577-18.923-18.422-14.336-30.918z"/></g><path d="m382.101 198.827c-.136-.052-.282-.105-.418-.146-71.961-26.111-151.549 10.888-177.911 82.827-26.414 72.076 10.605 151.915 82.681 178.329 5.099 1.87 10.229 3.417 15.381 4.65 67.718 16.352 138.404-20.354 162.949-87.331 26.413-72.065-10.606-151.914-82.682-178.329zm-25.192 138.802c-1.714 4.681-4.733 8.516-8.495 11.232-6.269 4.535-14.618 5.977-22.434 3.103-12.497-4.577-18.923-18.421-14.336-30.918 4.577-12.507 18.421-18.923 30.928-14.346 6.771 2.487 11.755 7.68 14.169 13.918 2.059 5.277 2.268 11.285.168 17.011z" fill="#484b54"/><path d="m464.782 377.157c-24.544 66.977-95.23 103.683-162.949 87.331 19.518-38.723 34.721-77.864 46.581-115.626 3.762-2.717 6.781-6.551 8.495-11.232 2.1-5.726 1.891-11.734-.167-17.011 12.256-44.313 20.02-86.004 24.941-121.937.136.042.282.094.418.146 72.076 26.414 109.095 106.263 82.681 178.329z" fill="#54575e"/><path d="m366.198 242.232c-10.104-3.699-20.438-5.538-30.615-5.684-38.305-.533-74.479 22.862-88.407 60.864-15.851 43.237 2.508 90.664 41.314 112.627 4.368 2.476 8.996 4.618 13.866 6.405 48.106 17.627 101.395-7.084 119.022-55.19 17.627-48.107-7.074-101.395-55.18-119.022zm-9.289 95.397c-4.577 12.497-18.432 18.923-30.928 14.336-5.883-2.152-10.417-6.353-13.092-11.504-3.009-5.799-3.678-12.8-1.243-19.414 1.902-5.203 5.412-9.352 9.759-12.089 6.102-3.856 13.865-4.932 21.169-2.257 12.496 4.587 18.912 18.431 14.335 30.928z" fill="#92949b"/><path d="m335.583 236.548c-2.466 17.366-6.813 42.621-14.179 72.41-4.347 2.738-7.857 6.886-9.759 12.089-2.435 6.614-1.766 13.615 1.243 19.414-6.447 21.984-14.461 45.525-24.398 69.578-38.807-21.963-57.165-69.39-41.314-112.627 13.928-38.003 50.102-61.397 88.407-60.864z" fill="#b5b6ba"/></svg>