<svg viewBox="0 0 512.002 512.002" xmlns="http://www.w3.org/2000/svg"><path d="M143.821 276.003h232c19-122.299-139-42.702-157-135.702-123 36-75 135.702-75 135.702z" fill="#ffceac"/><path d="M375.821 276.003h-249.82c-27.5 0-50 22.5-50 50s22.5 50 50 50h260c27.5 0 50-22.5 50-50s-22.5-50-50-50z" fill="#e0ac91"/><path d="M386.001 376.003H60c-27.5 0-50 22.5-50 50s22.5 50 50 50h392.002c27.501 0 50-22.5 50-50s-22.499-50-50-50z" fill="#9d7463"/><path d="M452.002 366.003h-21.328c9.522-10.623 15.327-24.645 15.327-40 0-32.734-26.354-59.412-58.957-59.974 2.094-27.646-5.28-47.47-22.405-60.382-16.465-12.415-39.441-16.292-61.662-20.041-41.939-7.077-67.87-13.786-74.338-47.206a10.002 10.002 0 0 0-12.627-7.698c-42.357 12.398-70.436 33.521-83.458 62.781-12.423 27.918-7.807 56.105-3.005 72.519h-3.548c-33.084 0-60 26.916-60 60 0 15.355 5.805 29.377 15.327 40H60c-33.084 0-60 26.916-60 60s26.916 60 60 60h392.002c33.084 0 60-26.916 60-60 0-33.083-26.916-59.999-60-59.999zM150.827 201.615c9.551-21.462 30.059-37.779 61.028-48.59 5.696 16.703 16.582 29.009 33.041 37.436 16.394 8.393 35.895 11.684 54.754 14.866 45.303 7.645 71.647 14.502 67.349 60.676h-216.43c-4.088-11.448-11.266-38.493.258-64.388zM86.001 326.003c0-22.056 17.944-40 40-40h260c22.056 0 40 17.944 40 40s-17.944 40-40 40h-260c-22.056 0-40-17.945-40-40zm366.001 140H60c-22.056 0-40-17.944-40-40s17.944-40 40-40h392.002c22.056 0 40 17.944 40 40 0 22.055-17.944 40-40 40zM248.039 99.827c-2.761 4.782-1.123 10.898 3.66 13.66a9.997 9.997 0 0 0 13.66-3.66c9.596-16.619 4.69-30.888.748-42.353-3.821-11.114-5.74-17.823-.748-26.472 2.761-4.783 1.123-10.898-3.66-13.66-4.784-2.761-10.898-1.124-13.66 3.66-9.79 16.958-4.831 31.384-.845 42.976 3.759 10.933 5.652 17.524.845 25.849zM71.687 149.829c-2.761 4.782-1.123 10.898 3.66 13.66a9.995 9.995 0 0 0 13.66-3.66c9.596-16.619 4.69-30.888.748-42.353-3.821-11.114-5.74-17.823-.748-26.472 2.761-4.783 1.123-10.898-3.66-13.66-4.784-2.761-10.899-1.124-13.66 3.66-9.79 16.958-4.83 31.384-.845 42.976 3.76 10.933 5.653 17.524.845 25.849zm351.437 0c-2.761 4.782-1.123 10.898 3.66 13.66a9.998 9.998 0 0 0 13.661-3.66c9.596-16.619 4.69-30.888.747-42.353-3.821-11.114-5.74-17.823-.747-26.472 2.761-4.783 1.122-10.898-3.66-13.66-4.784-2.761-10.898-1.124-13.66 3.66-9.79 16.958-4.831 31.384-.845 42.976 3.758 10.933 5.651 17.524.844 25.849z"/><path d="M191.954 301.003h-65.953c-5.523 0-10 4.478-10 10s4.477 10 10 10h65.953c5.523 0 10-4.478 10-10 0-5.523-4.477-10-10-10zm30.047 0h-.324c-5.523 0-10 4.478-10 10s4.477 10 10 10h.324c5.523 0 10-4.478 10-10 0-5.523-4.477-10-10-10z"/></svg>