<?xml version="1.0" encoding="iso-8859-1"?>
<!-- Generator: Adobe Illustrator 19.0.0, SVG Export Plug-In . SVG Version: 6.00 Build 0)  -->
<svg version="1.1" id="Capa_1" xmlns="http://www.w3.org/2000/svg" xmlns:xlink="http://www.w3.org/1999/xlink" x="0px" y="0px"
	 viewBox="0 0 512.002 512.002" style="enable-background:new 0 0 512.002 512.002;" xml:space="preserve">
<g>
	<path style="fill:#FFCEAC;" d="M143.821,276.003h232c19-122.299-139-42.702-157-135.702
		C95.821,176.301,143.821,276.003,143.821,276.003z"/>
	<path style="fill:#E0AC91;" d="M375.821,276.003h-232h-17.82c-27.5,0-50,22.5-50,50s22.5,50,50,50h260c27.5,0,50-22.5,50-50
		s-22.5-50-50-50H375.821z"/>
	<path style="fill:#9D7463;" d="M386.001,376.003h-260H60c-27.5,0-50,22.5-50,50s22.5,50,50,50h392.002c27.501,0,50-22.5,50-50
		s-22.499-50-50-50H386.001z"/>
</g>
<path d="M452.002,366.003h-21.328c9.522-10.623,15.327-24.645,15.327-40c0-32.734-26.354-59.412-58.957-59.974
	c2.094-27.646-5.28-47.47-22.405-60.382c-16.465-12.415-39.441-16.292-61.662-20.041c-41.939-7.077-67.87-13.786-74.338-47.206
	c-0.535-2.763-2.21-5.173-4.613-6.638c-2.404-1.466-5.313-1.851-8.014-1.06c-42.357,12.398-70.436,33.521-83.458,62.781
	c-12.423,27.918-7.807,56.105-3.005,72.519h-3.548c-33.084,0-60,26.916-60,60c0,15.355,5.805,29.377,15.327,40H60
	c-33.084,0-60,26.916-60,60s26.916,60,60,60h392.002c33.084,0,60-26.916,60-60C512.002,392.919,485.086,366.003,452.002,366.003z
	 M150.827,201.615c9.551-21.462,30.059-37.779,61.028-48.59c5.696,16.703,16.582,29.009,33.041,37.436
	c16.394,8.393,35.895,11.684,54.754,14.866c45.303,7.645,71.647,14.502,67.349,60.676h-216.43
	C146.481,254.555,139.303,227.51,150.827,201.615z M86.001,326.003c0-22.056,17.944-40,40-40l0,0c0.009,0-0.009,0,0,0
	c0.012,0-0.012,0,0,0h260c22.056,0,40,17.944,40,40s-17.944,40-40,40h-260C103.945,366.003,86.001,348.058,86.001,326.003z
	 M452.002,466.003H60c-22.056,0-40-17.944-40-40s17.944-40,40-40l0,0h392.002l0,0c22.056,0,40,17.944,40,40
	C492.002,448.058,474.058,466.003,452.002,466.003z"/>
<path d="M248.039,99.827c-2.761,4.782-1.123,10.898,3.66,13.66c1.575,0.909,3.294,1.342,4.991,1.342
	c3.455,0,6.817-1.794,8.669-5.002c9.596-16.619,4.69-30.888,0.748-42.353c-3.821-11.114-5.74-17.823-0.748-26.472
	c2.761-4.783,1.123-10.898-3.66-13.66c-4.784-2.761-10.898-1.124-13.66,3.66c-9.79,16.958-4.831,31.384-0.845,42.976
	C250.953,84.911,252.846,91.502,248.039,99.827z"/>
<path d="M71.687,149.829c-2.761,4.782-1.123,10.898,3.66,13.66c1.575,0.909,3.294,1.342,4.991,1.342
	c3.456,0,6.817-1.794,8.669-5.002c9.596-16.619,4.69-30.888,0.748-42.353c-3.821-11.114-5.74-17.823-0.748-26.472
	c2.761-4.783,1.123-10.898-3.66-13.66c-4.784-2.761-10.899-1.124-13.66,3.66c-9.79,16.958-4.83,31.384-0.845,42.976
	C74.602,134.913,76.495,141.504,71.687,149.829z"/>
<path d="M423.124,149.829c-2.761,4.782-1.123,10.898,3.66,13.66c1.575,0.909,3.294,1.342,4.991,1.342
	c3.456,0,6.817-1.794,8.67-5.002c9.596-16.619,4.69-30.888,0.747-42.353c-3.821-11.114-5.74-17.823-0.747-26.472
	c2.761-4.783,1.122-10.898-3.66-13.66c-4.784-2.761-10.898-1.124-13.66,3.66c-9.79,16.958-4.831,31.384-0.845,42.976
	C426.038,134.913,427.931,141.504,423.124,149.829z"/>
<path d="M191.954,301.003h-65.953c-5.523,0-10,4.478-10,10s4.477,10,10,10h65.953c5.523,0,10-4.478,10-10
	C201.954,305.48,197.477,301.003,191.954,301.003z"/>
<path d="M222.001,301.003h-0.324c-5.523,0-10,4.478-10,10s4.477,10,10,10h0.324c5.523,0,10-4.478,10-10
	C232.001,305.48,227.524,301.003,222.001,301.003z"/>
<g>
</g>
<g>
</g>
<g>
</g>
<g>
</g>
<g>
</g>
<g>
</g>
<g>
</g>
<g>
</g>
<g>
</g>
<g>
</g>
<g>
</g>
<g>
</g>
<g>
</g>
<g>
</g>
<g>
</g>
</svg>
