<svg viewBox="0 0 512 512" xmlns="http://www.w3.org/2000/svg"><path d="M391.188 361.062l-30.172 30.172-105.594-105.609 30.172-30.172z" fill="#ccd1d9"/><path d="M353.484 398.766l103.859 103.859c12.5 12.5 32.75 12.5 45.25 0s12.5-32.75 0-45.25L398.734 353.516z" fill="#434a54"/><path d="M202.672 394.625c-51.281 0-99.484-19.969-135.75-56.234-36.25-36.25-56.219-84.469-56.219-135.75s19.969-99.484 56.219-135.75c36.266-36.25 84.469-56.219 135.75-56.219s99.5 19.969 135.75 56.219c36.266 36.266 56.234 84.469 56.234 135.75s-19.969 99.5-56.234 135.75c-36.25 36.265-84.469 56.234-135.75 56.234z" fill="#ac92eb"/><path d="M202.672 0C90.766 0 .031 90.719.031 202.641s90.734 202.656 202.641 202.656c111.922 0 202.656-90.734 202.656-202.656C405.328 90.734 314.594 0 202.672 0zm128.219 330.859c-16.656 16.656-36.062 29.734-57.641 38.859-22.344 9.453-46.078 14.234-70.578 14.234-24.484 0-48.219-4.781-70.562-14.234-21.594-9.125-40.984-22.203-57.641-38.859s-29.734-36.062-38.859-57.641c-9.453-22.344-14.25-46.094-14.25-70.578s4.797-48.219 14.25-70.562c9.125-21.594 22.203-40.984 38.859-57.641s36.047-29.734 57.641-38.859c22.344-9.453 46.078-14.25 70.562-14.25 24.5 0 48.234 4.797 70.578 14.25 21.578 9.125 40.984 22.203 57.641 38.859s29.734 36.047 38.859 57.641c9.453 22.344 14.234 46.078 14.234 70.562 0 24.5-4.781 48.234-14.234 70.578-9.125 21.579-22.203 40.985-38.859 57.641z" fill="#e6e9ed"/><path d="M320.016 213.328H85.343c-5.891 0-10.672 4.781-10.672 10.672s4.781 10.672 10.672 10.672h234.672c5.891 0 10.656-4.781 10.656-10.672s-4.765-10.672-10.655-10.672zM140.188 80.141l32.188 53.781 18.312-10.953L158.5 69.188h-.016c-1.859-3.094-5.25-5.188-9.141-5.188-5.891 0-10.672 4.781-10.672 10.672 0 2 .562 3.859 1.531 5.469zm125.078 0h-.016a10.686 10.686 0 0 0 1.516-5.469C266.766 68.781 262 64 256.109 64a10.626 10.626 0 0 0-9.141 5.188h-.016l-32.188 53.781 18.297 10.953zm-179.828 70.75c.188 1.312 5.125 32.359 37.312 44.438l7.484-19.984c-20.172-7.562-23.578-26.844-23.703-27.656l.016.094h-.016c-.766-5.156-5.188-9.109-10.547-9.109a10.65 10.65 0 0 0-10.656 10.656c0 .531.047 1.047.125 1.562h-.015zm234.453 0c.062-.516.125-1.031.125-1.562 0-5.891-4.781-10.656-10.672-10.656-5.359 0-9.781 3.953-10.547 9.109-.031.188-3.156 19.859-23.703 27.562l7.484 19.984c32.188-12.078 37.125-43.125 37.313-44.437zm-10.657 156.89c-.203-1.328-5.125-32.359-37.312-44.438l-7.5 19.969c20.188 7.578 23.578 26.844 23.719 27.672l-.016-.094h.016c.75 5.156 5.172 9.109 10.531 9.109 5.891 0 10.672-4.781 10.672-10.672 0-.531-.047-1.047-.125-1.547h.015zm-213.109 0h.016c-.078.5-.125 1.031-.125 1.547 0 5.891 4.766 10.672 10.656 10.672 5.359 0 9.797-3.953 10.547-9.109h.016c.031-.203 3.156-19.859 23.688-27.562l-7.484-19.984c-32.189 12.077-37.127 43.124-37.314 44.436z" fill="#434a54"/><path d="M287.953 202.672c0 64.797-24.375 117.328-85.281 117.328s-85.266-52.531-85.266-117.328 31.703-96 85.266-96c53.578 0 85.281 31.203 85.281 96z" fill="#a0d468"/><path d="M282.047 160h-158.75c-2.078 6.5-3.625 13.609-4.609 21.328h73.328v138.094c3.422.391 6.969.578 10.656.578s7.25-.188 10.672-.578V181.328h73.312c-.984-7.719-2.515-14.828-4.609-21.328z" fill="#8cc153"/></svg>