<?xml version="1.0" encoding="utf-8"?>
<!-- Generator: Adobe Illustrator 16.0.0, SVG Export Plug-In . SVG Version: 6.00 Build 0)  -->
<!DOCTYPE svg PUBLIC "-//W3C//DTD SVG 1.1//EN" "http://www.w3.org/Graphics/SVG/1.1/DTD/svg11.dtd">
<svg xmlns="http://www.w3.org/2000/svg" xmlns:xlink="http://www.w3.org/1999/xlink" version="1.1" id="Layer_1" x="0px" y="0px" width="512" height="512" viewBox="0 0 512 512" enable-background="new 0 0 512 512" xml:space="preserve">
<g id="virus_scan">
	<polygon fill="#CCD1D9" points="391.188,361.062 361.016,391.234 255.422,285.625 285.594,255.453  "/>
	<path fill="#434A54" d="M353.484,398.766l103.859,103.859c12.5,12.5,32.75,12.5,45.25,0s12.5-32.75,0-45.25l0,0L398.734,353.516   L353.484,398.766z"/>
	<path fill="#AC92EB" d="M202.672,394.625c-51.281,0-99.484-19.969-135.75-56.234c-36.25-36.25-56.219-84.469-56.219-135.75   s19.969-99.484,56.219-135.75c36.266-36.25,84.469-56.219,135.75-56.219l0,0c51.281,0,99.5,19.969,135.75,56.219   c36.266,36.266,56.234,84.469,56.234,135.75s-19.969,99.5-56.234,135.75C302.172,374.656,253.953,394.625,202.672,394.625   L202.672,394.625z"/>
	<path fill="#E6E9ED" d="M202.672,0C90.766,0,0.031,90.719,0.031,202.641s90.734,202.656,202.641,202.656   c111.922,0,202.656-90.734,202.656-202.656C405.328,90.734,314.594,0,202.672,0z M330.891,330.859   c-16.656,16.656-36.062,29.734-57.641,38.859c-22.344,9.453-46.078,14.234-70.578,14.234c-24.484,0-48.219-4.781-70.562-14.234   c-21.594-9.125-40.984-22.203-57.641-38.859s-29.734-36.062-38.859-57.641c-9.453-22.344-14.25-46.094-14.25-70.578   s4.797-48.219,14.25-70.562c9.125-21.594,22.203-40.984,38.859-57.641s36.047-29.734,57.641-38.859   c22.344-9.453,46.078-14.25,70.562-14.25l0,0c24.5,0,48.234,4.797,70.578,14.25c21.578,9.125,40.984,22.203,57.641,38.859   s29.734,36.047,38.859,57.641c9.453,22.344,14.234,46.078,14.234,70.562c0,24.5-4.781,48.234-14.234,70.578   C360.625,294.797,347.547,314.203,330.891,330.859z"/>
	<g>
		<path fill="#434A54" d="M320.016,213.328H320H85.359h-0.016c-5.891,0-10.672,4.781-10.672,10.672s4.781,10.672,10.672,10.672l0,0    h234.672l0,0l0,0c5.891,0,10.656-4.781,10.656-10.672S325.906,213.328,320.016,213.328z"/>
		<path fill="#434A54" d="M140.188,80.141l32.188,53.781l18.312-10.953L158.5,69.188h-0.016c-1.859-3.094-5.25-5.188-9.141-5.188    c-5.891,0-10.672,4.781-10.672,10.672c0,2,0.562,3.859,1.531,5.469H140.188z"/>
		<path fill="#434A54" d="M265.266,80.141h-0.016c0.953-1.609,1.516-3.469,1.516-5.469C266.766,68.781,262,64,256.109,64    c-3.891,0-7.281,2.078-9.141,5.188h-0.016l-32.188,53.781l18.297,10.953L265.266,80.141z"/>
		<path fill="#434A54" d="M85.438,150.891c0.188,1.312,5.125,32.359,37.312,44.438l7.484-19.984    c-20.172-7.562-23.578-26.844-23.703-27.656l0.016,0.094h-0.016c-0.766-5.156-5.188-9.109-10.547-9.109    c-5.891,0-10.656,4.766-10.656,10.656c0,0.531,0.047,1.047,0.125,1.562H85.438z"/>
		<path fill="#434A54" d="M319.891,150.891L319.891,150.891c0.062-0.516,0.125-1.031,0.125-1.562    c0-5.891-4.781-10.656-10.672-10.656c-5.359,0-9.781,3.953-10.547,9.109l0,0c-0.031,0.188-3.156,19.859-23.703,27.562    l7.484,19.984C314.766,183.25,319.703,152.203,319.891,150.891z"/>
		<path fill="#434A54" d="M309.234,307.781c-0.203-1.328-5.125-32.359-37.312-44.438l-7.5,19.969    c20.188,7.578,23.578,26.844,23.719,27.672l-0.016-0.094h0.016c0.75,5.156,5.172,9.109,10.531,9.109    c5.891,0,10.672-4.781,10.672-10.672c0-0.531-0.047-1.047-0.125-1.547H309.234z"/>
		<path fill="#434A54" d="M96.125,307.781h0.016c-0.078,0.5-0.125,1.031-0.125,1.547c0,5.891,4.766,10.672,10.656,10.672    c5.359,0,9.797-3.953,10.547-9.109h0.016c0.031-0.203,3.156-19.859,23.688-27.562l-7.484-19.984    C101.25,275.422,96.312,306.469,96.125,307.781z"/>
	</g>
	<g>
		<path fill="#A0D468" d="M287.953,202.672c0,64.797-24.375,117.328-85.281,117.328s-85.266-52.531-85.266-117.328    s31.703-96,85.266-96C256.25,106.672,287.953,137.875,287.953,202.672z"/>
	</g>
	<path fill="#8CC153" d="M282.047,160h-158.75c-2.078,6.5-3.625,13.609-4.609,21.328h73.328v138.094   c3.422,0.391,6.969,0.578,10.656,0.578s7.25-0.188,10.672-0.578V181.328h73.312C285.672,173.609,284.141,166.5,282.047,160z"/>
</g>
</svg>
