<svg viewBox="0 0 512 512" xmlns="http://www.w3.org/2000/svg"><defs><filter x="-5%" y="-11.7%" width="110.1%" height="123.4%" filterUnits="objectBoundingBox" id="a"><feGaussianBlur stdDeviation="3.85712544 3.85712544" in="SourceGraphic"/></filter></defs><g fill="none" fill-rule="evenodd"><g fill-rule="nonzero"><circle fill="#8B2E72" cx="256" cy="256" r="256"/><path d="M512 256c0-24.359-3.404-47.923-9.76-70.244l-69.449-69.449-127.584-61.6L268 17.5 223.667 49 109.228 96.333 54.707 205.667 17.5 268l37.207 37.207L91.15 409.565l91.858 91.858C206.142 508.293 230.636 512 256 512c141.385 0 256-114.615 256-256z" fill="#590F38"/><path d="M494.5 244h-13.527c-2.902-55.668-25.955-107.595-65.666-147.307C375.595 56.982 323.668 33.929 268 31.026V17.5h-24v13.526c-55.668 2.902-107.595 25.956-147.307 65.667C56.981 136.404 33.929 188.332 31.027 244H17.5v24h13.527c2.902 55.668 25.955 107.595 65.667 147.307 39.712 39.712 91.638 62.764 147.306 65.667V494.5h24v-13.526c55.668-2.902 107.595-25.956 147.307-65.667 39.711-39.711 62.764-91.638 65.666-147.307H494.5v-24zM268 456.926V431.5h-24v25.426C142.544 450.93 61.071 369.455 55.075 268H80.5v-24H55.075C61.071 142.545 142.544 61.07 244 55.074V80.5h24V55.074C369.455 61.07 450.929 142.545 456.925 244H431.5v24h25.425C450.929 369.455 369.455 450.93 268 456.926z" fill="#35CCFF"/><path d="M494.5 244h-13.527c-2.902-55.668-25.955-107.595-65.666-147.307C375.595 56.982 323.668 33.929 268 31.026V17.5h-24v13.526c-55.668 2.902-107.595 25.956-147.307 65.667C56.981 136.404 33.929 188.332 31.027 244H17.5v24h13.527c2.902 55.668 25.955 107.595 65.667 147.307 39.712 39.712 91.638 62.764 147.306 65.667V494.5h24v-13.526c55.668-2.902 107.595-25.956 147.307-65.667 39.711-39.711 62.764-91.638 65.666-147.307H494.5v-24zM268 456.926V431.5h-24v25.426C142.544 450.93 61.071 369.455 55.075 268H80.5v-24H55.075C61.071 142.545 142.544 61.07 244 55.074V80.5h24V55.074C369.455 61.07 450.929 142.545 456.925 244H431.5v24h25.425C450.929 369.455 369.455 450.93 268 456.926z" fill="#F5A623"/><path d="M480.973 244c-2.902-55.668-25.955-107.595-65.666-147.307C375.595 56.982 323.668 33.929 268 31.026V17.5h-12.333v63H268V55.074C369.455 61.07 450.929 142.545 456.925 244H431.5v24h25.425C450.929 369.455 369.455 450.93 268 456.926V431.5h-12.333v63H268v-13.526c55.668-2.902 107.595-25.956 147.307-65.667 39.711-39.711 62.764-91.638 65.666-147.307H494.5v-24h-13.527z" fill="#F5A623"/></g><g transform="translate(122 122)" fill-rule="nonzero"><path d="M19.295 142.473C-6.613 100.372 6.498 45.227 48.585 19.304c42.087-25.922 97.214-12.808 123.13 29.293a89.533 89.533 0 0 1 13.276 48.22c-1.598 49.499-42.42 88.658-91.922 88.179H10.474l8.694-14.771a26.917 26.917 0 0 0 .127-27.752z" fill="#FFF"/><path d="M247.792 218.75c25.758-41.842 12.691-96.625-29.185-122.362A89.007 89.007 0 0 0 183.827 84c.623 4.358.915 8.748.89 13.15-1.59 49.18-42.194 88.087-91.434 87.61H84c7.261 44.18 45.609 76.518 90.416 76.238h82.15l-8.647-14.675a26.732 26.732 0 0 1-.127-27.573z" fill="#D1EEFF"/><g fill="#1AA8FF"><path d="M253.812 243.646a20.333 20.333 0 0 1 0-21.03c27.657-44.965 13.63-103.841-31.334-131.498a95.544 95.544 0 0 0-32.392-12.522 95.584 95.584 0 0 0-28.55-52.32A94.68 94.68 0 0 0 88.124.34C35.493 4.463-3.826 50.467.297 103.098a95.544 95.544 0 0 0 14.102 42.983 20.333 20.333 0 0 1 0 21.03l-8.858 14.785a6.369 6.369 0 0 0 5.48 9.622h67.805c10.005 44.742 49.744 76.529 95.59 76.471h82.588a6.375 6.375 0 0 0 5.481-9.623l-8.673-14.72zM22.168 178.773l3.059-5.161a33.074 33.074 0 0 0 0-34.221C1.247 100.422 13.399 49.396 52.36 25.417c38.962-23.98 89.994-11.834 113.974 27.134a82.812 82.812 0 0 1 12.28 44.59c-1.523 45.856-39.383 82.11-85.265 81.632H22.168zm152.496 76.471c-38.943.223-73.068-26.025-82.844-63.726h1.53c52.829.44 96.354-41.377 98.01-94.187v-5.544c44.545 10.457 72.177 55.04 61.719 99.584a82.898 82.898 0 0 1-10.1 24.49 33.074 33.074 0 0 0 0 34.221l3.058 5.162h-71.373z"/><path d="M102.845 80.571c0 6.373-5.99 10.451-21.348 11.089l-.637.637 2.804 19.755h12.745l1.338-7.456c13-2.294 23.515-8.667 23.515-24.28 0-16.186-11.916-25.49-29.505-25.49a38.24 38.24 0 0 0-29.824 13.191l11.216 12.3a25.101 25.101 0 0 1 18.29-8.412c7.264 0 11.406 3.186 11.406 8.666z"/><path d="M79.648 121.713L99.403 121.713 99.403 141.213 79.648 141.213z"/></g></g><text transform="matrix(-1 0 0 1 362 367)" fill="#50E3C2" font-family="Helvetica" font-size="9"><tspan x="0" y="9">Hello World</tspan></text><g transform="translate(174 350)"><rect fill-opacity=".569" fill="#000" filter="url(#a)" y="22" width="325" height="140" rx="23"/><text font-family="Helvetica" font-size="144" fill="#D1EEFF"><tspan x="0" y="140">2018</tspan></text></g></g></svg>