<svg viewBox="0 0 512 512" xmlns="http://www.w3.org/2000/svg"><path d="M241.718 52.068v17.356L215.684 86.78 189.65 69.424V34.712l26.034-8.678 26.034 8.678z" fill="#d3d3d3"/><path d="M215.684 0l95.457 26.034 17.356 34.712-34.712 26.034V69.424l-52.067-17.356V34.712l-26.034-8.678-26.034 8.678v17.356l-52.068 17.356V86.78L102.87 60.746l17.356-34.712z" fill="#003570"/><path d="M248.4 334.536l-15.274 22.128-17.442 25.167-17.443-25.167-15.273-22.128 15.36-30.807h34.712z" fill="#00448f"/><path d="M233.126 356.664L250.396 512h-69.424l17.269-155.336 17.443 25.167z" fill="#00448f"/><path d="M423.955 182.237v17.356c-.026 9.572-7.784 17.33-17.356 17.356-9.554-.069-17.286-7.801-17.356-17.356v-17.356z" fill="#d3d3d3"/><path d="M415.277 295.051v17.356h-52.068v-43.39c0-14.379 11.655-26.034 26.034-26.034h52.849c13.928-.017 25.236 11.255 25.253 25.183v.85c0 14.379-11.654 26.034-26.034 26.034h-26.034z" fill="#f5f5f5"/><path d="M250.396 269.017v8.678l-17.356 26.034h-34.712l-17.356-26.034v-26.034l1.649-4.426a68.64 68.64 0 0 0 24.385 4.426h17.356a68.64 68.64 0 0 0 24.385-4.426l1.649 4.426zM137.582 130.169v34.712h-17.356c-9.554-.069-17.287-7.801-17.356-17.356.026-9.572 7.784-17.33 17.356-17.356zm185.795 5.12a16.94 16.94 0 0 1 5.12 12.236c-.026 9.572-7.784 17.33-17.356 17.356h-17.356v-34.712h17.356a16.972 16.972 0 0 1 12.236 5.12z" fill="#ffcba8"/><path d="M197.547 130.169h36.274a11.958 11.958 0 0 0-.781 4.339c0 7.185 5.832 13.017 13.017 13.017s13.017-5.832 13.017-13.017a11.958 11.958 0 0 0-.781-4.339h9.459l26.034-34.712v86.78c0 38.339-31.084 69.424-69.424 69.424h-17.356c-38.339 0-69.424-31.084-69.424-69.424v-86.78l26.034 34.712h9.459a11.958 11.958 0 0 0-.781 4.339c0 7.185 5.832 13.017 13.017 13.017s13.017-5.832 13.017-13.017a12.181 12.181 0 0 0-.781-4.339z" fill="#ffcba8"/><path d="M180.972 277.695l17.356 26.034-15.36 30.807-44.344-63.957a84.346 84.346 0 0 1 16.315-1.562h26.034zm111.772-7.116L248.4 334.536l-15.36-30.807 17.356-26.034v-8.678h26.034a84.404 84.404 0 0 1 16.314 1.562z" fill="#0769b0"/><path d="M415.277 312.407v147.525c0 28.759-23.309 52.068-52.068 52.068V312.407zM111.548 512h-43.39V355.797c.009-41.628 29.575-77.39 70.465-85.218l44.344 63.957 15.273 22.129L180.972 512zm208.271-121.492v-26.034l-8.678-17.356H276.43l-8.678 17.356v26.034l26.034 17.356zm0 121.492h-69.424l-17.269-155.336 15.273-22.129 44.344-63.957c40.891 7.828 70.456 43.589 70.465 85.218V512z" fill="#168de2"/><path d="M258.293 130.169c.529 1.388.79 2.855.781 4.339 0 7.185-5.832 13.017-13.017 13.017s-13.017-5.832-13.017-13.017a11.958 11.958 0 0 1 .781-4.339zm0 0h-24.472c2.369-6.76 9.763-10.318 16.523-7.949a12.97 12.97 0 0 1 7.949 7.949zm-60.746 0c.529 1.388.79 2.855.781 4.339 0 7.185-5.832 13.017-13.017 13.017s-13.017-5.832-13.017-13.017a11.958 11.958 0 0 1 .781-4.339zm0 0h-24.472c2.369-6.76 9.763-10.318 16.523-7.949a12.97 12.97 0 0 1 7.949 7.949z"/><path d="M102.87 329.763h17.356V512H102.87zm208.271 60.745h17.356V512h-17.356z" fill="#0c78c4"/><path d="M224.362 190.915h-17.356c-4.79 0-8.678-3.888-8.678-8.678v-26.034h17.356v17.356h8.678z" fill="#ebb691"/><g fill="#ffd472"><path d="M369.332 288.909l-12.273 12.272-34.713-34.712 12.272-12.272zm-260.337-22.432L56.93 318.543l-12.272-12.272 52.064-52.066z"/></g><g fill="#5b5b5b"><path d="M406.599 225.627c-14.345-.069-25.964-11.689-26.034-26.034v-17.356c0-4.79 3.888-8.678 8.678-8.678h34.712c4.79 0 8.678 3.888 8.678 8.678v17.356c0 14.38-11.655 26.034-26.034 26.034zm-8.678-34.712v8.678a8.384 8.384 0 0 0 2.491 6.023 8.462 8.462 0 0 0 6.187 2.655c4.79 0 8.678-3.888 8.678-8.678v-8.678z"/><path d="M354.531 173.559h34.712v17.356h-34.712z"/></g><path d="M215.684 227.406h-.069a45.02 45.02 0 0 1-32.108-13.364l12.305-12.236a27.751 27.751 0 0 0 19.803 8.244 28.023 28.023 0 0 0 19.959-8.261l12.271 12.271a45.246 45.246 0 0 1-32.161 13.346z" fill="#ebb691"/><path d="M319.819 364.475v26.033l-26.034 17.356-26.033-17.356v-26.033l8.678-17.356h34.711z" fill="#d3d3d3"/><path d="M293.785 95.458l-26.033 34.711H163.616l-26.034-34.711V69.424l52.068-17.356v17.356l26.034 17.356 26.034-17.356V52.068l52.067 17.356V86.78z" fill="#002b5c"/></svg>