<?xml version="1.0" encoding="iso-8859-1"?>
<!-- Generator: Adobe Illustrator 19.0.0, SVG Export Plug-In . SVG Version: 6.00 Build 0)  -->
<svg version="1.1" id="Capa_1" xmlns="http://www.w3.org/2000/svg" xmlns:xlink="http://www.w3.org/1999/xlink" x="0px" y="0px"
	 viewBox="0 0 512 512" style="enable-background:new 0 0 512 512;" xml:space="preserve">
<polygon style="fill:#D3D3D3;" points="241.718,52.068 241.718,69.424 215.684,86.78 189.65,69.424 189.65,52.068 189.65,34.712 
	215.684,26.034 241.718,34.712 "/>
<polygon style="fill:#003570;" points="215.684,0 311.141,26.034 328.497,60.746 293.785,86.78 293.785,69.424 241.718,52.068 
	241.718,34.712 215.684,26.034 189.65,34.712 189.65,52.068 137.582,69.424 137.582,86.78 102.87,60.746 120.226,26.034 "/>
<g>
	<polygon style="fill:#00448F;" points="248.4,334.536 233.126,356.664 215.684,381.831 198.241,356.664 182.968,334.536 
		198.328,303.729 215.684,303.729 233.04,303.729 	"/>
	<polygon style="fill:#00448F;" points="233.126,356.664 250.396,512 180.972,512 198.241,356.664 215.684,381.831 	"/>
</g>
<path style="fill:#D3D3D3;" d="M423.955,182.237v17.356c-0.026,9.572-7.784,17.33-17.356,17.356
	c-9.554-0.069-17.286-7.801-17.356-17.356v-17.356H423.955z"/>
<path style="fill:#F5F5F5;" d="M415.277,295.051v17.356h-52.068v-43.39c0-14.379,11.655-26.034,26.034-26.034h52.849
	c13.928-0.017,25.236,11.255,25.253,25.183c0,0.026,0,0.043,0,0.069v0.781c0,14.379-11.654,26.034-26.034,26.034H415.277z"/>
<g>
	<path style="fill:#FFCBA8;" d="M250.396,269.017v8.678l-17.356,26.034h-34.712l-17.356-26.034v-26.034l1.649-4.426
		c7.793,2.942,16.054,4.443,24.385,4.426h17.356c8.331,0.017,16.592-1.484,24.385-4.426l1.649,4.426V269.017z"/>
	<path style="fill:#FFCBA8;" d="M137.582,130.169v34.712h-17.356c-9.554-0.069-17.287-7.801-17.356-17.356
		c0.026-9.572,7.784-17.33,17.356-17.356H137.582z"/>
	<path style="fill:#FFCBA8;" d="M323.377,135.289c3.298,3.211,5.146,7.628,5.12,12.236c-0.026,9.572-7.784,17.33-17.356,17.356
		h-17.356v-34.712h17.356C315.741,130.143,320.158,131.992,323.377,135.289z"/>
	<path style="fill:#FFCBA8;" d="M197.547,130.169h36.274c-0.529,1.388-0.79,2.855-0.781,4.339c0,7.185,5.832,13.017,13.017,13.017
		s13.017-5.832,13.017-13.017c0.009-1.484-0.252-2.951-0.781-4.339h9.459l26.034-34.712v86.78c0,38.339-31.084,69.424-69.424,69.424
		h-17.356c-38.339,0-69.424-31.084-69.424-69.424v-86.78l26.034,34.712h9.459c-0.529,1.388-0.79,2.855-0.781,4.339
		c0,7.185,5.832,13.017,13.017,13.017s13.017-5.832,13.017-13.017C198.336,133.025,198.067,131.558,197.547,130.169z"/>
</g>
<g>
	<path style="fill:#0769B0;" d="M180.972,277.695l17.356,26.034l-15.36,30.807l-44.344-63.957c5.372-1.05,10.839-1.571,16.315-1.562
		h26.034L180.972,277.695L180.972,277.695z"/>
	<path style="fill:#0769B0;" d="M292.744,270.579L248.4,334.536l-15.36-30.807l17.356-26.034v-8.678h26.034
		C281.905,269.008,287.364,269.529,292.744,270.579z"/>
</g>
<g>
	<path style="fill:#168DE2;" d="M415.277,312.407v147.525c0,28.759-23.309,52.068-52.068,52.068V312.407H415.277z"/>
	<path style="fill:#168DE2;" d="M111.548,512h-43.39V355.797c0.009-41.628,29.575-77.39,70.465-85.218l44.344,63.957l15.273,22.129
		L180.972,512H111.548z"/>
	<path style="fill:#168DE2;" d="M319.819,390.508v-26.034l-8.678-17.356H276.43l-8.678,17.356v26.034l26.034,17.356L319.819,390.508
		z M319.819,512h-69.424l-17.269-155.336l15.273-22.129l44.344-63.957c40.891,7.828,70.456,43.589,70.465,85.218V512H319.819z"/>
</g>
<path d="M258.293,130.169c0.529,1.388,0.79,2.855,0.781,4.339c0,7.185-5.832,13.017-13.017,13.017s-13.017-5.832-13.017-13.017
	c-0.009-1.484,0.252-2.951,0.781-4.339H258.293z"/>
<path d="M258.293,130.169h-24.472c2.369-6.76,9.763-10.318,16.523-7.949C254.058,123.522,256.991,126.447,258.293,130.169z"/>
<path d="M197.547,130.169c0.529,1.388,0.79,2.855,0.781,4.339c0,7.185-5.832,13.017-13.017,13.017s-13.017-5.832-13.017-13.017
	c-0.009-1.484,0.252-2.951,0.781-4.339H197.547z"/>
<path d="M197.547,130.169h-24.472c2.369-6.76,9.763-10.318,16.523-7.949C193.312,123.522,196.245,126.447,197.547,130.169z"/>
<g>
	<rect x="102.87" y="329.763" style="fill:#0C78C4;" width="17.356" height="182.237"/>
	<rect x="311.141" y="390.508" style="fill:#0C78C4;" width="17.356" height="121.492"/>
</g>
<path style="fill:#EBB691;" d="M224.362,190.915h-17.356c-4.79,0-8.678-3.888-8.678-8.678v-26.034h17.356v17.356h8.678V190.915z"/>
<g>
	
		<rect x="337.157" y="253.144" transform="matrix(-0.7071 0.7071 -0.7071 -0.7071 786.7335 229.5034)" style="fill:#FFD472;" width="17.356" height="49.091"/>
	
		<rect x="40.008" y="277.695" transform="matrix(-0.7071 0.7071 -0.7071 -0.7071 333.6433 434.546)" style="fill:#FFD472;" width="73.632" height="17.356"/>
</g>
<g>
	<path style="fill:#5B5B5B;" d="M406.599,225.627c-14.345-0.069-25.964-11.689-26.034-26.034v-17.356
		c0-4.79,3.888-8.678,8.678-8.678h34.712c4.79,0,8.678,3.888,8.678,8.678v17.356C432.633,213.973,420.978,225.627,406.599,225.627z
		 M397.921,190.915v8.678c-0.017,2.265,0.885,4.434,2.491,6.023c1.605,1.701,3.844,2.664,6.187,2.655
		c4.79,0,8.678-3.888,8.678-8.678v-8.678H397.921z"/>
	<rect x="354.531" y="173.559" style="fill:#5B5B5B;" width="34.712" height="17.356"/>
</g>
<path style="fill:#EBB691;" d="M215.684,227.406h-0.069c-12.062,0.026-23.63-4.79-32.108-13.364l12.305-12.236
	c5.233,5.294,12.366,8.261,19.803,8.244l0,0c7.489,0.026,14.674-2.951,19.959-8.261l12.271,12.271
	C239.331,222.625,227.755,227.423,215.684,227.406z"/>
<polygon style="fill:#D3D3D3;" points="319.819,364.475 319.819,390.508 293.785,407.864 267.752,390.508 267.752,364.475 
	276.43,347.119 311.141,347.119 "/>
<polygon style="fill:#002B5C;" points="293.785,95.458 267.752,130.169 163.616,130.169 137.582,95.458 137.582,86.78 
	137.582,69.424 189.65,52.068 189.65,69.424 215.684,86.78 241.718,69.424 241.718,52.068 293.785,69.424 293.785,86.78 "/>
<g>
</g>
<g>
</g>
<g>
</g>
<g>
</g>
<g>
</g>
<g>
</g>
<g>
</g>
<g>
</g>
<g>
</g>
<g>
</g>
<g>
</g>
<g>
</g>
<g>
</g>
<g>
</g>
<g>
</g>
</svg>
