<?xml version="1.0" encoding="iso-8859-1"?>
<!-- Generator: Adobe Illustrator 19.0.0, SVG Export Plug-In . SVG Version: 6.00 Build 0)  -->
<svg version="1.1" id="Capa_1" xmlns="http://www.w3.org/2000/svg" xmlns:xlink="http://www.w3.org/1999/xlink" x="0px" y="0px"
	 viewBox="0 0 512 512" style="enable-background:new 0 0 512 512;" xml:space="preserve">
<path style="fill:#EDECFF;" d="M442.254,217.09V182c0-22.09-17.91-40-40-40c-14.751,0-115.693,0-130,0h-2c0-22.09-17.91-40-40-40
	c-11.716,0-108.264,0-120,0c-22.09,0-40,17.91-40,40v35.09c-36.58,29.33-60,74.38-60,124.91c0,88.37,71.64,160,160,160
	c19.038,0,37.697-3.203,55.8-10.02v0.01c29.16,30.8,70.44,50.01,116.2,50.01h0.01c83.007,0,149.38-63.43,158.74-139.75
	C508.204,303.63,483.654,250.28,442.254,217.09z M270.254,302c0,25.14-9.27,48.12-24.6,65.68c-4.13-15.62-4.5-32.3-0.81-48.8
	c3.57-15.97,11.33-30.68,22-42.85C269.074,284.31,270.254,293.02,270.254,302z M170.254,402c-55.23,0-100-44.77-100-100
	s44.77-100,100-100c24.03,0,46.08,8.47,63.31,22.59c-31.56,29.22-51.31,71.01-51.31,117.41c0,20.24,3.76,39.61,10.62,57.43
	C185.604,401.11,178.034,402,170.254,402z M439.664,365.12C430.3,407.045,391.867,442,342.254,442c-23.44,0-45.69-8.1-63.42-22.72
	c27-25.02,45.52-59.14,50.17-97.03c3.39-27.61-0.26-54.06-9.4-77.77c7.53-1.65,15.15-2.48,22.65-2.48
	c30.47,0,58.94,13.69,78.08,37.6C439.434,303.43,446.484,334.6,439.664,365.12z"/>
<path d="M409.074,189.07c3.91-3.9,3.91-10.24,0-14.14c-3.9-3.91-10.24-3.91-14.14,0c-3.91,3.9-3.91,10.24,0,14.14
	C398.834,192.98,405.174,192.98,409.074,189.07z"/>
<path d="M237.074,149.07c3.91-3.9,3.91-10.24,0-14.14c-3.9-3.91-10.24-3.91-14.14,0c-3.91,3.9-3.91,10.24,0,14.14
	C226.834,152.98,233.174,152.98,237.074,149.07z"/>
<path d="M60.004,172.377c-38.193,32.417-60,79.385-60,129.623c0,93.738,76.262,170,170,170c18.45,0,36.087-2.829,53.127-8.484
	C255.06,494.826,297.014,512,342.004,512c0.002,0,0.003,0,0.005,0s0.003,0,0.005,0s0.004,0,0.006,0l0,0c0.002,0,0.005,0,0.007,0
	c88-0.007,158.655-67.016,168.653-148.531c7.093-57.743-14.792-113.854-58.675-151.092V182c0-27.57-22.43-50-50-50h-53V70
	c0-38.598-31.402-70-70-70h-46c-38.598,0-70,31.402-70,70v22h-53c-27.57,0-50,22.43-50,50v30.377H60.004z M80.004,302
	c0-49.626,40.374-90,90-90c17.002,0,33.656,4.855,47.92,13.821c-29.311,31.345-45.92,73.034-45.92,116.179
	c0,16.932,2.465,33.534,7.33,49.512c-3.094,0.319-6.209,0.488-9.33,0.488C120.378,392,80.004,351.626,80.004,302z M252.121,338.802
	c0.185-5.937,0.922-11.885,2.232-17.74c1.267-5.666,3.155-11.219,5.595-16.568C259.618,316.424,256.931,328.07,252.121,338.802z
	 M234.835,316.697c-3.558,15.912-3.668,32.42-0.377,48.092c-9.977,10.27-22.064,17.903-35.506,22.446
	c-4.608-14.566-6.948-29.74-6.948-45.235c0-38.598,15.068-75.876,41.607-103.659c10.011,9.972,17.457,22.028,21.864,35.438
	C245.391,286.531,238.287,301.257,234.835,316.697z M332.667,252.477c3.121-0.312,6.239-0.477,9.337-0.477
	c57.032,0,100.667,52.685,87.651,110.94c-8.399,37.599-42.856,69.06-87.651,69.06c-17.073,0-33.771-4.891-48.044-13.919
	c24.645-26.257,40.401-59.429,44.719-94.612C341.67,299.112,339.635,275.29,332.667,252.477z M279.077,432.185
	C297.413,445.006,319.444,452,342.004,452c11.028,0,20,8.972,20,20c0,11.021-8.97,19.993-20,20
	c-36.725,0-71.159-12.968-98.417-36.783C256.285,449.071,268.164,441.371,279.077,432.185z M432.004,182v35.09
	c0,3.034,1.377,5.904,3.745,7.802c40.929,32.813,61.52,83.707,55.079,136.141c-7.493,61.093-53.227,111.561-111.939,126.434
	c2.005-4.761,3.115-9.987,3.115-15.467c0-9.209-3.136-17.694-8.385-24.462c37.138-10.839,67.09-42.339,75.555-80.237
	C465.056,296.22,411.499,232,342.004,232c-5.484,0-11.012,0.413-16.518,1.214c-6.6-14.873-15.352-28.788-25.896-41.214h62.414
	c5.523,0,10-4.478,10-10s-4.477-10-10-10h-82v-20h122C418.546,152,432.004,165.458,432.004,182z M183.004,70c0-27.57,22.43-50,50-50
	h46c27.57,0,50,22.43,50,50v62h-50.006c-4.646-22.795-24.847-40-48.994-40h-47L183.004,70L183.004,70z M76.259,184.892
	c2.367-1.897,3.745-4.768,3.745-7.802V142c0-16.542,13.458-30,30-30h120c16.542,0,30,13.458,30,30v35.09
	c0,3.031,1.375,5.899,3.739,7.798c1.875,1.505,3.714,3.054,5.475,4.61c18.063,15.938,32.173,36.194,40.806,58.579
	c8.939,23.189,11.902,47.734,8.805,72.955c-4.225,34.431-20.932,66.718-47.042,90.914c-14.538,13.477-31.191,23.797-49.506,30.676
	c-5.038,1.897-10.176,3.495-15.379,4.819c1.997-4.754,3.103-9.97,3.103-15.441c0-9.271-3.179-17.809-8.493-24.599
	c46.383-13.792,78.493-56.709,78.493-105.401c0-61.184-49.68-110-110-110c-60.654,0-110,49.346-110,110s49.346,110,110,110
	c11.028,0,20,8.972,20,20s-8.972,20-20,20c-82.71,0-150-67.29-150-150C20.004,256.241,40.508,213.558,76.259,184.892z"/>
<path d="M110.004,152h80c5.523,0,10-4.478,10-10s-4.477-10-10-10h-80c-5.523,0-10,4.478-10,10S104.481,152,110.004,152z"/>
<g>
</g>
<g>
</g>
<g>
</g>
<g>
</g>
<g>
</g>
<g>
</g>
<g>
</g>
<g>
</g>
<g>
</g>
<g>
</g>
<g>
</g>
<g>
</g>
<g>
</g>
<g>
</g>
<g>
</g>
</svg>
