<svg xmlns="http://www.w3.org/2000/svg" viewBox="0 0 512 512"><path d="M442.254 217.09V182c0-22.09-17.91-40-40-40h-132c0-22.09-17.91-40-40-40h-120c-22.09 0-40 17.91-40 40v35.09c-36.58 29.33-60 74.38-60 124.91 0 88.37 71.64 160 160 160 19.038 0 37.697-3.203 55.8-10.02v.01c29.16 30.8 70.44 50.01 116.2 50.01h.01c83.007 0 149.38-63.43 158.74-139.75 7.2-58.62-17.35-111.97-58.75-145.16zm-172 84.91c0 25.14-9.27 48.12-24.6 65.68-4.13-15.62-4.5-32.3-.81-48.8 3.57-15.97 11.33-30.68 22-42.85 2.23 8.28 3.41 16.99 3.41 25.97zm-100 100c-55.23 0-100-44.77-100-100s44.77-100 100-100c24.03 0 46.08 8.47 63.31 22.59-31.56 29.22-51.31 71.01-51.31 117.41 0 20.24 3.76 39.61 10.62 57.43-7.27 1.68-14.84 2.57-22.62 2.57zm269.41-36.88C430.3 407.045 391.867 442 342.254 442c-23.44 0-45.69-8.1-63.42-22.72 27-25.02 45.52-59.14 50.17-97.03 3.39-27.61-.26-54.06-9.4-77.77 7.53-1.65 15.15-2.48 22.65-2.48 30.47 0 58.94 13.69 78.08 37.6 19.1 23.83 26.15 55 19.33 85.52z" fill="#EDECFF"/><path d="M409.074 189.07c3.91-3.9 3.91-10.24 0-14.14-3.9-3.91-10.24-3.91-14.14 0-3.91 3.9-3.91 10.24 0 14.14 3.9 3.91 10.24 3.91 14.14 0zm-172-40c3.91-3.9 3.91-10.24 0-14.14-3.9-3.91-10.24-3.91-14.14 0-3.91 3.9-3.91 10.24 0 14.14 3.9 3.91 10.24 3.91 14.14 0z"/><path d="M60.004 172.377C21.811 204.794.004 251.762.004 302c0 93.738 76.262 170 170 170 18.45 0 36.087-2.829 53.127-8.484C255.06 494.826 297.014 512 342.004 512h.023c88-.007 158.655-67.016 168.653-148.531 7.093-57.743-14.792-113.854-58.675-151.092V182c0-27.57-22.43-50-50-50h-53V70c0-38.598-31.402-70-70-70h-46c-38.598 0-70 31.402-70 70v22h-53c-27.57 0-50 22.43-50 50v30.377h-.001zm20 129.623c0-49.626 40.374-90 90-90a90.21 90.21 0 0 1 47.92 13.821c-29.311 31.345-45.92 73.034-45.92 116.179 0 16.932 2.465 33.534 7.33 49.512a90.991 90.991 0 0 1-9.33.488c-49.626 0-90-40.374-90-90zm172.117 36.802a94.813 94.813 0 0 1 2.232-17.74c1.267-5.666 3.155-11.219 5.595-16.568a89.937 89.937 0 0 1-7.827 34.308zm-17.286-22.105c-3.558 15.912-3.668 32.42-.377 48.092-9.977 10.27-22.064 17.903-35.506 22.446-4.608-14.566-6.948-29.74-6.948-45.235 0-38.598 15.068-75.876 41.607-103.659 10.011 9.972 17.457 22.028 21.864 35.438-10.084 12.752-17.188 27.478-20.64 42.918zm97.832-64.22a93.916 93.916 0 0 1 9.337-.477c57.032 0 100.667 52.685 87.651 110.94-8.399 37.599-42.856 69.06-87.651 69.06a90.019 90.019 0 0 1-48.044-13.919c24.645-26.257 40.401-59.429 44.719-94.612 2.991-24.357.956-48.179-6.012-70.992zm-53.59 179.708A110.016 110.016 0 0 0 342.004 452c11.028 0 20 8.972 20 20 0 11.021-8.97 19.993-20 20-36.725 0-71.159-12.968-98.417-36.783a170.082 170.082 0 0 0 35.49-23.032zM432.004 182v35.09a9.998 9.998 0 0 0 3.745 7.802c40.929 32.813 61.52 83.707 55.079 136.141-7.493 61.093-53.227 111.561-111.939 126.434A39.76 39.76 0 0 0 382.004 472c0-9.209-3.136-17.694-8.385-24.462 37.138-10.839 67.09-42.339 75.555-80.237C465.056 296.22 411.499 232 342.004 232c-5.484 0-11.012.413-16.518 1.214A171.021 171.021 0 0 0 299.59 192h62.414c5.523 0 10-4.478 10-10s-4.477-10-10-10h-82v-20h122c16.542 0 30 13.458 30 30zm-249-112c0-27.57 22.43-50 50-50h46c27.57 0 50 22.43 50 50v62h-50.006c-4.646-22.795-24.847-40-48.994-40h-47V70zM76.259 184.892a10 10 0 0 0 3.745-7.802V142c0-16.542 13.458-30 30-30h120c16.542 0 30 13.458 30 30v35.09c0 3.031 1.375 5.899 3.739 7.798a151.885 151.885 0 0 1 5.475 4.61c18.063 15.938 32.173 36.194 40.806 58.579 8.939 23.189 11.902 47.734 8.805 72.955-4.225 34.431-20.932 66.718-47.042 90.914-14.538 13.477-31.191 23.797-49.506 30.676a145.348 145.348 0 0 1-15.379 4.819A39.775 39.775 0 0 0 210.005 432c0-9.271-3.179-17.809-8.493-24.599 46.383-13.792 78.493-56.709 78.493-105.401 0-61.184-49.68-110-110-110-60.654 0-110 49.346-110 110s49.346 110 110 110c11.028 0 20 8.972 20 20s-8.972 20-20 20c-82.71 0-150-67.29-150-150-.001-45.759 20.503-88.442 56.254-117.108z"/><path d="M110.004 152h80c5.523 0 10-4.478 10-10s-4.477-10-10-10h-80c-5.523 0-10 4.478-10 10s4.477 10 10 10z"/></svg>