<?xml version="1.0" encoding="iso-8859-1"?>
<!-- Generator: Adobe Illustrator 19.0.0, SVG Export Plug-In . SVG Version: 6.00 Build 0)  -->
<svg version="1.1" id="Capa_1" xmlns="http://www.w3.org/2000/svg" xmlns:xlink="http://www.w3.org/1999/xlink" x="0px" y="0px"
	 viewBox="0 0 511.999 511.999" style="enable-background:new 0 0 511.999 511.999;" xml:space="preserve">
<path style="fill:#39444D;" d="M468.575,52.311h-63.591l0,0L256,112.139L107.015,52.311l0,0H43.424
	c-17.087,0-30.937,13.852-30.937,30.937v379.218c0,17.087,13.852,30.937,30.937,30.937h166.339l26.117-13.49L256,493.404
	l20.119-13.49l26.117,13.49h166.339c17.087,0,30.937-13.851,30.937-30.937V83.248C499.514,66.162,485.662,52.311,468.575,52.311z"/>
<polygon style="fill:#EAEAF1;" points="107.015,52.311 107.015,154.223 170.718,358.692 256,493.405 339.226,372.049 
	404.984,52.311 "/>
<g>
	<path style="fill:#2F393B;" d="M107.015,52.311H79.869c-6.002,16.215-24.657,58.503-67.384,97.975v93.428
		c7.327,3.854,15.767,7.684,25.331,11.108c-3.694,3.778-6.609,8.352-8.489,13.502c-4.432,12.136-2.433,25.534,5.345,35.841
		l142.823,189.239h32.267L107.015,52.311z"/>
	<path style="fill:#2F393B;" d="M404.984,52.311h27.144c6.002,16.215,24.657,58.503,67.384,97.975v93.428
		c-7.327,3.854-15.767,7.684-25.331,11.108c3.694,3.778,6.609,8.352,8.489,13.502c4.432,12.136,2.433,25.534-5.345,35.841
		L334.503,493.405h-32.267L404.984,52.311z"/>
</g>
<g>
	<path style="fill:#4D5561;" d="M107.015,52.311c0,0-21.581,78.056-102.406,137.887c-6.12,4.531-6.15,13.662-0.057,18.229
		c17.893,13.41,56.609,35.283,116.847,33.132c0,0-18.843,18.783-59.276,27.998c-8.534,1.945-12.166,12.108-6.894,19.094
		l154.533,204.754H256L107.015,52.311z"/>
	<path style="fill:#4D5561;" d="M404.984,52.311c0,0,21.581,78.056,102.406,137.887c6.12,4.531,6.15,13.662,0.057,18.229
		c-17.893,13.41-56.609,35.283-116.847,33.132c0,0,18.843,18.783,59.276,27.998c8.534,1.945,12.166,12.108,6.894,19.094
		L302.236,493.405H256L404.984,52.311z"/>
</g>
<g>
	<path style="fill:#F0484A;" d="M235.88,93.52c-56.48,47.183-109.944,39.472-79.099-22.218C125.935,9.612,179.4,1.9,235.88,49.084
		V93.52z"/>
	<path style="fill:#F0484A;" d="M276.119,93.52c56.48,47.183,109.944,39.472,79.099-22.218c30.846-61.69-22.62-69.401-79.099-22.218
		L276.119,93.52L276.119,93.52z"/>
</g>
<path style="fill:#FD6064;" d="M264.164,46.075h-16.328c-13.932,0-25.227,11.295-25.227,25.227l0,0
	c0,13.932,11.295,25.227,25.227,25.227h16.328c13.932,0,25.227-11.295,25.227-25.227l0,0
	C289.391,57.369,278.097,46.075,264.164,46.075z"/>
<g>
	<circle style="fill:#39444D;" cx="256" cy="171.689" r="13.357"/>
	<circle style="fill:#39444D;" cx="256" cy="242.586" r="13.357"/>
	<circle style="fill:#39444D;" cx="256" cy="313.484" r="13.357"/>
</g>
<g>
</g>
<g>
</g>
<g>
</g>
<g>
</g>
<g>
</g>
<g>
</g>
<g>
</g>
<g>
</g>
<g>
</g>
<g>
</g>
<g>
</g>
<g>
</g>
<g>
</g>
<g>
</g>
<g>
</g>
</svg>
