<svg xmlns="http://www.w3.org/2000/svg" viewBox="0 0 512.013 512.013"><path d="M458.68 160.007V373.34s-10.667 53.333-53.333 53.333v74.667h-224v-85.333c0-32-21.333-32-21.333-32h-64c-17.304.369-31.631-13.359-32-30.663-.01-.446-.01-.891 0-1.337V312.22a50.744 50.744 0 0 0-32-13.547c-11.538.244-21.089-8.911-21.333-20.449a21.71 21.71 0 0 1 0-.884l53.333-96.64v-20.693c0-82.475 66.859-149.333 149.333-149.333h85.333c82.454-.001 160 66.879 160 149.333z" fill="#87D2F3"/><circle cx="330.68" cy="181.34" r="74.667" fill="#87D2F3"/><path d="M501.347 149.34v64H454.52a131.87 131.87 0 0 1-13.653 32.96l33.173 33.067-45.333 45.227-33.067-33.067a131.87 131.87 0 0 1-32.96 13.653v46.827h-64V305.18a131.87 131.87 0 0 1-32.96-13.653l-33.067 33.067-45.333-45.227 33.173-33.067a131.87 131.87 0 0 1-13.653-32.96h-46.827v-64h46.827a131.87 131.87 0 0 1 13.653-32.96L187.32 83.313l45.333-45.333 33.067 33.173A131.87 131.87 0 0 1 298.68 57.5V10.673h64V57.5a131.87 131.87 0 0 1 32.96 13.653l33.067-33.173 45.333 45.333-33.173 33.067a131.87 131.87 0 0 1 13.653 32.96h46.827zm-96 32c0-41.237-33.429-74.667-74.667-74.667s-74.667 33.429-74.667 74.667 33.429 74.667 74.667 74.667c41.208.029 74.637-33.352 74.667-74.56v-.107z" fill="#FFF"/><g fill="#2170A6"><path d="M448.014 372.167c-1.536 6.4-11.819 43.84-42.667 43.84-5.891 0-10.667 4.776-10.667 10.667v64H192.014v-74.667c0-33.749-20.928-42.667-32-42.667h-64c-11.076.706-20.628-7.701-21.333-18.777a20.184 20.184 0 0 1 0-2.556v-39.765a10.666 10.666 0 0 0-3.595-7.989 61.62 61.62 0 0 0-39.072-16.245 9.366 9.366 0 0 1-10.443-8.32l51.787-93.867a10.734 10.734 0 0 0 1.323-5.141v-20.672C74.768 83.46 136.8 21.428 213.347 21.34V.007c-88.324.1-159.9 71.676-160 160v17.931l-52.011 94.25a10.74 10.74 0 0 0-1.323 5.152c-.502 17.171 13.01 31.498 30.181 32 .606.018 1.213.018 1.819 0a38.194 38.194 0 0 1 21.333 7.989v34.677c-.676 22.888 17.331 41.991 40.22 42.667.815.024 1.631.024 2.447 0h63.701c1.824.117 10.965 1.707 10.965 21.333v85.333c0 5.891 4.776 10.667 10.667 10.667h224c5.891 0 10.667-4.776 10.667-10.667v-64.981c33.344-6.304 49.237-41.483 53.12-60.928.14-.688.211-1.388.213-2.091v-21.333h-21.333v20.161z"/><path d="M501.347 138.673h-38.859a141.325 141.325 0 0 0-8.437-20.373l27.52-27.424c4.171-4.16 4.179-10.914.019-15.085l-.019-.019-45.291-45.333a10.662 10.662 0 0 0-7.541-3.125 10.666 10.666 0 0 0-7.541 3.136l-27.477 27.52a142.313 142.313 0 0 0-20.373-8.437v-38.86c0-5.891-4.776-10.667-10.667-10.667h-64c-5.891 0-10.667 4.776-10.667 10.667v38.859a142.265 142.265 0 0 0-20.373 8.437l-27.435-27.52a10.666 10.666 0 0 0-7.541-3.136 10.67 10.67 0 0 0-7.541 3.125L179.779 75.74c-4.171 4.16-4.179 10.914-.019 15.085l.019.019 27.52 27.424a141.361 141.361 0 0 0-8.427 20.405h-38.859c-5.891 0-10.667 4.776-10.667 10.667v64c0 5.891 4.776 10.667 10.667 10.667h38.859a141.325 141.325 0 0 0 8.437 20.373l-27.52 27.424c-4.174 4.157-4.187 10.911-.03 15.085l.03.03 45.333 45.227c4.164 4.157 10.908 4.157 15.072 0l27.435-27.424a142.904 142.904 0 0 0 20.384 8.427v38.859c0 5.891 4.776 10.667 10.667 10.667h64c5.891 0 10.667-4.776 10.667-10.667v-38.859a142.953 142.953 0 0 0 20.384-8.437l27.435 27.424c4.164 4.157 10.908 4.157 15.072 0l45.333-45.227c4.174-4.157 4.187-10.911.03-15.085l-.03-.03-27.52-27.424a141.367 141.367 0 0 0 8.437-20.363h38.859c5.891 0 10.667-4.776 10.667-10.667v-64c-.001-5.891-4.776-10.667-10.667-10.667zm-10.667 64h-36.16a10.667 10.667 0 0 0-10.304 7.947 122.105 122.105 0 0 1-12.565 30.304 10.667 10.667 0 0 0 1.685 12.928l25.6 25.515-30.219 30.155-25.504-25.536a10.667 10.667 0 0 0-12.917-1.675 121.471 121.471 0 0 1-30.304 12.555 10.668 10.668 0 0 0-7.979 10.315v36.16h-42.667v-36.16c0-4.844-3.263-9.08-7.947-10.315a121.487 121.487 0 0 1-30.304-12.555 10.665 10.665 0 0 0-12.917 1.675l-25.536 25.536-30.219-30.155 25.6-25.515a10.667 10.667 0 0 0 1.685-12.928 122.067 122.067 0 0 1-12.565-30.304 10.667 10.667 0 0 0-10.304-7.947h-36.16v-42.667h36.16a10.667 10.667 0 0 0 10.304-7.947 122.105 122.105 0 0 1 12.565-30.304 10.667 10.667 0 0 0-1.685-12.928l-25.6-25.525 30.229-30.229 25.525 25.6a10.667 10.667 0 0 0 12.928 1.685 121.471 121.471 0 0 1 30.304-12.555 10.665 10.665 0 0 0 7.936-10.304V21.34h42.667V57.5c0 4.844 3.263 9.08 7.947 10.315a121.487 121.487 0 0 1 30.304 12.555 10.666 10.666 0 0 0 12.949-1.685l25.525-25.6 30.229 30.229-25.6 25.525a10.667 10.667 0 0 0-1.685 12.928 122.067 122.067 0 0 1 12.565 30.304 10.667 10.667 0 0 0 10.272 7.936h36.16v42.666z"/><path d="M330.68 96.007c-47.128 0-85.333 38.205-85.333 85.333s38.205 85.333 85.333 85.333 85.333-38.205 85.333-85.333c-.052-47.106-38.226-85.28-85.333-85.333zm0 149.333c-35.346 0-64-28.654-64-64s28.654-64 64-64 64 28.654 64 64c-.035 35.332-28.668 63.965-64 64z"/><path d="M341.347 149.34h-21.333v32a10.67 10.67 0 0 0 3.125 7.541l21.333 21.333 15.083-15.083-18.208-18.208V149.34z"/></g></svg>