<?xml version="1.0" encoding="iso-8859-1"?>
<!-- Generator: Adobe Illustrator 19.0.0, SVG Export Plug-In . SVG Version: 6.00 Build 0)  -->
<svg version="1.1" id="Capa_1" xmlns="http://www.w3.org/2000/svg" xmlns:xlink="http://www.w3.org/1999/xlink" x="0px" y="0px"
	 viewBox="0 0 512.013 512.013" style="enable-background:new 0 0 512.013 512.013;" xml:space="preserve">
<g>
	<path style="fill:#87D2F3;" d="M458.68,160.007V373.34c0,0-10.667,53.333-53.333,53.333v74.667h-224v-85.333
		c0-32-21.333-32-21.333-32h-64c-17.304,0.369-31.631-13.359-32-30.663c-0.01-0.446-0.01-0.891,0-1.337V312.22
		c-8.74-8.141-20.071-12.938-32-13.547c-11.538,0.244-21.089-8.911-21.333-20.449c-0.006-0.295-0.006-0.589,0-0.884l53.333-96.64
		v-20.693c0-82.475,66.859-149.333,149.333-149.333h85.333C381.134,10.673,458.68,77.553,458.68,160.007L458.68,160.007z"/>
	<circle style="fill:#87D2F3;" cx="330.68" cy="181.34" r="74.667"/>
</g>
<path style="fill:#FFFFFF;" d="M501.347,149.34v64H454.52c-3.037,11.554-7.63,22.643-13.653,32.96l33.173,33.067l-45.333,45.227
	l-33.067-33.067c-10.317,6.023-21.406,10.616-32.96,13.653v46.827h-64V305.18c-11.554-3.037-22.643-7.63-32.96-13.653
	l-33.067,33.067l-45.333-45.227l33.173-33.067c-6.023-10.317-10.616-21.406-13.653-32.96h-46.827v-64h46.827
	c3.037-11.554,7.63-22.643,13.653-32.96L187.32,83.313l45.333-45.333l33.067,33.173c10.317-6.023,21.406-10.616,32.96-13.653V10.673
	h64V57.5c11.554,3.037,22.643,7.63,32.96,13.653l33.067-33.173l45.333,45.333l-33.173,33.067
	c6.023,10.317,10.616,21.406,13.653,32.96H501.347z M405.347,181.34c0-41.237-33.429-74.667-74.667-74.667
	s-74.667,33.429-74.667,74.667s33.429,74.667,74.667,74.667c41.208,0.029,74.637-33.352,74.667-74.56
	C405.347,181.411,405.347,181.376,405.347,181.34z"/>
<g>
	<path style="fill:#2170A6;" d="M448.014,372.167c-1.536,6.4-11.819,43.84-42.667,43.84c-5.891,0-10.667,4.776-10.667,10.667v64
		H192.014v-74.667c0-33.749-20.928-42.667-32-42.667h-64c-11.076,0.706-20.628-7.701-21.333-18.777
		c-0.054-0.851-0.054-1.705,0-2.556v-39.765c0.001-3.055-1.308-5.964-3.595-7.989c-10.698-9.857-24.539-15.612-39.072-16.245
		c-5.135,0.623-9.802-3.034-10.426-8.169c-0.006-0.05-0.012-0.101-0.017-0.151l51.787-93.867c0.865-1.576,1.319-3.344,1.323-5.141
		v-20.672C74.768,83.46,136.8,21.428,213.347,21.34V0.007c-88.324,0.1-159.9,71.676-160,160v17.931L1.336,272.188
		c-0.866,1.579-1.321,3.351-1.323,5.152c-0.502,17.171,13.01,31.498,30.181,32c0.606,0.018,1.213,0.018,1.819,0
		c7.758,0.431,15.2,3.218,21.333,7.989v34.677c-0.676,22.888,17.331,41.991,40.22,42.667c0.815,0.024,1.631,0.024,2.447,0h63.701
		c1.824,0.117,10.965,1.707,10.965,21.333v85.333c0,5.891,4.776,10.667,10.667,10.667h224c5.891,0,10.667-4.776,10.667-10.667
		v-64.981c33.344-6.304,49.237-41.483,53.12-60.928c0.14-0.688,0.211-1.388,0.213-2.091v-21.333h-21.333V372.167z"/>
	<path style="fill:#2170A6;" d="M501.347,138.673h-38.859c-2.277-7.001-5.099-13.812-8.437-20.373l27.52-27.424
		c4.171-4.16,4.179-10.914,0.019-15.085c-0.006-0.006-0.013-0.013-0.019-0.019L436.28,30.439c-2-2.001-4.713-3.125-7.541-3.125
		c-2.83,0.003-5.543,1.132-7.541,3.136l-27.477,27.52c-6.563-3.335-13.374-6.156-20.373-8.437V10.673
		c0-5.891-4.776-10.667-10.667-10.667h-64c-5.891,0-10.667,4.776-10.667,10.667v38.859c-6.999,2.281-13.811,5.102-20.373,8.437
		l-27.435-27.52c-1.998-2.004-4.711-3.133-7.541-3.136c-2.829,0.001-5.541,1.125-7.541,3.125L179.779,75.74
		c-4.171,4.16-4.179,10.914-0.019,15.085c0.006,0.006,0.013,0.013,0.019,0.019l27.52,27.424c-3.337,6.572-6.154,13.394-8.427,20.405
		h-38.859c-5.891,0-10.667,4.776-10.667,10.667v64c0,5.891,4.776,10.667,10.667,10.667h38.859
		c2.277,7.001,5.099,13.812,8.437,20.373l-27.52,27.424c-4.174,4.157-4.187,10.911-0.03,15.085c0.01,0.01,0.02,0.02,0.03,0.03
		l45.333,45.227c4.164,4.157,10.908,4.157,15.072,0l27.435-27.424c6.567,3.33,13.382,6.147,20.384,8.427v38.859
		c0,5.891,4.776,10.667,10.667,10.667h64c5.891,0,10.667-4.776,10.667-10.667v-38.859c7.002-2.283,13.817-5.104,20.384-8.437
		l27.435,27.424c4.164,4.157,10.908,4.157,15.072,0l45.333-45.227c4.174-4.157,4.187-10.911,0.03-15.085
		c-0.01-0.01-0.02-0.02-0.03-0.03l-27.52-27.424c3.338-6.558,6.159-13.366,8.437-20.363h38.859c5.891,0,10.667-4.776,10.667-10.667
		v-64C512.013,143.449,507.238,138.673,501.347,138.673L501.347,138.673z M490.68,202.673h-36.16
		c-4.84,0.005-9.07,3.267-10.304,7.947c-2.806,10.621-7.033,20.814-12.565,30.304c-2.444,4.191-1.751,9.503,1.685,12.928
		l25.6,25.515l-30.219,30.155l-25.504-25.536c-3.425-3.428-8.731-4.115-12.917-1.675c-9.487,5.536-19.681,9.759-30.304,12.555
		c-4.696,1.223-7.975,5.462-7.979,10.315v36.16h-42.667v-36.16c0-4.844-3.263-9.08-7.947-10.315
		c-10.622-2.796-20.817-7.019-30.304-12.555c-4.186-2.441-9.492-1.753-12.917,1.675l-25.536,25.536l-30.219-30.155l25.6-25.515
		c3.436-3.425,4.129-8.737,1.685-12.928c-5.533-9.49-9.759-19.683-12.565-30.304c-1.234-4.68-5.464-7.942-10.304-7.947h-36.16
		v-42.667h36.16c4.84-0.005,9.07-3.267,10.304-7.947c2.806-10.621,7.033-20.814,12.565-30.304c2.444-4.191,1.751-9.503-1.685-12.928
		l-25.6-25.525l30.229-30.229l25.525,25.6c3.425,3.436,8.737,4.129,12.928,1.685c9.487-5.536,19.681-9.759,30.304-12.555
		c4.676-1.238,7.933-5.467,7.936-10.304V21.34h42.667V57.5c0,4.844,3.263,9.08,7.947,10.315
		c10.622,2.796,20.817,7.019,30.304,12.555c4.196,2.455,9.521,1.762,12.949-1.685l25.525-25.6l30.229,30.229l-25.6,25.525
		c-3.436,3.425-4.129,8.737-1.685,12.928c5.533,9.49,9.759,19.683,12.565,30.304c1.235,4.664,5.447,7.918,10.272,7.936h36.16
		V202.673z"/>
	<path style="fill:#2170A6;" d="M330.68,96.007c-47.128,0-85.333,38.205-85.333,85.333s38.205,85.333,85.333,85.333
		s85.333-38.205,85.333-85.333C415.961,134.234,377.787,96.06,330.68,96.007z M330.68,245.34c-35.346,0-64-28.654-64-64
		s28.654-64,64-64s64,28.654,64,64C394.645,216.672,366.012,245.305,330.68,245.34z"/>
	<path style="fill:#2170A6;" d="M341.347,149.34h-21.333v32c0.001,2.829,1.125,5.541,3.125,7.541l21.333,21.333l15.083-15.083
		l-18.208-18.208V149.34z"/>
</g>
<g>
</g>
<g>
</g>
<g>
</g>
<g>
</g>
<g>
</g>
<g>
</g>
<g>
</g>
<g>
</g>
<g>
</g>
<g>
</g>
<g>
</g>
<g>
</g>
<g>
</g>
<g>
</g>
<g>
</g>
</svg>
