<svg viewBox="0 0 512 512" xmlns="http://www.w3.org/2000/svg"><path d="M256 326.621l-61.793 35.31V261.65a77.973 77.973 0 0 0 26.483 21.363v8.298c0 19.499 15.81 35.31 35.31 35.31zm0 0c19.474.026 35.284-15.748 35.31-35.222v-8.386a78.943 78.943 0 0 0 26.483-21.363v100.281z" fill="#f2f5f7"/><path d="M194.207 261.65a78.676 78.676 0 0 1-17.655-49.788v-52.966h158.897v52.966c.088 43.82-35.372 79.413-79.192 79.492a79.344 79.344 0 0 1-62.05-29.704z" fill="#d3d3d3"/><path d="M256 459.034c-4.873 0-8.828 3.955-8.828 8.828s3.955 8.828 8.828 8.828 8.828-3.955 8.828-8.828-3.955-8.828-8.828-8.828zm0-70.62c4.873 0 8.828-3.955 8.828-8.828s-3.955-8.828-8.828-8.828-8.828 3.955-8.828 8.828 3.955 8.828 8.828 8.828zm0 44.138c4.873 0 8.828-3.955 8.828-8.828s-3.955-8.828-8.828-8.828-8.828 3.955-8.828 8.828 3.955 8.828 8.828 8.828zm-61.793-158.897v88.276L256 326.621l61.793 35.31v-88.276c48.755 0 88.276 39.521 88.276 88.276V512H105.931V361.931c0-48.755 39.521-88.276 88.276-88.276z" fill="#07b671"/><path d="M256 291.31a78.811 78.811 0 0 0 35.31-8.298v8.298c0 19.5-15.81 35.31-35.31 35.31s-35.31-15.81-35.31-35.31v-8.298A78.798 78.798 0 0 0 256 291.31zm97.103-167.724c9.737.026 17.629 7.918 17.655 17.655-.071 9.719-7.936 17.585-17.655 17.655h-17.655v-35.31z" fill="#ffdfc4"/><circle cx="286.897" cy="119.172" fill="#454545" r="13.241"/><path d="M286.897 132.414c7.309 0 13.241-5.932 13.241-13.241s-5.932-13.241-13.241-13.241-13.241 5.932-13.241 13.241 5.931 13.241 13.241 13.241zm-61.794 0c7.309 0 13.241-5.932 13.241-13.241s-5.932-13.241-13.241-13.241-13.241 5.932-13.241 13.241 5.932 13.241 13.241 13.241zm110.345 26.483H176.552V79.448C176.552 35.566 212.118 0 256 0s79.448 35.566 79.448 79.448z" fill="#ffdfc4"/><g fill="#f2f5f7"><circle cx="256" cy="379.586" r="8.828"/><circle cx="256" cy="423.724" r="8.828"/><circle cx="256" cy="467.862" r="8.828"/></g><circle cx="225.103" cy="119.172" fill="#454545" r="13.241"/><path d="M176.552 123.586v35.31h-17.655c-9.719-.071-17.585-7.936-17.655-17.655.026-9.737 7.918-17.629 17.655-17.655z" fill="#ffdfc4"/><path d="M141.241 353.103h17.655V512h-17.655zm211.862 0h17.655V512h-17.655zm-61.793 35.311h44.138v17.655H291.31z" fill="#00965c"/><path d="M220.69 35.31h70.621v17.655H220.69zm0 26.483h70.621v17.655H220.69z" fill="#ebb691"/><path d="M256 222.499h-.071a45.802 45.802 0 0 1-32.662-13.594l12.518-12.447a28.227 28.227 0 0 0 20.145 8.386 28.502 28.502 0 0 0 20.303-8.404l12.482 12.482A46.02 46.02 0 0 1 256 222.499z" fill="#bababa"/></svg>