<?xml version="1.0" encoding="iso-8859-1"?>
<!-- Generator: Adobe Illustrator 19.0.0, SVG Export Plug-In . SVG Version: 6.00 Build 0)  -->
<svg version="1.1" id="Capa_1" xmlns="http://www.w3.org/2000/svg" xmlns:xlink="http://www.w3.org/1999/xlink" x="0px" y="0px"
	 viewBox="0 0 512 512" style="enable-background:new 0 0 512 512;" xml:space="preserve">
<g>
	<path style="fill:#F2F5F7;" d="M256,326.621l-61.793,35.31V261.65c7.15,8.986,16.19,16.278,26.483,21.363v8.298
		C220.69,310.81,236.5,326.621,256,326.621L256,326.621z"/>
	<path style="fill:#F2F5F7;" d="M256,326.621c19.474,0.026,35.284-15.748,35.31-35.222c0-0.026,0-0.062,0-0.088v-8.298
		c10.275-5.111,19.315-12.403,26.483-21.363v100.281L256,326.621z"/>
</g>
<path style="fill:#D3D3D3;" d="M194.207,261.65c-11.449-14.062-17.682-31.656-17.655-49.788v-52.966h158.897v52.966
	c0.088,43.82-35.372,79.413-79.192,79.492C232.13,291.399,209.302,280.47,194.207,261.65z"/>
<path style="fill:#07B671;" d="M256,459.034c-4.873,0-8.828,3.955-8.828,8.828s3.955,8.828,8.828,8.828s8.828-3.955,8.828-8.828
	S260.873,459.034,256,459.034z M256,388.414c4.873,0,8.828-3.955,8.828-8.828s-3.955-8.828-8.828-8.828s-8.828,3.955-8.828,8.828
	S251.127,388.414,256,388.414z M256,432.552c4.873,0,8.828-3.955,8.828-8.828c0-4.873-3.955-8.828-8.828-8.828
	s-8.828,3.955-8.828,8.828C247.172,428.597,251.127,432.552,256,432.552z M194.207,273.655v88.276L256,326.621l61.793,35.31v-88.276
	c48.755,0,88.276,39.521,88.276,88.276V512H105.931V361.931C105.931,313.176,145.452,273.655,194.207,273.655z"/>
<g>
	<path style="fill:#FFDFC4;" d="M256,291.31c12.253,0.018,24.346-2.825,35.31-8.298v8.298c0,19.5-15.81,35.31-35.31,35.31
		s-35.31-15.81-35.31-35.31v-8.298C231.654,288.486,243.747,291.328,256,291.31z"/>
	<path style="fill:#FFDFC4;" d="M353.103,123.586c9.737,0.026,17.629,7.918,17.655,17.655c-0.071,9.719-7.936,17.585-17.655,17.655
		h-17.655v-35.31H353.103z"/>
</g>
<circle style="fill:#454545;" cx="286.897" cy="119.172" r="13.241"/>
<path style="fill:#FFDFC4;" d="M286.897,132.414c7.309,0,13.241-5.932,13.241-13.241s-5.932-13.241-13.241-13.241
	s-13.241,5.932-13.241,13.241S279.587,132.414,286.897,132.414z M225.103,132.414c7.309,0,13.241-5.932,13.241-13.241
	s-5.932-13.241-13.241-13.241c-7.309,0-13.241,5.932-13.241,13.241S217.794,132.414,225.103,132.414z M335.448,158.897H176.552
	V79.448C176.552,35.566,212.118,0,256,0s79.448,35.566,79.448,79.448V158.897z"/>
<g>
	<circle style="fill:#F2F5F7;" cx="256" cy="379.586" r="8.828"/>
	<circle style="fill:#F2F5F7;" cx="256" cy="423.724" r="8.828"/>
	<circle style="fill:#F2F5F7;" cx="256" cy="467.862" r="8.828"/>
</g>
<circle style="fill:#454545;" cx="225.103" cy="119.172" r="13.241"/>
<path style="fill:#FFDFC4;" d="M176.552,123.586v35.31h-17.655c-9.719-0.071-17.585-7.936-17.655-17.655
	c0.026-9.737,7.918-17.629,17.655-17.655H176.552z"/>
<g>
	<rect x="141.241" y="353.103" style="fill:#00965C;" width="17.655" height="158.897"/>
	<rect x="353.103" y="353.103" style="fill:#00965C;" width="17.655" height="158.897"/>
	<rect x="291.31" y="388.414" style="fill:#00965C;" width="44.138" height="17.655"/>
</g>
<g>
	<rect x="220.69" y="35.31" style="fill:#EBB691;" width="70.621" height="17.655"/>
	<rect x="220.69" y="61.793" style="fill:#EBB691;" width="70.621" height="17.655"/>
</g>
<path style="fill:#BABABA;" d="M256,222.499h-0.071c-12.27,0.026-24.038-4.873-32.662-13.594l12.518-12.447
	c5.323,5.385,12.579,8.404,20.145,8.386l0,0c7.618,0.026,14.927-3.001,20.303-8.404l12.482,12.482
	C280.055,217.635,268.279,222.517,256,222.499z"/>
<g>
</g>
<g>
</g>
<g>
</g>
<g>
</g>
<g>
</g>
<g>
</g>
<g>
</g>
<g>
</g>
<g>
</g>
<g>
</g>
<g>
</g>
<g>
</g>
<g>
</g>
<g>
</g>
<g>
</g>
</svg>
