<?xml version="1.0" encoding="iso-8859-1"?>
<!-- Generator: Adobe Illustrator 19.0.0, SVG Export Plug-In . SVG Version: 6.00 Build 0)  -->
<svg version="1.1" id="Layer_1" xmlns="http://www.w3.org/2000/svg" xmlns:xlink="http://www.w3.org/1999/xlink" x="0px" y="0px"
	 viewBox="0 0 512 512" style="enable-background:new 0 0 512 512;" xml:space="preserve">
<path style="fill:#DAE2F2;" d="M467,91H237.25l-34.528,415.796c6.068,3.034,12.594,5.204,19.763,5.204H467c24.814,0,45-20.186,45-45
	V136C512,111.186,491.814,91,467,91z"/>
<path style="fill:#4D97FF;" d="M169.867,407.86l7.969,64.721c1.6,12.854,10.3,26.922,24.886,34.215
	c29.167-31.374,9.614-11.341,78.829-85.796L169.867,407.86z"/>
<path style="fill:#4DB5FF;" d="M281.551,421c4.907-5.608,9.211-9.373,8.053-17.095l-45.44-364.486
	C241.366,16.948,222.162,0,199.516,0H45C20.186,0,0,20.186,0,45v331c0,24.814,20.186,45,45,45C123.402,421,202.898,421,281.551,421z
	"/>
<path style="fill:#E6EEFF;" d="M165.707,118.056C164.301,111.054,158.148,106,151,106h-30c-7.148,0-13.301,5.054-14.707,12.056
	l-30,150c-1.626,8.13,3.647,16.025,11.763,17.651c8.218,1.685,16.04-3.647,17.651-11.763L115.294,226h41.411l9.587,47.944
	c1.641,8.237,9.697,13.4,17.651,11.763c8.115-1.626,13.389-9.521,11.763-17.651L165.707,118.056z M121.293,196l11.997-60h5.42
	l11.997,60H121.293z"/>
<path style="fill:#53565C;" d="M436,226h-45v-15c0-8.291-6.709-15-15-15s-15,6.709-15,15v15h-45c-8.291,0-15,6.709-15,15
	s6.709,15,15,15h4.006c8.535,27.383,21.07,48.81,35.136,65.702c-11.019,10.074-21.802,18.339-33.518,27.594
	c-6.459,5.171-7.514,14.604-2.328,21.079c5.162,6.465,14.632,7.514,21.078,2.329c12.73-10.047,23.679-18.456,35.626-29.421
	c11.947,10.966,22.896,19.375,35.624,29.421c6.448,5.185,15.918,4.136,21.08-2.329c5.186-6.475,4.131-15.908-2.33-21.079
	c-11.715-9.255-22.498-17.52-33.517-27.594c14.066-16.891,26.602-38.318,35.136-65.702H436c8.291,0,15-6.709,15-15
	S444.291,226,436,226z M376,299.467c-9.534-11.984-18.149-26.069-24.626-43.467h49.252C394.149,273.399,385.534,287.483,376,299.467
	z"/>
<g>
</g>
<g>
</g>
<g>
</g>
<g>
</g>
<g>
</g>
<g>
</g>
<g>
</g>
<g>
</g>
<g>
</g>
<g>
</g>
<g>
</g>
<g>
</g>
<g>
</g>
<g>
</g>
<g>
</g>
</svg>
