<svg width="512" height="512" viewBox="0 0 512 512" xmlns="http://www.w3.org/2000/svg"><title>server logo</title><g fill="none"><circle fill="#662E57" cx="256" cy="256" r="256"/><path d="M512 256c0-24.359-3.404-47.923-9.76-70.244l-69.449-69.449-127.584-61.6L268 17.5 223.667 49 109.228 96.333 54.707 205.667 17.5 268l37.207 37.207L91.15 409.565l91.858 91.858C206.142 508.293 230.636 512 256 512c141.385 0 256-114.615 256-256z" fill="#590F38"/><path d="M240.267 236.137c11.22 0 18.866-11.304 14.751-21.743a65.195 65.195 0 0 1-4.531-23.959c0-36.493 29.873-66.009 66.499-65.427 34.523.548 62.982 28.32 64.322 62.821.875 22.533-9.65 42.657-26.271 55.069 15.714 8.929 26.321 25.807 26.321 45.172v16.084c0 49.42-40.063 89.483-89.483 89.483h-85.894c-53.435 0-96.753-43.318-96.753-96.754v-96.061l12.864 17.265a44.84 44.84 0 0 0 35.957 18.049h82.218v.001z" fill="#FFDC00"/><path d="M355.037 242.898c16.621-12.412 27.146-32.536 26.271-55.069-1.34-34.501-29.799-62.273-64.322-62.821-36.626-.581-66.499 28.935-66.499 65.428a65.19 65.19 0 0 0 4.531 23.958c4.115 10.438-3.531 21.743-14.751 21.743h-30.6v157.5h82.209c49.42 0 89.483-40.063 89.483-89.483V288.07c-.001-19.365-10.608-36.243-26.322-45.172z" fill="#FFC000"/><circle fill="#005C83" cx="335.31" cy="188.01" r="8.656"/><path d="M381.358 179.357l29.715 11.674c11.814 4.641 10.668 21.722-1.659 24.744l-37.983 9.313s-15.693-.03-19.848-9.724c-4.154-9.694 16.619-11.772 29.775-36.007z" fill="#F7674F"/><path d="M494.5 244h-13.527c-2.902-55.668-25.955-107.595-65.666-147.307C375.595 56.982 323.668 33.929 268 31.026V17.5h-24v13.526c-55.668 2.902-107.595 25.956-147.307 65.667C56.981 136.404 33.929 188.332 31.027 244H17.5v24h13.527c2.902 55.668 25.955 107.595 65.667 147.307 39.712 39.712 91.638 62.764 147.306 65.667V494.5h24v-13.526c55.668-2.902 107.595-25.956 147.307-65.667 39.711-39.711 62.764-91.638 65.666-147.307H494.5v-24zM268 456.926V431.5h-24v25.426C142.544 450.93 61.071 369.455 55.075 268H80.5v-24H55.075C61.071 142.545 142.544 61.07 244 55.074V80.5h24V55.074C369.455 61.07 450.929 142.545 456.925 244H431.5v24h25.425C450.929 369.455 369.455 450.93 268 456.926z" fill="#35CCFF"/><path d="M494.5 244h-13.527c-2.902-55.668-25.955-107.595-65.666-147.307C375.595 56.982 323.668 33.929 268 31.026V17.5h-24v13.526c-55.668 2.902-107.595 25.956-147.307 65.667C56.981 136.404 33.929 188.332 31.027 244H17.5v24h13.527c2.902 55.668 25.955 107.595 65.667 147.307 39.712 39.712 91.638 62.764 147.306 65.667V494.5h24v-13.526c55.668-2.902 107.595-25.956 147.307-65.667 39.711-39.711 62.764-91.638 65.666-147.307H494.5v-24zM268 456.926V431.5h-24v25.426C142.544 450.93 61.071 369.455 55.075 268H80.5v-24H55.075C61.071 142.545 142.544 61.07 244 55.074V80.5h24V55.074C369.455 61.07 450.929 142.545 456.925 244H431.5v24h25.425C450.929 369.455 369.455 450.93 268 456.926z" fill="#35CCFF"/><path d="M480.973 244c-2.902-55.668-25.955-107.595-65.666-147.307C375.595 56.982 323.668 33.929 268 31.026V17.5h-12.333v63H268V55.074C369.455 61.07 450.929 142.545 456.925 244H431.5v24h25.425C450.929 369.455 369.455 450.93 268 456.926V431.5h-12.333v63H268v-13.526c55.668-2.902 107.595-25.956 147.307-65.667 39.711-39.711 62.764-91.638 65.666-147.307H494.5v-24h-13.527z" fill="#00BAFF"/><g transform="rotate(-180 138 250)"><path d="M33.309 5.682A19.318 19.318 0 0 0 19.57 0L12 21.5 19.57 43H33.45V28.219H39V19.4a19.259 19.259 0 0 0-5.691-13.718z" fill="#C6B691"/><path d="M5.858 5.682C2.081 9.347 0 14.22 0 19.4v8.819h5.714V43H20V0C14.658 0 9.635 2.018 5.858 5.682z" fill="#E3D1A4"/><path fill="#544A33" d="M16 23H18V28H16z"/><path fill="#1C1207" d="M21 23H23V28H21z"/><path d="M11 22c-3.308 0-6-2.692-6-6s2.692-6 6-6 6 2.692 6 6-2.692 6-6 6z" fill="#544A33"/><path d="M28 22c-3.308 0-6-2.692-6-6s2.692-6 6-6 6 2.692 6 6-2.692 6-6 6z" fill="#1C1207"/><path fill="#FFE49E" d="M31 34.6666667L29.2702703 38 20.1891892 38 15 33z"/><g transform="translate(8 30)" fill="#FFF2CF"><path d="M10.5 1.75L10.5 7 1.68 7 0 3.5z"/><path d="M19.32 0L21 3.5 10.5 3.5 8.82 1.75 10.5 0z"/></g><path fill="#FFF" d="M19 30L19 34 8 34 9.76 30z"/><path fill="#1C1207" d="M28 30H30V37H28z"/><path fill="#544A33" d="M8 30H10V37H8z"/></g><g transform="rotate(-90 144 131)"><path d="M32.309 5.55C28.639 1.971 23.759 0 18.57 0L11 21l7.57 21H32.45V27.562H38V18.95c0-5.061-2.021-9.82-5.691-13.399z" fill="#C6B691"/><path d="M5.858 5.55C2.081 9.13 0 13.888 0 18.95v8.613h5.714V42H20V0C14.658 0 9.635 1.971 5.858 5.55z" fill="#E3D1A4"/><path fill="#544A33" d="M15 23H17V28H15z"/><path fill="#1C1207" d="M21 23H23V28H21z"/><path d="M10.5 21A5.506 5.506 0 0 1 5 15.5c0-3.033 2.467-5.5 5.5-5.5s5.5 2.467 5.5 5.5-2.467 5.5-5.5 5.5z" fill="#544A33"/><path d="M27.5 21a5.506 5.506 0 0 1-5.5-5.5c0-3.033 2.467-5.5 5.5-5.5s5.5 2.467 5.5 5.5-2.467 5.5-5.5 5.5z" fill="#1C1207"/><path fill="#FFE49E" d="M29 33.6666667L27.3783784 37 18.8648649 37 14 32z"/><g transform="translate(8 30)" fill="#FFF2CF"><path d="M10.5 1.75L10.5 7 1.68 7 0 3.5z"/><path d="M19.32 0L21 3.5 10.5 3.5 8.82 1.75 10.5 0z"/></g><path fill="#FFF" d="M18 30L18 34 8 34 9.6 30z"/><path fill="#1C1207" d="M28 30H30V37H28z"/><path fill="#544A33" d="M8 30H10V37H8z"/></g><g transform="rotate(90 131 368)"><path d="M32.309 5.55C28.639 1.971 23.759 0 18.57 0L11 21l7.57 21H32.45V27.562H38V18.95c0-5.061-2.021-9.82-5.691-13.399z" fill="#C6B691"/><path d="M5.858 5.55C2.081 9.13 0 13.888 0 18.95v8.613h5.714V42H20V0C14.658 0 9.635 1.971 5.858 5.55z" fill="#E3D1A4"/><path fill="#544A33" d="M15 23H17V28H15z"/><path fill="#1C1207" d="M21 23H23V28H21z"/><path d="M10.5 21A5.506 5.506 0 0 1 5 15.5c0-3.033 2.467-5.5 5.5-5.5s5.5 2.467 5.5 5.5-2.467 5.5-5.5 5.5z" fill="#544A33"/><path d="M27.5 21a5.506 5.506 0 0 1-5.5-5.5c0-3.033 2.467-5.5 5.5-5.5s5.5 2.467 5.5 5.5-2.467 5.5-5.5 5.5z" fill="#1C1207"/><path fill="#FFE49E" d="M29 33.6666667L27.3783784 37 18.8648649 37 14 32z"/><g transform="translate(8 30)" fill="#FFF2CF"><path d="M10.5 1.75L10.5 7 1.68 7 0 3.5z"/><path d="M19.32 0L21 3.5 10.5 3.5 8.82 1.75 10.5 0z"/></g><path fill="#FFF" d="M18 30L18 34 8 34 9.6 30z"/><path fill="#1C1207" d="M28 30H30V37H28z"/><path fill="#544A33" d="M8 30H10V37H8z"/></g><g transform="translate(237 13)"><path d="M32.309 5.55C28.639 1.971 23.759 0 18.57 0L11 21l7.57 21H32.45V27.562H38V18.95c0-5.061-2.021-9.82-5.691-13.399z" fill="#C6B691"/><path d="M5.858 5.55C2.081 9.13 0 13.888 0 18.95v8.613h5.714V42H20V0C14.658 0 9.635 1.971 5.858 5.55z" fill="#E3D1A4"/><path fill="#544A33" d="M15 23H17V28H15z"/><path fill="#1C1207" d="M21 23H23V28H21z"/><path d="M10.5 21A5.506 5.506 0 0 1 5 15.5c0-3.033 2.467-5.5 5.5-5.5s5.5 2.467 5.5 5.5-2.467 5.5-5.5 5.5z" fill="#544A33"/><path d="M27.5 21a5.506 5.506 0 0 1-5.5-5.5c0-3.033 2.467-5.5 5.5-5.5s5.5 2.467 5.5 5.5-2.467 5.5-5.5 5.5z" fill="#1C1207"/><path fill="#FFE49E" d="M29 33.6666667L27.3783784 37 18.8648649 37 14 32z"/><g transform="translate(8 30)" fill="#FFF2CF"><path d="M10.5 1.75L10.5 7 1.68 7 0 3.5z"/><path d="M19.32 0L21 3.5 10.5 3.5 8.82 1.75 10.5 0z"/></g><path fill="#FFF" d="M18 30L18 34 8 34 9.6 30z"/><path fill="#1C1207" d="M28 30H30V37H28z"/><path fill="#544A33" d="M8 30H10V37H8z"/></g><g transform="matrix(-1 0 0 1 383 104)"><path d="M71.917 29H64v-8.476C64 9.207 72.523 0 83 0v8.552c-6.111 0-11.083 5.37-11.083 11.972V29z" fill="#1C1207"/><path d="M87.044 21c-3.722 0-7.438.454-11.044 1.35v120.3A45.876 45.876 0 0 0 87.044 144C113.487 144 135 121.427 135 93.682V71.318C135 43.573 113.487 21 87.044 21z" fill="#FE7F1E"/><g transform="translate(0 21)" fill="#FFA533"><path d="M47.477 0c3.685 0 7.364.454 10.934 1.35v120.3A44.988 44.988 0 0 1 47.477 123C21.298 123 0 100.427 0 72.682V50.318C0 22.573 21.298 0 47.477 0z"/><path d="M115 50.318v22.364C115 100.427 93.701 123 67.523 123L43.784 61.5 67.523 0C93.7 0 115 22.573 115 50.318z"/></g><path d="M67 21v123c-25.915 0-47-22.573-47-50.318V71.318C20 43.573 41.085 21 67 21z" fill="#FFCB47"/><path d="M48 80c-6.617 0-12-5.832-12-13s5.383-13 12-13 12 5.832 12 13-5.383 13-12 13z" fill="#AA4A0F"/><g transform="translate(58 54)" fill="#7F2F08"><path d="M29.097 25.508c-6.564 0-11.903-5.675-11.903-12.65 0-6.976 5.34-12.65 11.903-12.65C35.66.207 41 5.881 41 12.857c0 6.975-5.34 12.65-11.903 12.65zm-2.645 10.543v8.434h-7.936v-8.434H9.258L.188 52.92l9.07 16.867C26.761 69.786 41 54.651 41 36.051H26.452z"/></g><path d="M58.667 90v8.5h-8V90H36c0 18.745 14.354 34 32 34V90h-9.333z" fill="#AA4A0F"/></g></g></svg>
