<svg enable-background="new 0 0 512 512" viewBox="0 0 512 512" xmlns="http://www.w3.org/2000/svg"><circle cx="256" cy="256" fill="#662e57" r="256"/><path d="m512 256c0-24.359-3.404-47.923-9.76-70.244l-69.449-69.449-127.584-61.6-37.207-37.207-44.333 31.5-114.439 47.333-54.521 109.334-37.207 62.333 37.207 37.207 36.443 104.358 91.858 91.858c23.134 6.87 47.628 10.577 72.992 10.577 141.385 0 256-114.615 256-256z" fill="#590f38"/><path d="m240.267 236.137c11.22 0 18.866-11.304 14.751-21.743-2.924-7.419-4.531-15.5-4.531-23.959 0-36.493 29.873-66.009 66.499-65.427 34.523.548 62.982 28.32 64.322 62.821.875 22.533-9.65 42.657-26.271 55.069 15.714 8.929 26.321 25.807 26.321 45.172v16.084c0 49.42-40.063 89.483-89.483 89.483h-85.894c-53.435 0-96.753-43.318-96.753-96.754v-96.061l12.864 17.265c8.463 11.358 21.794 18.049 35.957 18.049h82.218z" fill="#ffdc00"/><path d="m355.037 242.898c16.621-12.412 27.146-32.536 26.271-55.069-1.34-34.501-29.799-62.273-64.322-62.821-36.626-.581-66.499 28.935-66.499 65.428 0 8.458 1.607 16.54 4.531 23.958 4.115 10.438-3.531 21.743-14.751 21.743h-30.6v157.5h82.209c49.42 0 89.483-40.063 89.483-89.483v-16.084c-.001-19.365-10.608-36.243-26.322-45.172z" fill="#ffc000"/><circle cx="335.31" cy="188.01" fill="#005c83" r="8.656"/><path d="m381.358 179.357 29.715 11.674c11.814 4.641 10.668 21.722-1.659 24.744l-37.983 9.313s-15.693-.03-19.848-9.724c-4.154-9.694 16.619-11.772 29.775-36.007z" fill="#f7674f"/><path d="m494.5 244h-13.527c-2.902-55.668-25.955-107.595-65.666-147.307-39.712-39.711-91.639-62.764-147.307-65.667v-13.526h-24v13.526c-55.668 2.902-107.595 25.956-147.307 65.667s-62.764 91.639-65.666 147.307h-13.527v24h13.527c2.902 55.668 25.955 107.595 65.667 147.307s91.638 62.764 147.306 65.667v13.526h24v-13.526c55.668-2.902 107.595-25.956 147.307-65.667 39.711-39.711 62.764-91.638 65.666-147.307h13.527zm-226.5 212.926v-25.426h-24v25.426c-101.456-5.996-182.929-87.471-188.925-188.926h25.425v-24h-25.425c5.996-101.455 87.469-182.93 188.925-188.926v25.426h24v-25.426c101.455 5.996 182.929 87.471 188.925 188.926h-25.425v24h25.425c-5.996 101.455-87.47 182.93-188.925 188.926z" fill="#35ccff"/><path d="m494.5 244h-13.527c-2.902-55.668-25.955-107.595-65.666-147.307-39.712-39.711-91.639-62.764-147.307-65.667v-13.526h-24v13.526c-55.668 2.902-107.595 25.956-147.307 65.667s-62.764 91.639-65.666 147.307h-13.527v24h13.527c2.902 55.668 25.955 107.595 65.667 147.307s91.638 62.764 147.306 65.667v13.526h24v-13.526c55.668-2.902 107.595-25.956 147.307-65.667 39.711-39.711 62.764-91.638 65.666-147.307h13.527zm-226.5 212.926v-25.426h-24v25.426c-101.456-5.996-182.929-87.471-188.925-188.926h25.425v-24h-25.425c5.996-101.455 87.469-182.93 188.925-188.926v25.426h24v-25.426c101.455 5.996 182.929 87.471 188.925 188.926h-25.425v24h25.425c-5.996 101.455-87.47 182.93-188.925 188.926z" fill="#35ccff"/><path d="m480.973 244c-2.902-55.668-25.955-107.595-65.666-147.307-39.712-39.711-91.639-62.764-147.307-65.667v-13.526h-12.333v63h12.333v-25.426c101.455 5.996 182.929 87.471 188.925 188.926h-25.425v24h25.425c-5.996 101.455-87.47 182.93-188.925 188.926v-25.426h-12.333v63h12.333v-13.526c55.668-2.902 107.595-25.956 147.307-65.667 39.711-39.711 62.764-91.638 65.666-147.307h13.527v-24z" fill="#00baff"/></svg>