
<svg width="512px" height="512px" viewBox="0 0 512 512" version="1.1" xmlns="http://www.w3.org/2000/svg" xmlns:xlink="http://www.w3.org/1999/xlink">
    <!-- Generator: Sketch 49.2 (51160) - http://www.bohemiancoding.com/sketch -->
    <desc>Created with Sketch.</desc>
    <defs></defs>
    <g id="Page-1" stroke="none" stroke-width="1" fill="none" fill-rule="evenodd">
        <g id="server-logo" fill-rule="nonzero">
            <circle id="Oval" fill="#662E57" cx="256" cy="256" r="256"></circle>
            <path d="M512,256 C512,231.641 508.596,208.077 502.24,185.756 L432.791,116.307 L305.207,54.707 L268,17.5 L223.667,49 L109.228,96.333 L54.707,205.667 L17.5,268 L54.707,305.207 L91.15,409.565 L183.008,501.423 C206.142,508.293 230.636,512 256,512 C397.385,512 512,397.385 512,256 Z" id="Shape" fill="#590F38"></path>
            <path d="M240.267,236.137 C251.487,236.137 259.133,224.833 255.018,214.394 C252.094,206.975 250.487,198.894 250.487,190.435 C250.487,153.942 280.36,124.426 316.986,125.008 C351.509,125.556 379.968,153.328 381.308,187.829 C382.183,210.362 371.658,230.486 355.037,242.898 C370.751,251.827 381.358,268.705 381.358,288.07 L381.358,304.154 C381.358,353.574 341.295,393.637 291.875,393.637 L205.981,393.637 C152.546,393.637 109.228,350.319 109.228,296.883 L109.228,200.822 L122.092,218.087 C130.555,229.445 143.886,236.136 158.049,236.136 L240.267,236.136 L240.267,236.137 Z" id="Shape" fill="#FFDC00"></path>
            <path d="M355.037,242.898 C371.658,230.486 382.183,210.362 381.308,187.829 C379.968,153.328 351.509,125.556 316.986,125.008 C280.36,124.427 250.487,153.943 250.487,190.436 C250.487,198.894 252.094,206.976 255.018,214.394 C259.133,224.832 251.487,236.137 240.267,236.137 L209.667,236.137 L209.667,393.637 L291.876,393.637 C341.296,393.637 381.359,353.574 381.359,304.154 L381.359,288.07 C381.358,268.705 370.751,251.827 355.037,242.898 Z" id="Shape" fill="#FFC000"></path>
            <circle id="Oval" fill="#005C83" cx="335.31" cy="188.01" r="8.656"></circle>
            <path d="M381.358,179.357 L411.073,191.031 C422.887,195.672 421.741,212.753 409.414,215.775 L371.431,225.088 C371.431,225.088 355.738,225.058 351.583,215.364 C347.429,205.67 368.202,203.592 381.358,179.357 Z" id="Shape" fill="#F7674F"></path>
            <path d="M494.5,244 L480.973,244 C478.071,188.332 455.018,136.405 415.307,96.693 C375.595,56.982 323.668,33.929 268,31.026 L268,17.5 L244,17.5 L244,31.026 C188.332,33.928 136.405,56.982 96.693,96.693 C56.981,136.404 33.929,188.332 31.027,244 L17.5,244 L17.5,268 L31.027,268 C33.929,323.668 56.982,375.595 96.694,415.307 C136.406,455.019 188.332,478.071 244,480.974 L244,494.5 L268,494.5 L268,480.974 C323.668,478.072 375.595,455.018 415.307,415.307 C455.018,375.596 478.071,323.669 480.973,268 L494.5,268 L494.5,244 Z M268,456.926 L268,431.5 L244,431.5 L244,456.926 C142.544,450.93 61.071,369.455 55.075,268 L80.5,268 L80.5,244 L55.075,244 C61.071,142.545 142.544,61.07 244,55.074 L244,80.5 L268,80.5 L268,55.074 C369.455,61.07 450.929,142.545 456.925,244 L431.5,244 L431.5,268 L456.925,268 C450.929,369.455 369.455,450.93 268,456.926 Z" id="Shape" fill="#35CCFF"></path>
            <path d="M494.5,244 L480.973,244 C478.071,188.332 455.018,136.405 415.307,96.693 C375.595,56.982 323.668,33.929 268,31.026 L268,17.5 L244,17.5 L244,31.026 C188.332,33.928 136.405,56.982 96.693,96.693 C56.981,136.404 33.929,188.332 31.027,244 L17.5,244 L17.5,268 L31.027,268 C33.929,323.668 56.982,375.595 96.694,415.307 C136.406,455.019 188.332,478.071 244,480.974 L244,494.5 L268,494.5 L268,480.974 C323.668,478.072 375.595,455.018 415.307,415.307 C455.018,375.596 478.071,323.669 480.973,268 L494.5,268 L494.5,244 Z M268,456.926 L268,431.5 L244,431.5 L244,456.926 C142.544,450.93 61.071,369.455 55.075,268 L80.5,268 L80.5,244 L55.075,244 C61.071,142.545 142.544,61.07 244,55.074 L244,80.5 L268,80.5 L268,55.074 C369.455,61.07 450.929,142.545 456.925,244 L431.5,244 L431.5,268 L456.925,268 C450.929,369.455 369.455,450.93 268,456.926 Z" id="Shape" fill="#35CCFF"></path>
            <path d="M480.973,244 C478.071,188.332 455.018,136.405 415.307,96.693 C375.595,56.982 323.668,33.929 268,31.026 L268,17.5 L255.667,17.5 L255.667,80.5 L268,80.5 L268,55.074 C369.455,61.07 450.929,142.545 456.925,244 L431.5,244 L431.5,268 L456.925,268 C450.929,369.455 369.455,450.93 268,456.926 L268,431.5 L255.667,431.5 L255.667,494.5 L268,494.5 L268,480.974 C323.668,478.072 375.595,455.018 415.307,415.307 C455.018,375.596 478.071,323.669 480.973,268 L494.5,268 L494.5,244 L480.973,244 Z" id="Shape" fill="#00BAFF"></path>
        </g>
        <g id="skull" transform="translate(238.000000, 440.000000)" fill-rule="nonzero">
            <path d="M31.5197508,5.41808594 C27.9858567,1.92427734 23.2872274,0 18.2897196,0 L11,20.5 L18.2897196,41 L31.6542056,41 L31.6542056,26.90625 L37,26.90625 L37,18.4980469 C37,13.5572266 35.0536449,8.91189453 31.5197508,5.41808594 Z" id="Shape" fill="#C6B691"></path>
            <path d="M5.56510823,5.41808594 C1.97649351,8.91189453 0,13.5572266 0,18.4980469 L0,26.90625 L5.42857143,26.90625 L5.42857143,41 L19,41 L19,0 C13.9251082,0 9.15372294,1.92427734 5.56510823,5.41808594 Z" id="Shape" fill="#E3D1A4"></path>
            <rect id="Rectangle-path" fill="#544A33" x="15" y="22" width="2" height="5"></rect>
            <rect id="Rectangle-path" fill="#1C1207" x="20" y="22" width="2" height="5"></rect>
            <path d="M10.5,21 C7.46731618,21 5,18.5326838 5,15.5 C5,12.4673162 7.46731618,10 10.5,10 C13.5326838,10 16,12.4673162 16,15.5 C16,18.5326838 13.5326838,21 10.5,21 Z" id="Shape" fill="#544A33"></path>
            <path d="M26.5,21 C23.4673162,21 21,18.5326838 21,15.5 C21,12.4673162 23.4673162,10 26.5,10 C29.5326838,10 32,12.4673162 32,15.5 C32,18.5326838 29.5326838,21 26.5,21 Z" id="Shape" fill="#1C1207"></path>
            <polygon id="Shape" fill="#FFE49E" points="29 32.6666667 27.3783784 36 18.8648649 36 14 31"></polygon>
            <g id="Group" transform="translate(8.000000, 29.000000)" fill="#FFF2CF">
                <polygon id="Shape" points="10 1.75 10 7 1.6 7 0 3.5"></polygon>
                <polygon id="Shape" points="18.4 0 20 3.5 10 3.5 8.4 1.75 10 0"></polygon>
            </g>
            <polygon id="Shape" fill="#FFFFFF" points="18 29 18 33 8 33 9.6 29"></polygon>
            <rect id="Rectangle-path" fill="#1C1207" x="27" y="29" width="2" height="7"></rect>
            <rect id="Rectangle-path" fill="#544A33" x="8" y="29" width="2" height="7"></rect>
        </g>
        <g id="skull" transform="translate(34.500000, 256.500000) rotate(-90.000000) translate(-34.500000, -256.500000) translate(16.000000, 236.000000)" fill-rule="nonzero">
            <path d="M31.5197508,5.41808594 C27.9858567,1.92427734 23.2872274,0 18.2897196,0 L11,20.5 L18.2897196,41 L31.6542056,41 L31.6542056,26.90625 L37,26.90625 L37,18.4980469 C37,13.5572266 35.0536449,8.91189453 31.5197508,5.41808594 Z" id="Shape" fill="#C6B691"></path>
            <path d="M5.56510823,5.41808594 C1.97649351,8.91189453 0,13.5572266 0,18.4980469 L0,26.90625 L5.42857143,26.90625 L5.42857143,41 L19,41 L19,0 C13.9251082,0 9.15372294,1.92427734 5.56510823,5.41808594 Z" id="Shape" fill="#E3D1A4"></path>
            <rect id="Rectangle-path" fill="#544A33" x="15" y="22" width="2" height="5"></rect>
            <rect id="Rectangle-path" fill="#1C1207" x="20" y="22" width="2" height="5"></rect>
            <path d="M10.5,21 C7.46731618,21 5,18.5326838 5,15.5 C5,12.4673162 7.46731618,10 10.5,10 C13.5326838,10 16,12.4673162 16,15.5 C16,18.5326838 13.5326838,21 10.5,21 Z" id="Shape" fill="#544A33"></path>
            <path d="M26.5,21 C23.4673162,21 21,18.5326838 21,15.5 C21,12.4673162 23.4673162,10 26.5,10 C29.5326838,10 32,12.4673162 32,15.5 C32,18.5326838 29.5326838,21 26.5,21 Z" id="Shape" fill="#1C1207"></path>
            <polygon id="Shape" fill="#FFE49E" points="29 32.6666667 27.3783784 36 18.8648649 36 14 31"></polygon>
            <g id="Group" transform="translate(8.000000, 29.000000)" fill="#FFF2CF">
                <polygon id="Shape" points="10 1.75 10 7 1.6 7 0 3.5"></polygon>
                <polygon id="Shape" points="18.4 0 20 3.5 10 3.5 8.4 1.75 10 0"></polygon>
            </g>
            <polygon id="Shape" fill="#FFFFFF" points="18 29 18 33 8 33 9.6 29"></polygon>
            <rect id="Rectangle-path" fill="#1C1207" x="27" y="29" width="2" height="7"></rect>
            <rect id="Rectangle-path" fill="#544A33" x="8" y="29" width="2" height="7"></rect>
        </g>
        <g id="skull" transform="translate(477.500000, 256.500000) rotate(-270.000000) translate(-477.500000, -256.500000) translate(459.000000, 236.000000)" fill-rule="nonzero">
            <path d="M31.5197508,5.41808594 C27.9858567,1.92427734 23.2872274,0 18.2897196,0 L11,20.5 L18.2897196,41 L31.6542056,41 L31.6542056,26.90625 L37,26.90625 L37,18.4980469 C37,13.5572266 35.0536449,8.91189453 31.5197508,5.41808594 Z" id="Shape" fill="#C6B691"></path>
            <path d="M5.56510823,5.41808594 C1.97649351,8.91189453 0,13.5572266 0,18.4980469 L0,26.90625 L5.42857143,26.90625 L5.42857143,41 L19,41 L19,0 C13.9251082,0 9.15372294,1.92427734 5.56510823,5.41808594 Z" id="Shape" fill="#E3D1A4"></path>
            <rect id="Rectangle-path" fill="#544A33" x="15" y="22" width="2" height="5"></rect>
            <rect id="Rectangle-path" fill="#1C1207" x="20" y="22" width="2" height="5"></rect>
            <path d="M10.5,21 C7.46731618,21 5,18.5326838 5,15.5 C5,12.4673162 7.46731618,10 10.5,10 C13.5326838,10 16,12.4673162 16,15.5 C16,18.5326838 13.5326838,21 10.5,21 Z" id="Shape" fill="#544A33"></path>
            <path d="M26.5,21 C23.4673162,21 21,18.5326838 21,15.5 C21,12.4673162 23.4673162,10 26.5,10 C29.5326838,10 32,12.4673162 32,15.5 C32,18.5326838 29.5326838,21 26.5,21 Z" id="Shape" fill="#1C1207"></path>
            <polygon id="Shape" fill="#FFE49E" points="29 32.6666667 27.3783784 36 18.8648649 36 14 31"></polygon>
            <g id="Group" transform="translate(8.000000, 29.000000)" fill="#FFF2CF">
                <polygon id="Shape" points="10 1.75 10 7 1.6 7 0 3.5"></polygon>
                <polygon id="Shape" points="18.4 0 20 3.5 10 3.5 8.4 1.75 10 0"></polygon>
            </g>
            <polygon id="Shape" fill="#FFFFFF" points="18 29 18 33 8 33 9.6 29"></polygon>
            <rect id="Rectangle-path" fill="#1C1207" x="27" y="29" width="2" height="7"></rect>
            <rect id="Rectangle-path" fill="#544A33" x="8" y="29" width="2" height="7"></rect>
        </g>
        <g id="skull" transform="translate(238.000000, 14.000000)" fill-rule="nonzero">
            <path d="M31.5197508,5.41808594 C27.9858567,1.92427734 23.2872274,0 18.2897196,0 L11,20.5 L18.2897196,41 L31.6542056,41 L31.6542056,26.90625 L37,26.90625 L37,18.4980469 C37,13.5572266 35.0536449,8.91189453 31.5197508,5.41808594 Z" id="Shape" fill="#C6B691"></path>
            <path d="M5.56510823,5.41808594 C1.97649351,8.91189453 0,13.5572266 0,18.4980469 L0,26.90625 L5.42857143,26.90625 L5.42857143,41 L19,41 L19,0 C13.9251082,0 9.15372294,1.92427734 5.56510823,5.41808594 Z" id="Shape" fill="#E3D1A4"></path>
            <rect id="Rectangle-path" fill="#544A33" x="15" y="22" width="2" height="5"></rect>
            <rect id="Rectangle-path" fill="#1C1207" x="20" y="22" width="2" height="5"></rect>
            <path d="M10.5,21 C7.46731618,21 5,18.5326838 5,15.5 C5,12.4673162 7.46731618,10 10.5,10 C13.5326838,10 16,12.4673162 16,15.5 C16,18.5326838 13.5326838,21 10.5,21 Z" id="Shape" fill="#544A33"></path>
            <path d="M26.5,21 C23.4673162,21 21,18.5326838 21,15.5 C21,12.4673162 23.4673162,10 26.5,10 C29.5326838,10 32,12.4673162 32,15.5 C32,18.5326838 29.5326838,21 26.5,21 Z" id="Shape" fill="#1C1207"></path>
            <polygon id="Shape" fill="#FFE49E" points="29 32.6666667 27.3783784 36 18.8648649 36 14 31"></polygon>
            <g id="Group" transform="translate(8.000000, 29.000000)" fill="#FFF2CF">
                <polygon id="Shape" points="10 1.75 10 7 1.6 7 0 3.5"></polygon>
                <polygon id="Shape" points="18.4 0 20 3.5 10 3.5 8.4 1.75 10 0"></polygon>
            </g>
            <polygon id="Shape" fill="#FFFFFF" points="18 29 18 33 8 33 9.6 29"></polygon>
            <rect id="Rectangle-path" fill="#1C1207" x="27" y="29" width="2" height="7"></rect>
            <rect id="Rectangle-path" fill="#544A33" x="8" y="29" width="2" height="7"></rect>
        </g>
        <g id="pumpkin" transform="translate(315.500000, 176.000000) scale(-1, 1) translate(-315.500000, -176.000000) translate(248.000000, 104.000000)" fill-rule="nonzero">
            <path d="M71.9166667,29 L64,29 L64,20.5237084 C64,9.20687859 72.5233472,0 83,0 L83,8.55154518 C76.8885972,8.55154518 71.9166667,13.9222006 71.9166667,20.5237084 L71.9166667,29 Z" id="Shape" fill="#1C1207"></path>
            <path d="M87.0442169,21 C83.3220488,21 79.6062749,21.4539818 76,22.3493659 L76,142.650634 C79.6062749,143.546018 83.3220488,144 87.0442169,144 C113.487036,144 135,121.427264 135,93.6818182 L135,71.3181818 C135,43.5727364 113.487036,21 87.0442169,21 Z" id="Shape" fill="#FE7F1E"></path>
            <g id="Group" transform="translate(0.000000, 21.000000)" fill="#FFA533">
                <path d="M47.4770642,0 C51.1620757,0 54.8407569,0.453981818 58.4110321,1.34936591 L58.4110321,121.650634 C54.8407569,122.546018 51.1620757,123 47.4770642,123 C21.298211,123 0,100.427264 0,72.6818182 L0,50.3181818 C0,22.5727364 21.298211,0 47.4770642,0 Z" id="Shape"></path>
                <path d="M115,50.3181818 L115,72.6818182 C115,100.426705 93.7012615,123 67.5229358,123 L43.7844037,61.5 L67.5229358,0 C93.7012615,0 115,22.5732955 115,50.3181818 Z" id="Shape"></path>
            </g>
            <path d="M67,21 L67,144 C41.0847222,144 20,121.426705 20,93.6818182 L20,71.3181818 C20,43.5732955 41.0847222,21 67,21 Z" id="Shape" fill="#FFCB47"></path>
            <path d="M48,80 C41.3832,80 36,74.1682 36,67 C36,59.8318 41.3832,54 48,54 C54.6168,54 60,59.8318 60,67 C60,74.1682 54.6168,80 48,80 Z" id="Shape" fill="#AA4A0F"></path>
            <g id="Group" transform="translate(58.000000, 54.000000)" fill="#7F2F08">
                <path d="M29.0967742,25.5083936 C22.5333355,25.5083936 17.1935484,19.8333333 17.1935484,12.8577912 C17.1935484,5.882249 22.5333355,0.207188755 29.0967742,0.207188755 C35.6602129,0.207188755 41,5.882249 41,12.8577912 C41,19.8333333 35.6602129,25.5083936 29.0967742,25.5083936 Z" id="Shape"></path>
                <path d="M26.4516129,36.0514056 L26.4516129,44.4851406 L18.516129,44.4851406 L18.516129,36.0514056 L9.25806452,36.0514056 L0.188864516,52.9188755 L9.25806452,69.7863454 C26.7613613,69.7863454 41,54.6506024 41,36.0514056 L26.4516129,36.0514056 Z" id="Shape"></path>
            </g>
            <path d="M58.6666667,90 L58.6666667,98.5 L50.6666667,98.5 L50.6666667,90 L36,90 C36,108.745333 50.3544,124 68,124 L68,90 L58.6666667,90 Z" id="Shape" fill="#AA4A0F"></path>
        </g>
    </g>
</svg>
