<svg viewBox="0 0 512 512" xmlns="http://www.w3.org/2000/svg"><path d="M303.085 437.496h-28.12v-34.924h-42.928v56.939c0 11.549 9.363 20.912 20.912 20.912h50.136c11.854 0 21.464-9.609 21.464-21.464-.001-11.853-9.61-21.463-21.464-21.463z" fill="#ffb655"/><path d="M303.085 437.496h-28.12v-34.924h-42.928v56.939c0 11.549 9.363 20.912 20.912 20.912h50.136c11.854 0 21.464-9.609 21.464-21.464-.001-11.853-9.61-21.463-21.464-21.463z" opacity=".1"/><path d="M308.287 31.577c-69.472.24-125.256 57.592-125.256 127.065 0 22.081-17.9 39.98-39.981 39.98H94.506c-24.9 0-49.148-7.961-69.202-22.721C14.814 168.18 0 175.671 0 188.696v54.408c0 88.072 71.396 159.468 159.468 159.468h115.496c88.072 0 159.468-71.396 159.468-159.468v-85.827c.001-69.571-56.518-125.941-126.145-125.7z" fill="#fbdd56"/><path d="M151.197 197.79c-2.63.545-5.355.833-8.147.833H94.506a116.75 116.75 0 0 1-69.202-22.721C14.814 168.18 0 175.671 0 188.696v54.408c0 88.072 71.396 159.468 159.468 159.468h109.217c-124.757-26.146-149.312-156.01-117.488-204.782z" opacity=".05"/><path d="M512 180.543c0 21.909-40.334 39.669-90.088 39.669s-90.088-10.29-90.088-39.669 40.334-39.669 90.088-39.669c49.754-.001 90.088 17.76 90.088 39.669z" fill="#ffb655"/><path d="M348.85 154.096c-10.71 6.192-17.026 14.824-17.026 26.446 0 29.379 40.334 39.669 90.088 39.669 36.7 0 68.27-9.664 82.312-23.527-105.245 27.057-159.27-19.436-155.374-42.588z" opacity=".1"/><ellipse cx="278.67" cy="151.33" fill="#ffa6bb" rx="27.922" ry="22.24"/><path d="M317.911 135.299a7.5 7.5 0 0 1-7.5-7.5c0-6.684-5.438-12.122-12.122-12.122s-12.122 5.438-12.122 12.122c0 4.143-3.358 7.5-7.5 7.5s-7.5-3.357-7.5-7.5c0-14.955 12.167-27.122 27.122-27.122 14.956 0 27.122 12.167 27.122 27.122a7.5 7.5 0 0 1-7.5 7.5z" fill="#414b58"/><path d="M218.473 340.705c-48.933 17.046-102.419-8.803-119.465-57.736l-.635-1.823c-2.435-6.991 3.755-13.937 10.979-12.32a50.762 50.762 0 0 0 27.79-1.599l49.703-17.314c25.071-8.734 52.476 4.511 61.21 29.582 8.734 25.072-4.511 52.477-29.582 61.21zm12.043 96.791h-28.12v-34.924h-42.927v56.939c0 11.549 9.363 20.912 20.912 20.912h50.136c11.854 0 21.464-9.609 21.464-21.464-.001-11.853-9.611-21.463-21.465-21.463z" fill="#ffb655"/><path d="M141.069 265.86l-3.927 1.368a50.76 50.76 0 0 1-27.79 1.599c-7.224-1.617-13.415 5.329-10.979 12.32l.635 1.823c15.576 44.712 61.576 70.143 106.727 61.195-66.542-3.402-71.076-64.719-64.666-78.305z" opacity=".1"/></svg>