<svg height="512" viewBox="0 0 295.239 295.239" width="512" xmlns="http://www.w3.org/2000/svg"><g fill="#d80027"><path d="M76.191 210.084v-26.752H47.62v26.752l14.286 7.143zm-19.047-17.229h9.524v11.343l-4.762 2.381-4.762-2.381zm-11.343 19.048H19.049v28.571h26.752l7.143-14.286zm-5.886 19.047H28.572v-9.524h11.343l2.381 4.762zm7.705 11.343v26.752h28.571v-26.752l-14.286-7.143zm19.048 5.886v11.343h-9.524v-11.343l4.762-2.381zm4.2-21.991l7.143 14.286h26.752v-28.571H78.011zm13.028-4.761h11.343v9.524H83.896l-2.381-4.762zm149.438-9.524c7.876 0 14.286-6.41 14.286-14.286s-6.41-14.286-14.286-14.286-14.286 6.41-14.286 14.286c.001 7.876 6.41 14.286 14.286 14.286zm0-19.048c2.629 0 4.762 2.138 4.762 4.762s-2.133 4.762-4.762 4.762-4.762-2.138-4.762-4.762 2.134-4.762 4.762-4.762zm0 47.619c-7.876 0-14.286 6.41-14.286 14.286s6.41 14.286 14.286 14.286 14.286-6.41 14.286-14.286-6.409-14.286-14.286-14.286zm0 19.048c-2.629 0-4.762-2.138-4.762-4.762s2.133-4.762 4.762-4.762 4.762 2.138 4.762 4.762-2.133 4.762-4.762 4.762zm14.286-33.334c0 7.876 6.41 14.286 14.286 14.286s14.286-6.41 14.286-14.286-6.41-14.286-14.286-14.286c-7.876.001-14.286 6.41-14.286 14.286zm19.048 0c0 2.624-2.133 4.762-4.762 4.762s-4.762-2.138-4.762-4.762 2.133-4.762 4.762-4.762 4.762 2.139 4.762 4.762zm-61.905-14.285c-7.876 0-14.286 6.41-14.286 14.286s6.41 14.286 14.286 14.286 14.286-6.41 14.286-14.286c0-7.877-6.41-14.286-14.286-14.286zm0 19.047c-2.629 0-4.762-2.138-4.762-4.762s2.133-4.762 4.762-4.762 4.762 2.138 4.762 4.762-2.134 4.762-4.762 4.762zM147.62 49.998c9.19 0 16.667-7.476 16.667-16.667s-7.476-16.667-16.667-16.667-16.667 7.476-16.667 16.667 7.477 16.667 16.667 16.667zm0-23.81c3.938 0 7.143 3.205 7.143 7.143s-3.205 7.143-7.143 7.143-7.143-3.205-7.143-7.143 3.205-7.143 7.143-7.143z"/><path d="M227.03 159.522h-55.6v-16.833l-14.033-9.357 14.033-9.357v-22.571c17.457-8.916 28.571-26.892 28.571-46.644 0-28.881-23.5-52.381-52.381-52.381s-52.381 23.5-52.381 52.381c0 19.748 11.114 37.729 28.571 46.643v58.119h-55.6c-37.61 0-68.21 30.6-68.21 68.21v1.324c0 34.557 27.252 63.176 60.748 63.79 19.471.41 37.924-8.5 49.895-23.8h73.9c11.833 15.176 29.614 23.81 48.757 23.81 1.843 0 3.7-.081 5.567-.243 31.61-2.748 56.371-30.657 56.371-63.538v-1.176c.001-37.706-30.599-68.377-68.208-68.377zM104.763 54.76c0-23.629 19.224-42.857 42.857-42.857s42.857 19.229 42.857 42.857c0 17.024-10.095 32.438-25.714 39.271l-2.857 1.243v23.605l-14.286 9.524v9.857l14.286 9.524v13.952l-14.286 9.524v9.857l10.462 6.976h-24.748V95.274l-2.857-1.243c-15.619-6.833-25.714-22.248-25.714-39.271zm180.953 174.314h-.001c0 27.981-20.943 51.724-47.681 54.052-18.624 1.605-36.338-6.462-47.252-21.624l-1.419-1.981H105.83l-1.429 1.981c-10.067 13.981-26.348 22.219-43.476 21.824-28.343-.524-51.4-24.867-51.4-54.271v-1.324c0-32.357 26.324-58.686 58.686-58.686h55.6v19.048h-19.048v9.524h85.715v-9.524H171.43v-2.548l-14.033-9.357 10.714-7.143h58.919c32.362 0 58.686 26.4 58.686 58.852z"/><path d="M252.382 140.474c23.633 0 42.857-19.229 42.857-42.857S276.015 54.76 252.382 54.76s-42.857 19.229-42.857 42.857 19.224 42.857 42.857 42.857zm0-76.19c18.376 0 33.333 14.952 33.333 33.333s-14.957 33.333-33.333 33.333-33.333-14.952-33.333-33.333 14.957-33.333 33.333-33.333z"/><path d="M257.144 111.903h-9.524a4.766 4.766 0 0 1-4.762-4.762h-9.524c0 7.876 6.41 14.286 14.286 14.286v4.762h9.524v-4.762c7.876 0 14.286-6.41 14.286-14.286s-6.41-14.286-14.286-14.286h-9.524c-2.629 0-4.762-2.138-4.762-4.762s2.133-4.762 4.762-4.762h9.524a4.766 4.766 0 0 1 4.762 4.762h9.524c0-7.876-6.41-14.286-14.286-14.286v-4.762h-9.524v4.762c-7.876 0-14.286 6.41-14.286 14.286s6.41 14.286 14.286 14.286h9.524c2.629 0 4.762 2.138 4.762 4.762s-2.134 4.762-4.762 4.762zm-219.048 0h14.286v14.286H47.62v9.524h14.286V102.38H9.525v33.333h28.571zm-9.524 14.285h-9.524v-14.286h9.524zm9.524-57.142h14.286v14.286H47.62v9.524h14.286V59.522H9.525v33.333h28.571zm-9.524 14.285h-9.524V69.046h9.524zm9.524-57.143h14.286v14.286H47.62v9.524h14.286V16.665H9.525v33.333h28.571zm-9.524 14.286h-9.524V26.188h9.524z"/></g></svg>