<svg viewBox="0 0 512 512" xmlns="http://www.w3.org/2000/svg"><path d="M247.467 199.467c0 69.333-30.933 117.333-69.333 117.333s-69.333-48-69.333-117.333c0-49.067 30.933-62.933 69.333-62.933s69.333 13.866 69.333 62.933z" fill="#415a6b"/><path d="M132.267 273.067l-1.067 39.467s-8.533 40.533 4.267 67.2c46.933-9.6 97.067-16 82.133-67.2v-39.467z" fill="#f7b64c"/><path d="M222.933 512L265.6 368H158.933L108.8 354.133 110.933 512z" fill="#ced6e0"/><path d="M202.667 512l-14.934-105.6h-25.6L147.2 512z" fill="#f3705a"/><path d="M187.733 406.4l12.8-12.8-25.6-25.6-25.6 25.6 12.8 12.8z" fill="#f05540"/><path d="M131.2 312.533s-3.2 11.733 0 19.2 43.733 35.2 43.733 35.2l-37.333 38.4-24.533-49.067 7.467-27.733c1.067-4.267 3.2-8.533 5.333-11.733 2.133-1.067 4.266-3.2 5.333-4.267z" fill="#f3f3f3"/><path d="M134.4 512l-24.533-112 1.067-53.333-73.6 34.133c-18.133 8.533-30.933 25.6-32 45.867L0 512z" fill="#344a5e"/><path d="M112 512h34.133L121.6 327.467l-39.467 71.466 20.267-1.066-25.6 22.4z" fill="#415a6b"/><path d="M218.667 312.533s3.2 11.733 0 19.2-43.733 35.2-43.733 35.2l37.333 37.333L236.8 355.2l-7.467-27.733c-1.067-4.267-3.2-8.533-5.333-11.733-2.133-.001-4.267-2.134-5.333-3.201z" fill="#f3f3f3"/><path d="M349.867 512l-6.4-85.333c-1.067-20.267-13.867-37.333-32-45.867l-73.6-34.133L238.933 400l-23.467 112z" fill="#344a5e"/><path d="M203.733 512h34.134l35.2-91.733-25.6-22.4 20.266 1.066-39.466-71.466z" fill="#415a6b"/><g fill="#ffd15c"><ellipse cx="115.272" cy="255.612" rx="23.466" ry="10.666" transform="rotate(82.149 115.275 255.618)"/><ellipse cx="241.097" cy="254.992" rx="23.466" ry="10.666" transform="rotate(-82.149 241.103 254.999)"/><path d="M186.667 170.667c-10.667 26.667-34.133 46.933-71.467 48-2.133 8.533-3.2 18.133-3.2 27.733 0 52.267 27.733 93.867 61.867 93.867s61.867-42.667 61.867-93.867c0-18.133-3.2-34.133-8.533-48-17.068-4.267-30.934-14.933-40.534-27.733z"/></g><path d="M512 117.333c0 65.067-56.533 117.333-125.867 117.333-8.533 0-17.067-1.067-24.533-2.133l-61.867 48v-77.867c-24.533-21.333-39.467-51.2-39.467-85.333C260.267 52.267 316.8 0 386.133 0S512 52.267 512 117.333z" fill="#8ad7f8"/><path d="M397.867 151.467h-24.533v-6.4c0-7.467 1.067-13.867 4.267-19.2s7.467-10.667 14.933-17.067c7.467-6.4 12.8-10.667 13.867-12.8 2.133-3.2 3.2-6.4 3.2-10.667 0-5.333-2.133-9.6-6.4-12.8s-9.6-5.333-17.067-5.333c-6.4 0-12.8 2.133-17.067 5.333-4.267 4.267-7.467 9.6-9.6 17.067l-24.533-3.2C336 74.667 340.267 66.133 348.8 57.6c8.533-7.467 20.267-11.733 35.2-11.733s27.733 4.267 36.267 11.733c8.533 7.467 13.867 17.067 13.867 27.733 0 5.333-2.133 11.733-5.333 17.067-3.2 5.333-10.667 12.8-21.333 21.333-5.333 4.267-8.533 8.533-10.667 10.667 1.066 4.267 1.066 9.6 1.066 17.067zm-24.534 22.4c0-7.467 6.4-12.8 12.8-12.8 7.467 0 12.8 6.4 12.8 12.8 0 7.467-6.4 12.8-12.8 12.8s-12.8-5.334-12.8-12.8z" fill="#fff"/></svg>