<svg enable-background="new 0 0 511.998 511.998" viewBox="0 0 511.998 511.998" xmlns="http://www.w3.org/2000/svg"><path d="m55.865 278.157-21.481 9.654c-3.501 1.574-7.615.011-9.189-3.49l-16.545-36.818c-1.574-3.501-.011-7.615 3.49-9.189l21.481-9.654z" fill="#ff7b05"/><path d="m33.621 228.661-15.931 7.16 10.074 22.415c2.951 6.566.02 14.281-6.546 17.232l3.979 8.853c1.574 3.501 5.688 5.064 9.189 3.49l21.48-9.654z" fill="#ff6500"/><path d="m283.793 197 2.827 52.899c.34 8.425-4.476 16.211-12.166 19.67l-34.286 15.421c-7.503 3.375-16.094-1.655-16.823-9.85l-3.873-48.611-143.131 66.693c8.696-3.908 18.676 1.793 19.727 11.269l17.84 160.929c2.387 21.536 25.071 34.493 44.834 25.611l5.912-2.657 76.198-34.245 21.296-9.571c6.042-2.716 8.74-9.816 6.024-15.858-2.909-6.473-10.514-9.361-16.987-6.453-6.352 2.855-13.633-1.36-14.32-8.29l-7.259-68.464c-1.614-16.264 7.345-31.741 22.253-38.441l34.254-15.395c17.802-8.001 28.651-26.332 27.097-45.788l-4.514-60.084" fill="#555e6b"/><path d="m134.785 295.724 47.498-21.346c4.107-1.846 8.809.9 9.22 5.384l13.493 147.255c.421 4.597-2.123 8.955-6.334 10.847l-45.745 20.559c-4.076 1.832-8.75-.859-9.212-5.303l-15.24-146.415c-.484-4.642 2.064-9.069 6.32-10.981z" fill="#363c44"/><path d="m500.813 58.618-23.346 10.492-17.99-40.03 23.346-10.492c2.685-1.207 5.84-.008 7.046 2.677l13.621 30.307c1.206 2.685.008 5.839-2.677 7.046z" fill="#ff7b05"/><path d="m499.947 43.688c-8.866 3.985-19.284.027-23.269-8.839l-5.048-11.231-12.154 5.462 17.991 40.03 23.346-10.492c2.685-1.207 3.883-4.361 2.677-7.046z" fill="#ff6500"/><path d="m308.695 185.786-24.902 11.214 1.19 22.267 25.371-11.402z" fill="#434b56"/><path d="m219.472 226.529-143.131 66.693c8.602-3.866 18.448 1.678 19.675 10.971l125.162-56.251z" fill="#434b56"/><path d="m448.757 22.477-409.687 184.122c-8.577 3.855-12.405 13.932-8.55 22.509l5.071 11.283 12.307 27.385 7.935 17.656c3.512 7.814 12.693 11.301 20.507 7.79l314.773-141.465c7.814-3.512 11.301-12.693 7.79-20.507l-.956-2.127 82.148-36.919c5.247-2.358 7.589-8.524 5.231-13.771l-22.797-50.725c-2.358-5.247-8.524-7.59-13.772-5.231z" fill="#ffe92f"/><path d="m485.326 78.433-22.797-50.725c-2.358-5.248-8.524-7.59-13.772-5.231l-34.252 15.394c12.426 27.649.085 60.137-27.564 72.563l-41.586 18.689.956 2.126c3.512 7.814.025 16.995-7.789 20.507l-285.167 128.161 2.479 5.516c3.512 7.814 12.693 11.301 20.507 7.79l314.773-141.465c7.814-3.512 11.302-12.693 7.79-20.507l-.956-2.127 82.147-36.919c5.247-2.359 7.589-8.525 5.231-13.772z" fill="#ffc600"/><path d="m88.732 155.555-22.277 10.012c-2.72 1.222-3.926 4.423-2.69 7.137l10.346 23.305 32.09-14.422-10.369-23.355c-1.227-2.695-4.4-3.891-7.1-2.677z" fill="#ff7b05"/><path d="m95.833 158.231c-1.227-2.694-4.4-3.89-7.1-2.676l-7.224 3.247c3.143 7.079-.027 15.366-7.091 18.541l-7.163 3.219 6.857 15.447 32.09-14.422z" fill="#ff6500"/><path d="m462.529 27.708c-2.359-5.248-8.524-7.59-13.772-5.231l-222.131 99.83 30.382 22.789 214.876-96.57z" fill="#7a6cf7"/><path d="m448.757 22.477-5.552 2.495-28.7 12.899c5.123 11.4 6.027 23.619 3.393 34.919l53.987-24.263-9.356-20.818c-2.358-5.248-8.524-7.591-13.772-5.232z" fill="#6959e2"/><path d="m236.276 169.657-110.358 49.597c-18.892 8.49-41.09.058-49.581-18.834l-3.952-8.794 178.772-80.344 3.952 8.794c8.491 18.893.059 41.091-18.833 49.581z" fill="#f288e8"/><circle cx="162.458" cy="317.139" r="8.03"/><circle cx="171.148" cy="420.089" r="8.03"/><path d="m199.502 279.028c-.43-4.684-3.111-8.897-7.172-11.269-4.061-2.37-9.048-2.636-13.341-.709l-47.496 21.346c-7.435 3.341-11.864 11.032-11.02 19.139l1.923 18.474c.459 4.413 4.391 7.61 8.821 7.158 4.413-.46 7.617-4.41 7.158-8.821l-1.923-18.474c-.124-1.195.528-2.329 1.624-2.822l45.614-20.501 13.304 145.2c.109 1.181-.546 2.301-1.627 2.787l-43.886 19.723-9.426-90.551c-.459-4.413-4.393-7.614-8.821-7.158-4.413.459-7.617 4.409-7.158 8.821l9.637 92.578c.483 4.643 3.187 8.806 7.232 11.135 2.24 1.29 4.76 1.942 7.286 1.941 2.035 0 4.076-.423 5.976-1.277l45.745-20.559c7.338-3.299 11.774-10.897 11.04-18.907z"/><path d="m510.816 48.279-13.621-30.308c-1.463-3.255-4.107-5.746-7.443-7.013-3.34-1.27-6.969-1.159-10.223.303l-14.658 6.587c-1.561-1.307-3.334-2.373-5.293-3.117-4.608-1.752-9.621-1.602-14.115.418l-336.991 151.452-5.33-11.699c-3.049-6.696-10.99-9.691-17.702-6.674l-22.279 10.011c-3.279 1.475-5.784 4.14-7.052 7.503-1.268 3.364-1.145 7.018.345 10.291l5.274 11.575-25.95 11.664c-6.105 2.743-10.776 7.7-13.153 13.958-1.502 3.954-1.968 8.127-1.419 12.205l-12.356 5.553c-3.651 1.641-6.445 4.605-7.866 8.346-1.421 3.742-1.3 7.813.341 11.462l16.546 36.817c1.64 3.65 4.604 6.443 8.344 7.864 1.731.658 3.531.985 5.328.985 2.089 0 4.173-.443 6.135-1.325l11.455-5.148c4.155 7.947 12.34 12.628 20.885 12.627 3.221 0 6.493-.664 9.616-2.068h.001c1.774-.799 3.762-.703 5.452.264 1.69.965 2.783 2.628 2.998 4.563l17.839 160.929c1.425 12.847 8.678 23.892 19.901 30.302 6.184 3.533 12.966 5.312 19.783 5.312 5.555 0 11.133-1.182 16.426-3.561l103.406-46.473c4.879-2.192 8.613-6.154 10.512-11.156 1.9-5.002 1.738-10.443-.455-15.322-4.719-10.502-17.104-15.207-27.606-10.486-.834.373-1.529.151-1.967-.101-.437-.252-.976-.745-1.072-1.709l-7.254-68.41c-1.274-12.845 5.78-25.03 17.553-30.321l34.255-15.395c20.847-9.368 33.631-30.971 31.811-53.747l-4.067-51.432 77.258-34.721c10.048-4.517 15.389-15.258 13.523-25.642l34.83-15.653c4.047-1.819 5.853-6.573 4.034-10.619-1.818-4.048-6.574-5.849-10.619-4.034l-41.521 18.66c-4.047 1.819-5.853 6.573-4.034 10.619l.956 2.128c1.69 3.761.006 8.196-3.755 9.887l-82.414 37.039c-.001.001-.003.001-.004.001l-65.647 29.503c-1.397.236-2.652.821-3.689 1.658l-17.38 7.811-2.505 1.125c-.003.002-.006.004-.009.005l-65.479 29.428-77.607 34.878c-.013.006-.026.012-.039.017-.001.001-.002.001-.003.002-3.757 1.686-8.193.002-9.884-3.757l-2.708-6.026c-.002-.005-.004-.01-.006-.015l-22.245-49.496c-.002-.003-.004-.007-.005-.01l-.349-.778c-.984-2.191-1.057-4.634-.204-6.881.853-2.246 2.529-4.025 4.72-5.009l25.988-11.68.659 1.467c4.986 11.094 13.994 19.583 25.364 23.902 5.258 1.997 10.728 2.992 16.189 2.992 6.348-.001 12.683-1.346 18.647-4.027l110.358-49.597c11.094-4.986 19.583-13.993 23.902-25.363.093-.245.172-.493.26-.739l23.354-10.495c4.047-1.818 5.853-6.573 4.034-10.619-1.818-4.047-6.575-5.85-10.619-4.034l-14.166 6.366c-.389-5.224-1.687-10.395-3.898-15.315l-.659-1.467 190.274-85.513c.744-.334 1.404-.213 1.823-.054.422.16.994.507 1.328 1.252l6.063 13.492-148.818 66.881c-4.047 1.819-5.853 6.573-4.034 10.619 1.338 2.978 4.265 4.742 7.331 4.742 1.101 0 2.219-.228 3.288-.708l148.817-66.882 10.148 22.581c.335.744.214 1.403.054 1.823s-.506.993-1.251 1.327l-7.389 3.302c-4.047 1.819-5.853 6.573-4.034 10.619 1.819 4.048 6.577 5.852 10.619 4.034l7.388-3.302c4.495-2.02 7.935-5.669 9.685-10.276 1.75-4.606 1.601-9.619-.419-14.114l-1.514-3.368 12.967-5.828h.001c3.255-1.463 5.746-4.107 7.013-7.443 1.269-3.335 1.162-6.966-.302-10.221zm-205.615 198.23c1.281 16.031-7.714 31.23-22.382 37.821l-34.255 15.395c-18.08 8.126-28.911 26.837-26.948 46.614l7.253 68.41c.577 5.819 3.943 11.043 9.004 13.972 5.061 2.932 11.268 3.248 16.602.851 2.422-1.087 5.28-.003 6.368 2.419.586 1.302.307 2.458.09 3.031-.218.573-.777 1.621-2.079 2.207l-103.406 46.475c-7.051 3.167-14.945 2.785-21.656-1.047-6.713-3.834-11.05-10.44-11.903-18.123l-17.839-160.93c-.493-4.444-2.248-8.497-5.013-11.777l9.222-4.145 104.154-46.809 2.929 34.978c.572 6.432 4.241 12.22 9.814 15.483 3.103 1.817 6.601 2.736 10.108 2.736 2.79 0 5.588-.582 8.198-1.756l34.286-15.421c10.738-4.83 17.371-15.553 16.898-27.318-.002-.044-.004-.088-.006-.132l-2.516-44.393 9.462-4.253zm-34.042 15.734h.001l-34.287 15.421c-1.608.725-2.945.19-3.598-.192-.654-.383-1.773-1.286-1.926-3.002l-3.398-40.577 6.574-2.952 1.662 13.16c1.104 8.752 7.224 16.218 15.59 19.019.846.283 1.706.417 2.551.417 3.359 0 6.491-2.124 7.616-5.485 1.408-4.207-.861-8.758-5.067-10.167-2.55-.853-4.415-3.128-4.752-5.795l-2.277-18.03 26.585-11.939 2.163 38.159c.184 5.154-2.73 9.846-7.437 11.963zm-239.079 17.797-15.659-34.843 10.42-4.683 15.659 34.843zm40.1-108.24 17.436-7.836 4.202 9.223-7.282 3.273-10.154 4.564zm160.803-9.47-110.358 49.597c-7.18 3.227-15.187 3.466-22.546.669-7.359-2.796-13.189-8.289-16.416-15.469l-.659-1.467 164.119-73.758.659 1.466c2.64 5.874 3.276 12.302 1.891 18.475-.334.755-.552 1.558-.643 2.383-.177.566-.366 1.129-.578 1.688-2.796 7.36-8.289 13.189-15.469 16.416zm251.571-105.21-5.338-11.876c-.001-.003-.002-.007-.004-.01s-.003-.006-.005-.009l-6.06-13.482 10.502-4.72 11.407 25.376z"/></svg>