<svg viewBox="0 0 512 512" xmlns="http://www.w3.org/2000/svg"><path d="M402.885 71.344H214.033c-37.026 0-67.148 30.122-67.148 67.148s30.122 67.148 67.148 67.148h188.852c37.026 0 67.148-30.122 67.148-67.148s-30.122-67.148-67.148-67.148z" fill="#89ebf0"/><path d="M214.033 205.639h188.852c24.943 0 46.737-13.681 58.316-33.923H155.717c11.578 20.242 33.373 33.923 58.316 33.923z" fill="#64dde3"/><path d="M503.607 104.918H474.23a8.393 8.393 0 0 0-8.393 8.393v50.361a8.393 8.393 0 0 0 8.393 8.393h29.377a8.393 8.393 0 0 0 8.393-8.393v-50.361a8.393 8.393 0 0 0-8.393-8.393z" fill="#ffd042"/><path d="M503.607 159.475H474.23a8.393 8.393 0 0 1-8.393-8.393v12.59a8.393 8.393 0 0 0 8.393 8.393h29.377a8.393 8.393 0 0 0 8.393-8.393v-12.59a8.393 8.393 0 0 1-8.393 8.393z" fill="#ffc412"/><path d="M356.721 230.82a8.393 8.393 0 0 1-8.393-8.393V62.951a8.393 8.393 0 0 1 16.786 0v159.475a8.392 8.392 0 0 1-8.393 8.394zm-83.934 0a8.393 8.393 0 0 1-8.393-8.393V62.951a8.393 8.393 0 0 1 16.786 0v159.475a8.394 8.394 0 0 1-8.393 8.394z" fill="#ff4a36"/><circle cx="444.852" cy="121.705" fill="#acf6fa" r="8.393"/><circle cx="415.475" cy="100.721" fill="#acf6fa" r="16.787"/><path d="M101.248 228.523c5.678 1.041 10.807-4.092 9.767-9.767-1.41-7.708-9.006-46.719-20.126-57.84l-.001-.001c-13.091-13.089-34.39-13.09-47.481.001-13.09 13.091-13.09 34.389.001 47.481 11.121 11.12 50.132 18.716 57.84 20.126z" fill="#64dde3"/><path d="M55.982 206.362c-13.091-13.092-13.091-34.39-.001-47.481a33.359 33.359 0 0 1 12.152-7.76c-8.923-.26-17.93 2.999-24.726 9.794-13.09 13.091-13.09 34.389.001 47.481 11.121 11.12 50.132 18.716 57.84 20.126 3.113.571 6.054-.721 7.91-2.934-13.024-2.615-43.548-9.598-53.176-19.226z" fill="#38ced9"/><path d="M101.248 325.445c-7.708 1.41-46.719 9.006-57.841 20.127-13.09 13.091-13.09 34.389.001 47.481 6.545 6.544 15.143 9.816 23.74 9.816s17.195-3.272 23.74-9.816h.001c11.12-11.122 18.716-50.133 20.126-57.841 1.04-5.678-4.09-10.806-9.767-9.767z" fill="#64dde3"/><path d="M77.703 394.492c-8.597 0-17.195-3.272-23.74-9.816-12.144-12.145-13.013-31.349-2.626-44.515-3.264 1.691-6.016 3.497-7.931 5.412-13.09 13.091-13.09 34.389.001 47.481 6.545 6.544 15.143 9.816 23.74 9.816s17.195-3.272 23.74-9.816h.001a21.38 21.38 0 0 0 1.788-2.076 33.653 33.653 0 0 1-14.973 3.514z" fill="#38ced9"/><path d="M92.328 276.984a8.393 8.393 0 0 0-3.623-6.906c-6.447-4.454-39.404-26.668-55.131-26.668C15.061 243.41 0 258.471 0 276.984s15.061 33.574 33.574 33.574c15.727 0 48.684-22.214 55.131-26.668a8.396 8.396 0 0 0 3.623-6.906z" fill="#64dde3"/><path d="M41.967 297.967c-18.513 0-33.574-15.061-33.574-33.574 0-4.153.763-8.129 2.148-11.803C4.058 258.716 0 267.383 0 276.984c0 18.513 15.061 33.574 33.574 33.574 15.727 0 48.684-22.214 55.131-26.668a8.393 8.393 0 0 0 3.623-6.906c0-.773-.116-1.529-.32-2.255-11.66 7.685-36.879 23.238-50.041 23.238z" fill="#38ced9"/><circle cx="75.541" cy="172.066" fill="#acf6fa" r="8.393"/><circle cx="29.377" cy="264.394" fill="#acf6fa" r="8.393"/><circle cx="67.148" cy="356.721" fill="#acf6fa" r="8.393"/><path d="M390.295 411.279h-62.951c-23.141 0-41.967-18.826-41.967-41.967v-41.967a8.393 8.393 0 0 1 16.786 0v41.967c0 13.884 11.297 25.18 25.18 25.18h62.951a8.393 8.393 0 1 1 .001 16.787z" fill="#807a72"/><path d="M331.542 377.707c-5.648 0-9.745-5.705-7.964-11.05l12.59-37.771c1.467-4.396 6.219-6.769 10.618-5.309a8.397 8.397 0 0 1 5.309 10.618l-12.59 37.77a8.399 8.399 0 0 1-7.963 5.742zM167.869 243.41h-41.967c-9.256 0-16.787 7.531-16.787 16.787v29.377c0 9.256 7.531 16.787 16.787 16.787h41.967a8.393 8.393 0 0 0 8.393-8.393v-46.164a8.394 8.394 0 0 0-8.393-8.394z" fill="#ffd042"/><path d="M167.869 293.771h-41.967c-9.256 0-16.787-7.531-16.787-16.787v12.59c0 9.256 7.531 16.787 16.787 16.787h41.967a8.393 8.393 0 0 0 8.393-8.393v-12.59a8.394 8.394 0 0 1-8.393 8.393z" fill="#ffc412"/><path d="M511.541 446.313l-41.967-121.705a8.393 8.393 0 0 0-7.935-5.657h-96.525a8.392 8.392 0 0 0-7.936 11.13l41.967 121.705a8.393 8.393 0 0 0 7.935 5.657h96.525a8.392 8.392 0 0 0 7.936-11.13z" fill="#ff6c5c"/><path d="M428.066 218.23H167.869a8.393 8.393 0 0 0-8.393 8.393v100.721a8.393 8.393 0 0 0 8.393 8.393h293.77a8.393 8.393 0 0 0 8.393-8.393v-67.148c.001-23.139-18.826-41.966-41.966-41.966z" fill="#ff6c5c"/><path d="M461.639 323.148h-293.77a8.393 8.393 0 0 1-8.393-8.393v12.59a8.393 8.393 0 0 0 8.393 8.393h293.77a8.393 8.393 0 0 0 8.393-8.393v-12.59a8.393 8.393 0 0 1-8.393 8.393zm-33.573 37.77a8.393 8.393 0 0 0-8.393-8.393h-54.754l5.788 16.787h48.965a8.395 8.395 0 0 0 8.394-8.394zm16.786 41.967a8.393 8.393 0 0 0-8.393-8.393H379.39l5.788 16.787h51.281a8.394 8.394 0 0 0 8.393-8.394z" fill="#ff4a36"/><circle cx="398.689" cy="276.984" fill="#ffb266" r="29.377"/><circle cx="314.754" cy="276.984" fill="#ffb266" r="29.377"/><circle cx="230.82" cy="276.984" fill="#ffb266" r="29.377"/><g fill="#ffd042"><circle cx="314.754" cy="276.984" r="20.984"/><circle cx="398.689" cy="276.984" r="20.984"/><circle cx="230.82" cy="276.984" r="20.984"/></g></svg>