<svg enable-background="new 0 0 512.002 512.002" viewBox="0 0 512.002 512.002" xmlns="http://www.w3.org/2000/svg"><path d="m160.155 283.628-66.286 66.284 119.177 119.176 66.285-66.284-25.411-25.412 66.285-66.285-93.765-93.765z" fill="#048f46"/><path d="m273.322 264.225-46.882-46.883-66.285 66.286-66.286 66.284 46.883 46.883z" fill="#3ddb86"/><path d="m55.618 328.322-51.595-13.825c-10.562 39.568-.327 83.533 30.715 114.575l37.753-37.753c-17.069-17.068-22.681-41.24-16.873-62.997z" fill="#707070"/><path d="m11.394 384.073h109.679v31.535h-109.679z" fill="#424242" transform="matrix(-.7071 .7071 -.7071 -.7071 395.7978 635.7354)"/><path d="m87.168 381.692h31.535v109.679h-31.535z" fill="#424242" transform="matrix(.7071 .7071 -.7071 .7071 338.8232 55.0705)"/><path d="m231.468 111.449h285.813v103.456h-285.813z" fill="#c2c2c2" transform="matrix(-.7071 .7071 -.7071 -.7071 754.4801 13.8376)"/><path d="m213.172 119.018h285.813v51.728h-285.813z" fill="#eaeaea" transform="matrix(-.7071 .7071 -.7071 -.7071 710.312 -4.4559)"/><path d="m193.309 231.066h93.743v132.605h-93.743z" fill="#ffac00" transform="matrix(.7071 -.7071 .7071 .7071 -139.9237 256.9305)"/><path d="m169.864 240.778h93.743v66.297h-93.743z" fill="#ffd68b" transform="matrix(.7071 -.7071 .7071 .7071 -130.215 233.4866)"/><g fill="#424242"><path d="m499.026 60.82-22.298-22.299-50.838 50.837-37.884-37.883-22.299 22.298 37.884 37.884-39.416 39.416-37.885-37.883-22.298 22.298 37.884 37.884-68.554 68.554-70.559-70.56-143.719 143.72 22.298 22.299 121.421-121.422 122.631 122.632 22.298-22.299-52.071-52.071 68.554-68.555 37.883 37.885 22.299-22.299-37.883-37.884 39.416-39.416 37.884 37.884 22.299-22.299-37.885-37.884z"/><path d="m224.416 283.17h31.535v28.403h-31.535z" transform="matrix(.7071 .7071 -.7071 .7071 280.6212 -82.7371)"/></g></svg>