<svg enable-background="new 0 0 512.005 512.005" viewBox="0 0 512.005 512.005" xmlns="http://www.w3.org/2000/svg"><g fill="#5e5f62"><path d="m337.765 151.118 25.367 25.367 62.306-64.976c2.047-2.109 5.073-2.964 7.922-2.225 3.943 1.077 8.02 1.611 12.105 1.602 11.989.089 23.516-4.655 31.954-13.173l12.728-12.728c11.224-11.322 15.63-27.744 11.571-43.169-1.006-3.115-.223-6.533 2.047-8.901l5.786-5.786c3.062-3.391 3.062-8.536 0-11.927l-13.53-12.906c-3.391-3.062-8.536-3.062-11.927 0l-5.786 5.786c-2.047 2.109-5.073 2.964-7.922 2.225-3.916-1.068-7.957-1.602-12.016-1.602-11.838-.045-23.213 4.628-31.598 12.995l-12.817 12.639c-11.224 11.322-15.63 27.744-11.571 43.169 1.006 3.115.223 6.533-2.047 8.901z"/><path d="m389.657 261.131c-5.047.009-9.889-2.012-13.44-5.607l-28.661-28.661c-7.477-7.503-7.477-19.644 0-27.147l44.504-44.504 6.142 4.183c2.839 1.985 5.492 4.219 7.922 6.676l6.142 6.142c9.542 9.31 15.47 21.709 16.733 34.98 1.397 12.79-3.008 25.527-12.016 34.713l-13.529 13.529c-3.587 3.605-8.447 5.652-13.529 5.697zm-29.551-46.818 28.661 28.661c.596.49 1.451.49 2.047 0l13.529-13.529c5.207-5.465 7.717-12.968 6.854-20.472-.774-9.043-4.717-17.517-11.126-23.943l-6.053-6.053-33.378 33.378c-.676.401-.908 1.273-.507 1.949.018.036.045.062.062.098z"/><path d="m330.289 229.801 90.076 90.432c3.471 3.453 9.079 3.453 12.55 0l12.817-12.817c3.454-3.471 3.454-9.079 0-12.55l-90.165-90.343z"/></g><path d="m206.924 373.637 93.191 92.568c3.391 3.062 8.536 3.062 11.927 0l13.44-13.44c3.062-3.391 3.062-8.536 0-11.927l-49.31-49.399c-1.157-1.184-1.958-2.661-2.314-4.272l-16.199-64.264z" fill="#35495e"/><path d="m76.438 508.751 81.709-108.412c2.261-3.418 1.896-7.94-.89-10.948l-33.111-33.556c-3.026-2.75-7.548-3.08-10.948-.801l-109.835 80.108c-3.774 3.142-4.29 8.758-1.148 12.532.053.062.107.134.169.196l61.237 61.861c3.658 3.284 9.292 2.973 12.568-.685.08-.099.169-.197.249-.295z" fill="#35495e"/><path d="m212.567 235.791 150.735-150.735c3.48-3.48 9.114-3.48 12.586 0l50.85 50.85c3.48 3.48 3.48 9.114 0 12.586l-150.726 150.744c-3.48 3.48-9.114 3.48-12.586 0l-50.85-50.85c-3.481-3.481-3.481-9.124-.009-12.595z" fill="#35495e"/><path d="m281.192 306.81-102.404 102.404c-3.267 3.267-8.563 3.267-11.829 0l-64.326-64.326c-3.267-3.267-3.267-8.563 0-11.829l102.404-102.404c3.267-3.267 8.563-3.267 11.829 0l64.326 64.326c3.266 3.267 3.266 8.563 0 11.829z" fill="#5e5f62"/><path d="m153.786 395.978-12.639-12.639 115.176-117.846 12.639 12.639z" fill="#35495e"/><path d="m128.419 370.611-12.639-12.639 115.176-117.847 12.55 12.551z" fill="#35495e"/></svg>