<svg viewBox="0 0 511.999 511.999" xmlns="http://www.w3.org/2000/svg"><path d="M133.017 329.72l24.669-.709 1.126 26.517-67.466 151.405c-2.104 4.724-7.893 6.506-12.291 3.786l-52.296-32.346c-4.304-2.662-5.362-8.461-2.275-12.471l48.752-63.325a35.36 35.36 0 0 1 16.837-11.974 35.358 35.358 0 0 0 20.176-17.201z" fill="#fcbb29"/><path d="M281.145 269.809l-38.417 38.429-25.611-25.611-8.698 8.699 25.61 25.61-25.078 25.067 8.696 8.7 29.43-29.417 42.768-42.78zm183.877-256.85l-9.673-9.685-11.177 11.177 1.698 17.659-54.327 54.327-17.521-7.502a6.151 6.151 0 0 0-6.77 1.305l-71.29 71.303 8.699 8.698 68.347-68.359 9.166 3.925-78.803 78.803 11.308 11.308 174.609-174.61L477.98 0z" fill="#666"/><path d="M414.234 275.536l7.742 44.744a5.79 5.79 0 0 1-4.462 6.639c-49.836 10.952-103.334 1.304-146.762-28.922a186.408 186.408 0 0 1-25.365-21.244l5.368-25.155 34.905-15.119c32.951 32.962 79.253 44.436 121.506 34.439 3.259-.771 6.498 1.32 7.068 4.618z" fill="gray"/><path d="M413.029 319.068c-47.744 9.761-97.386-.32-137.357-28.14-7.362-5.127-19.496-15.973-26.001-22.153l8.581-11.041 15.12-22.664 1.779 1.968c22.177 24.549 52.273 40.851 85.104 44.927a138.186 138.186 0 0 0 46.004-2.016z" fill="#666"/><path d="M227.92 342.17l17.99 62.142a12.598 12.598 0 0 1-7.175 15.099l-13.086 5.56c-6.417 2.727-13.829-.276-16.538-6.703l-14.7-34.878a32.359 32.359 0 0 0-16.163-16.754l-15.536-7.209 9.326-31.721 31.908-9.512z" fill="#fcbb29"/><path d="M236.627 410.639a3.955 3.955 0 0 1-1.259.845l-13.086 5.56a3.966 3.966 0 0 1-3.057.025 3.966 3.966 0 0 1-2.178-2.147l-14.7-34.879a40.89 40.89 0 0 0-20.47-21.219l-18.536-8.506 15.64-15.7 15.725-13.491 25.56 25.56L237.64 406.7a4.003 4.003 0 0 1-1.013 3.939z" fill="#d39a29"/><path d="M339.676 165.844l-49.537 49.537-35.577-5.645 3.607-26.326 49.537-49.537a6.88 6.88 0 0 1 9.73 0l22.241 22.241a6.879 6.879 0 0 1-.001 9.73z" fill="#fcbb29"/><path d="M333.805 159.973l-49.537 49.537-29.043-4.608-.663 4.835 35.577 5.645 49.537-49.537a6.88 6.88 0 0 0 0-9.73l-5.871-5.871a6.879 6.879 0 0 1 0 9.729z" fill="#d39a29"/><path d="M245.389 276.752l-21.416 21.429-20.026 20.014-41.233 41.233-3.899-3.899-25.795-25.808v-16.539c0-2.949 1.171-5.777 3.257-7.862L258.17 183.412l.64.64 31.331 31.331-4.477 21.097z" fill="#4d4d4d"/><path d="M196.038 293.017s-.001.001 0 0l-17.826 17.813a5.535 5.535 0 0 1-7.827-7.829l.001-.001 17.825-17.812a5.535 5.535 0 0 1 7.827 7.829z" fill="gray"/></svg>