<svg enable-background="new 0 0 468.293 468.293" viewBox="0 0 468.293 468.293" xmlns="http://www.w3.org/2000/svg"><path d="m216.123 206.808s-2.04 11.857-8.161 13.614c0 0 9.692 24.345 30.195 28.26 0 0-16.73 10.824-39.58-23.429 0 0-8.569 3.074-14.281-1.757 0 0-15.831 6.552-10.201 25.186 2.738 9.064 8.569 26.678 26.931 26.634 51.487 0 67.869-37.434 72.497-52.505-5.727-1.837-9.93-7.484-9.93-14.245v-1.757h81.88v1.757c0 8.246-6.211 14.931-13.873 14.931h-51.456c-4.42 15.106-22.371 60.602-79.525 60.602 0 0-28.286-13.891-44.477-2.21l-.131-75.08h60.112z" fill="#2f4859"/><path d="m439.486 83.171h7.968c3.772 0 6.829 3.058 6.829 6.829v10.717h-21.626v-10.717c0-3.771 3.058-6.829 6.829-6.829z" fill="#3a556a"/><path d="m72.696 95.412-13.057-15.913v21.218h13.057z" fill="#3a556a"/><path d="m31.28 152.13h425.179v-53.045h-173.641v13.057h-86.821v-13.057h-136.565l-.813 5.304-25.707-10.609-4.896 22.442 9.385 6.733z" fill="#64798a"/><g fill="#3a556a"><path d="m456.461 106.04h11.832v31.825h-11.832z"/><path d="m456.459 152.13v44.068h-26.931v13.057h-84.057-189.33v72.631s-31.011 37.54-22.034 106.907h-106.091s-12.027-13.218 0-57.126c2.858-10.435 9.019-31.75 14.223-49.634 6.535-22.455-.479-46.793-18.299-61.938-3.5-2.974-7.315-5.828-11.43-8.391-8.141-5.071-30.195-21.218 15.506-35.092l3.264-24.482z"/><path d="m77.752 146.669.45-.152c2.722-.922 4.181-3.875 3.26-6.597l-9.399-27.761c-.922-2.722-3.875-4.181-6.597-3.26l-.45.152c-2.722.922-4.181 3.875-3.26 6.597l9.399 27.761c.921 2.722 3.875 4.181 6.597 3.26z"/><path d="m95.162 146.669.45-.152c2.722-.922 4.181-3.875 3.26-6.597l-9.399-27.761c-.922-2.722-3.875-4.181-6.597-3.26l-.45.152c-2.722.922-4.181 3.875-3.26 6.597l9.399 27.761c.921 2.722 3.875 4.181 6.597 3.26z"/><path d="m112.572 146.669.45-.152c2.722-.922 4.181-3.875 3.26-6.597l-9.399-27.761c-.922-2.722-3.875-4.181-6.597-3.26l-.45.152c-2.722.922-4.181 3.875-3.26 6.597l9.399 27.761c.921 2.722 3.875 4.181 6.597 3.26z"/><path d="m129.981 146.669.45-.152c2.722-.922 4.181-3.875 3.26-6.597l-9.399-27.761c-.922-2.722-3.875-4.181-6.597-3.26l-.45.152c-2.722.922-4.181 3.875-3.26 6.597l9.399 27.761c.922 2.722 3.875 4.181 6.597 3.26z"/><path d="m147.391 146.669.45-.152c2.722-.922 4.181-3.875 3.26-6.597l-9.399-27.761c-.922-2.722-3.875-4.181-6.597-3.26l-.45.152c-2.722.922-4.181 3.875-3.26 6.597l9.399 27.761c.922 2.722 3.875 4.181 6.597 3.26z"/><path d="m164.801 146.669.45-.152c2.722-.922 4.181-3.875 3.26-6.597l-9.399-27.761c-.922-2.722-3.875-4.181-6.597-3.26l-.45.152c-2.722.922-4.181 3.875-3.26 6.597l9.399 27.761c.921 2.722 3.875 4.181 6.597 3.26z"/><path d="m182.211 146.669.45-.152c2.722-.922 4.181-3.875 3.26-6.597l-9.399-27.761c-.922-2.722-3.875-4.181-6.597-3.26l-.45.152c-2.722.922-4.181 3.875-3.26 6.597l9.399 27.761c.921 2.722 3.875 4.181 6.597 3.26z"/></g><path d="m23.292 375.329h109.531l2.1 13.465h-104.813-2.094s-4.117-5.574-4.724-13.465z" fill="#2f4859"/><path d="m156.023 196.202h273.52v13.056h-273.52z" fill="#2f4859"/><path d="m233.173 157.843h223.287v-10.337h-223.287c-2.73 0-4.943 2.213-4.943 4.943v.451c0 2.73 2.213 4.943 4.943 4.943z" fill="#2f4859"/></svg>