<svg viewBox="0 0 468.293 468.293" xmlns="http://www.w3.org/2000/svg"><path d="M216.123 206.808s-2.04 11.857-8.161 13.614c0 0 9.692 24.345 30.195 28.26 0 0-16.73 10.824-39.58-23.429 0 0-8.569 3.074-14.281-1.757 0 0-15.831 6.552-10.201 25.186 2.738 9.064 8.569 26.678 26.931 26.634 51.487 0 67.869-37.434 72.497-52.505-5.727-1.837-9.93-7.484-9.93-14.245v-1.757h81.88v1.757c0 8.246-6.211 14.931-13.873 14.931h-51.456c-4.42 15.106-22.371 60.602-79.525 60.602 0 0-28.286-13.891-44.477-2.21l-.131-75.08h60.112z" fill="#2f4859"/><path d="M439.486 83.171h7.968A6.83 6.83 0 0 1 454.283 90v10.717h-21.626V90a6.83 6.83 0 0 1 6.829-6.829zM72.696 95.412L59.639 79.499v21.218h13.057z" fill="#3a556a"/><path d="M31.28 152.13h425.179V99.085H282.818v13.057h-86.821V99.085H59.432l-.813 5.304L32.912 93.78l-4.896 22.442 9.385 6.733z" fill="#64798a"/><path d="M456.461 106.04h11.832v31.825h-11.832zm-.002 46.09v44.068h-26.931v13.057H156.141v72.631s-31.011 37.54-22.034 106.907H28.016s-12.027-13.218 0-57.126c2.858-10.435 9.019-31.75 14.223-49.634 6.535-22.455-.479-46.793-18.299-61.938-3.5-2.974-7.315-5.828-11.43-8.391-8.141-5.071-30.195-21.218 15.506-35.092l3.264-24.482zm-378.707-5.461l.45-.152a5.204 5.204 0 0 0 3.26-6.597l-9.399-27.761a5.204 5.204 0 0 0-6.597-3.26l-.45.152a5.204 5.204 0 0 0-3.26 6.597l9.399 27.761a5.203 5.203 0 0 0 6.597 3.26zm17.41 0l.45-.152a5.204 5.204 0 0 0 3.26-6.597l-9.399-27.761a5.204 5.204 0 0 0-6.597-3.26l-.45.152a5.204 5.204 0 0 0-3.26 6.597l9.399 27.761a5.203 5.203 0 0 0 6.597 3.26zm17.41 0l.45-.152a5.204 5.204 0 0 0 3.26-6.597l-9.399-27.761a5.204 5.204 0 0 0-6.597-3.26l-.45.152a5.204 5.204 0 0 0-3.26 6.597l9.399 27.761a5.203 5.203 0 0 0 6.597 3.26zm17.409 0l.45-.152a5.204 5.204 0 0 0 3.26-6.597l-9.399-27.761a5.204 5.204 0 0 0-6.597-3.26l-.45.152a5.204 5.204 0 0 0-3.26 6.597l9.399 27.761a5.204 5.204 0 0 0 6.597 3.26zm17.41 0l.45-.152a5.204 5.204 0 0 0 3.26-6.597l-9.399-27.761a5.204 5.204 0 0 0-6.597-3.26l-.45.152a5.204 5.204 0 0 0-3.26 6.597l9.399 27.761a5.204 5.204 0 0 0 6.597 3.26zm17.41 0l.45-.152a5.204 5.204 0 0 0 3.26-6.597l-9.399-27.761a5.204 5.204 0 0 0-6.597-3.26l-.45.152a5.204 5.204 0 0 0-3.26 6.597l9.399 27.761a5.203 5.203 0 0 0 6.597 3.26zm17.41 0l.45-.152a5.204 5.204 0 0 0 3.26-6.597l-9.399-27.761a5.204 5.204 0 0 0-6.597-3.26l-.45.152a5.204 5.204 0 0 0-3.26 6.597l9.399 27.761a5.203 5.203 0 0 0 6.597 3.26z" fill="#3a556a"/><path d="M23.292 375.329h109.531l2.1 13.465H28.016s-4.117-5.574-4.724-13.465zm132.731-179.127h273.52v13.056h-273.52zm77.15-38.359H456.46v-10.337H233.173a4.943 4.943 0 0 0-4.943 4.943v.451a4.943 4.943 0 0 0 4.943 4.943z" fill="#2f4859"/></svg>