<svg viewBox="0 0 511.998 511.998" xmlns="http://www.w3.org/2000/svg"><path d="M55.865 278.157l-21.481 9.654a6.95 6.95 0 0 1-9.189-3.49L8.65 247.503a6.95 6.95 0 0 1 3.49-9.189l21.481-9.654z" fill="#ff7b05"/><path d="M33.621 228.661l-15.931 7.16 10.074 22.415c2.951 6.566.02 14.281-6.546 17.232l3.979 8.853a6.95 6.95 0 0 0 9.189 3.49l21.48-9.654z" fill="#ff6500"/><path d="M283.793 197l2.827 52.899a20.656 20.656 0 0 1-12.166 19.67l-34.286 15.421c-7.503 3.375-16.094-1.655-16.823-9.85l-3.873-48.611-143.131 66.693c8.696-3.908 18.676 1.793 19.727 11.269l17.84 160.929c2.387 21.536 25.071 34.493 44.834 25.611l5.912-2.657 76.198-34.245 21.296-9.571c6.042-2.716 8.74-9.816 6.024-15.858-2.909-6.473-10.514-9.361-16.987-6.453-6.352 2.855-13.633-1.36-14.32-8.29l-7.259-68.464a38.028 38.028 0 0 1 22.253-38.441l34.254-15.395c17.802-8.001 28.651-26.332 27.097-45.788l-4.514-60.084" fill="#555e6b"/><path d="M134.785 295.724l47.498-21.346c4.107-1.846 8.809.9 9.22 5.384l13.493 147.255a10.81 10.81 0 0 1-6.334 10.847l-45.745 20.559c-4.076 1.832-8.75-.859-9.212-5.303l-15.24-146.415a10.808 10.808 0 0 1 6.32-10.981z" fill="#363c44"/><path d="M500.813 58.618L477.467 69.11l-17.99-40.03 23.346-10.492a5.33 5.33 0 0 1 7.046 2.677l13.621 30.307a5.33 5.33 0 0 1-2.677 7.046z" fill="#ff7b05"/><path d="M499.947 43.688c-8.866 3.985-19.284.027-23.269-8.839l-5.048-11.231-12.154 5.462 17.991 40.03 23.346-10.492a5.33 5.33 0 0 0 2.677-7.046z" fill="#ff6500"/><path d="M308.695 185.786L283.793 197l1.19 22.267 25.371-11.402zm-89.223 40.743L76.341 293.222c8.602-3.866 18.448 1.678 19.675 10.971l125.162-56.251z" fill="#434b56"/><path d="M448.757 22.477L39.07 206.599c-8.577 3.855-12.405 13.932-8.55 22.509l5.071 11.283 12.307 27.385 7.935 17.656c3.512 7.814 12.693 11.301 20.507 7.79l314.773-141.465c7.814-3.512 11.301-12.693 7.79-20.507l-.956-2.127 82.148-36.919c5.247-2.358 7.589-8.524 5.231-13.771l-22.797-50.725c-2.358-5.247-8.524-7.59-13.772-5.231z" fill="#ffe92f"/><path d="M485.326 78.433l-22.797-50.725c-2.358-5.248-8.524-7.59-13.772-5.231l-34.252 15.394c12.426 27.649.085 60.137-27.564 72.563l-41.586 18.689.956 2.126c3.512 7.814.025 16.995-7.789 20.507L53.355 279.917l2.479 5.516c3.512 7.814 12.693 11.301 20.507 7.79l314.773-141.465c7.814-3.512 11.302-12.693 7.79-20.507l-.956-2.127 82.147-36.919c5.247-2.359 7.589-8.525 5.231-13.772z" fill="#ffc600"/><path d="M88.732 155.555l-22.277 10.012a5.38 5.38 0 0 0-2.69 7.137l10.346 23.305 32.09-14.422-10.369-23.355a5.378 5.378 0 0 0-7.1-2.677z" fill="#ff7b05"/><path d="M95.833 158.231a5.378 5.378 0 0 0-7.1-2.676l-7.224 3.247c3.143 7.079-.027 15.366-7.091 18.541l-7.163 3.219 6.857 15.447 32.09-14.422z" fill="#ff6500"/><path d="M462.529 27.708c-2.359-5.248-8.524-7.59-13.772-5.231l-222.131 99.83 30.382 22.789 214.876-96.57z" fill="#7a6cf7"/><path d="M448.757 22.477l-5.552 2.495-28.7 12.899a54.637 54.637 0 0 1 3.393 34.919l53.987-24.263-9.356-20.818c-2.358-5.248-8.524-7.591-13.772-5.232z" fill="#6959e2"/><path d="M236.276 169.657l-110.358 49.597c-18.892 8.49-41.09.058-49.581-18.834l-3.952-8.794 178.772-80.344 3.952 8.794c8.491 18.893.059 41.091-18.833 49.581z" fill="#f288e8"/><circle cx="162.458" cy="317.139" r="8.03"/><circle cx="171.148" cy="420.089" r="8.03"/><path d="M199.502 279.028a14.624 14.624 0 0 0-7.172-11.269 14.632 14.632 0 0 0-13.341-.709l-47.496 21.346a18.81 18.81 0 0 0-11.02 19.139l1.923 18.474a8.034 8.034 0 0 0 15.979-1.663l-1.923-18.474a2.774 2.774 0 0 1 1.624-2.822l45.614-20.501 13.304 145.2a2.777 2.777 0 0 1-1.627 2.787l-43.886 19.723-9.426-90.551a8.026 8.026 0 0 0-8.821-7.158 8.033 8.033 0 0 0-7.158 8.821l9.637 92.578a14.63 14.63 0 0 0 7.232 11.135 14.592 14.592 0 0 0 7.286 1.941 14.58 14.58 0 0 0 5.976-1.277l45.745-20.559a18.849 18.849 0 0 0 11.04-18.907z"/><path d="M510.816 48.279l-13.621-30.308a13.275 13.275 0 0 0-7.443-7.013 13.269 13.269 0 0 0-10.223.303l-14.658 6.587a18.433 18.433 0 0 0-5.293-3.117 18.321 18.321 0 0 0-14.115.418L108.472 166.601l-5.33-11.699c-3.049-6.696-10.99-9.691-17.702-6.674l-22.279 10.011a13.33 13.33 0 0 0-7.052 7.503 13.325 13.325 0 0 0 .345 10.291l5.274 11.575-25.95 11.664c-6.105 2.743-10.776 7.7-13.153 13.958a24.913 24.913 0 0 0-1.419 12.205L8.85 230.988a14.887 14.887 0 0 0-7.866 8.346 14.882 14.882 0 0 0 .341 11.462l16.546 36.817a14.884 14.884 0 0 0 8.344 7.864c1.731.658 3.531.985 5.328.985 2.089 0 4.173-.443 6.135-1.325l11.455-5.148c4.155 7.947 12.34 12.628 20.885 12.627 3.221 0 6.493-.664 9.616-2.068h.001a5.949 5.949 0 0 1 5.452.264 5.96 5.96 0 0 1 2.998 4.563l17.839 160.929c1.425 12.847 8.678 23.892 19.901 30.302 6.184 3.533 12.966 5.312 19.783 5.312 5.555 0 11.133-1.182 16.426-3.561l103.406-46.473a19.89 19.89 0 0 0 10.512-11.156 19.895 19.895 0 0 0-.455-15.322c-4.719-10.502-17.104-15.207-27.606-10.486-.834.373-1.529.151-1.967-.101-.437-.252-.976-.745-1.072-1.709l-7.254-68.41a29.966 29.966 0 0 1 17.553-30.321l34.255-15.395c20.847-9.368 33.631-30.971 31.811-53.747l-4.067-51.432 77.258-34.721c10.048-4.517 15.389-15.258 13.523-25.642l34.83-15.653a8.032 8.032 0 0 0 4.034-10.619c-1.818-4.048-6.574-5.849-10.619-4.034l-41.521 18.66a8.032 8.032 0 0 0-4.034 10.619l.956 2.128c1.69 3.761.006 8.196-3.755 9.887l-82.414 37.039-.004.001-65.647 29.503a7.966 7.966 0 0 0-3.689 1.658l-17.38 7.811-2.505 1.125a.04.04 0 0 1-.009.005L150.695 251l-77.607 34.878-.039.017-.003.002c-3.757 1.686-8.193.002-9.884-3.757l-2.708-6.026-.006-.015-22.245-49.496a.047.047 0 0 1-.005-.01l-.349-.778a8.94 8.94 0 0 1-.204-6.881 8.93 8.93 0 0 1 4.72-5.009l25.988-11.68.659 1.467c4.986 11.094 13.994 19.583 25.364 23.902a45.53 45.53 0 0 0 16.189 2.992c6.348-.001 12.683-1.346 18.647-4.027l110.358-49.597c11.094-4.986 19.583-13.993 23.902-25.363.093-.245.172-.493.26-.739l23.354-10.495a8.031 8.031 0 0 0 4.034-10.619c-1.818-4.047-6.575-5.85-10.619-4.034l-14.166 6.366a45.57 45.57 0 0 0-3.898-15.315l-.659-1.467 190.274-85.513a2.344 2.344 0 0 1 1.823-.054c.422.16.994.507 1.328 1.252l6.063 13.492-148.818 66.881a8.032 8.032 0 0 0-4.034 10.619 8.032 8.032 0 0 0 10.619 4.034L467.85 59.145l10.148 22.581c.335.744.214 1.403.054 1.823s-.506.993-1.251 1.327l-7.389 3.302a8.033 8.033 0 0 0 6.585 14.653l7.388-3.302a18.328 18.328 0 0 0 9.685-10.276 18.328 18.328 0 0 0-.419-14.114l-1.514-3.368 12.967-5.828h.001a13.275 13.275 0 0 0 7.013-7.443 13.26 13.26 0 0 0-.302-10.221zm-205.615 198.23c1.281 16.031-7.714 31.23-22.382 37.821l-34.255 15.395c-18.08 8.126-28.911 26.837-26.948 46.614l7.253 68.41a18.264 18.264 0 0 0 9.004 13.972 18.264 18.264 0 0 0 16.602.851 4.824 4.824 0 0 1 6.368 2.419 3.945 3.945 0 0 1 .09 3.031 3.948 3.948 0 0 1-2.079 2.207l-103.406 46.475c-7.051 3.167-14.945 2.785-21.656-1.047-6.713-3.834-11.05-10.44-11.903-18.123l-17.839-160.93c-.493-4.444-2.248-8.497-5.013-11.777l9.222-4.145 104.154-46.809 2.929 34.978a20.03 20.03 0 0 0 9.814 15.483 20.006 20.006 0 0 0 10.108 2.736c2.79 0 5.588-.582 8.198-1.756l34.286-15.421c10.738-4.83 17.371-15.553 16.898-27.318l-.006-.132-2.516-44.393 9.462-4.253zm-34.042 15.734h.001l-34.287 15.421c-1.608.725-2.945.19-3.598-.192-.654-.383-1.773-1.286-1.926-3.002l-3.398-40.577 6.574-2.952 1.662 13.16c1.104 8.752 7.224 16.218 15.59 19.019a8.03 8.03 0 0 0 2.551.417 8.034 8.034 0 0 0 2.549-15.652 7.079 7.079 0 0 1-4.752-5.795l-2.277-18.03 26.585-11.939 2.163 38.159a12.568 12.568 0 0 1-7.437 11.963zM32.08 280.04l-15.659-34.843 10.42-4.683L42.5 275.357zm40.1-108.24l17.436-7.836 4.202 9.223-7.282 3.273-10.154 4.564zm160.803-9.47l-110.358 49.597c-7.18 3.227-15.187 3.466-22.546.669-7.359-2.796-13.189-8.289-16.416-15.469l-.659-1.467 164.119-73.758.659 1.466c2.64 5.874 3.276 12.302 1.891 18.475a8.079 8.079 0 0 0-.643 2.383 29.999 29.999 0 0 1-.578 1.688c-2.796 7.36-8.289 13.189-15.469 16.416zM484.554 57.12l-5.338-11.876-.004-.01-.005-.009-6.06-13.482 10.502-4.72 11.407 25.376z"/></svg>