<svg enable-background="new 0 0 511.999 511.999" viewBox="0 0 511.999 511.999" xmlns="http://www.w3.org/2000/svg"><path d="m133.017 329.72 24.669-.709 1.126 26.517-67.466 151.405c-2.104 4.724-7.893 6.506-12.291 3.786l-52.296-32.346c-4.304-2.662-5.362-8.461-2.275-12.471l48.752-63.325c4.296-5.579 10.159-9.749 16.837-11.974 8.702-2.9 15.936-9.067 20.176-17.201z" fill="#fcbb29"/><path d="m281.145 269.809-38.417 38.429-25.611-25.611-8.698 8.699 25.61 25.61-25.078 25.067 8.696 8.7 29.43-29.417 42.768-42.78z" fill="#666"/><path d="m465.022 12.959-9.673-9.685-11.177 11.177 1.698 17.659-54.327 54.327-17.521-7.502c-2.311-.989-4.993-.473-6.77 1.305l-71.29 71.303 8.699 8.698 68.347-68.359 9.166 3.925-78.803 78.803 11.308 11.308 174.609-174.61-11.308-11.308z" fill="#666"/><path d="m414.234 275.536 7.742 44.744c.528 3.048-1.441 5.975-4.462 6.639-49.836 10.952-103.334 1.304-146.762-28.922-8.918-6.213-17.418-13.286-25.365-21.244l5.368-25.155 34.905-15.119c32.951 32.962 79.253 44.436 121.506 34.439 3.259-.771 6.498 1.32 7.068 4.618z" fill="#808080"/><path d="m413.029 319.068c-47.744 9.761-97.386-.32-137.357-28.14-7.362-5.127-19.496-15.973-26.001-22.153l8.581-11.041 15.12-22.664 1.779 1.968c22.177 24.549 52.273 40.851 85.104 44.927 15.158 1.882 30.702 1.264 46.004-2.016z" fill="#666"/><path d="m227.92 342.17 17.99 62.142c1.773 6.124-1.308 12.606-7.175 15.099l-13.086 5.56c-6.417 2.727-13.829-.276-16.538-6.703l-14.7-34.878c-3.125-7.393-8.881-13.371-16.163-16.754l-15.536-7.209 9.326-31.721 31.908-9.512z" fill="#fcbb29"/><path d="m236.627 410.639c-.359.359-.783.643-1.259.845l-13.086 5.56c-1.325.563-2.485.258-3.057.025-.574-.232-1.618-.819-2.178-2.147l-14.7-34.879c-3.972-9.399-11.241-16.932-20.47-21.219l-18.536-8.506 15.64-15.7 15.725-13.491 25.56 25.56 17.374 60.013c.404 1.403.015 2.911-1.013 3.939z" fill="#d39a29"/><path d="m339.676 165.844-49.537 49.537-35.577-5.645 3.607-26.326 49.537-49.537c2.687-2.687 7.043-2.687 9.73 0l22.241 22.241c2.687 2.687 2.687 7.043-.001 9.73z" fill="#fcbb29"/><path d="m333.805 159.973-49.537 49.537-29.043-4.608-.663 4.835 35.577 5.645 49.537-49.537c2.687-2.687 2.687-7.043 0-9.73l-5.871-5.871c2.687 2.686 2.687 7.042 0 9.729z" fill="#d39a29"/><path d="m245.389 276.752-21.416 21.429-20.026 20.014-41.233 41.233-3.899-3.899-25.795-25.808v-16.539c0-2.949 1.171-5.777 3.257-7.862l121.893-121.908.64.64 31.331 31.331-4.477 21.097z" fill="#4d4d4d"/><path d="m196.038 293.017s-.001.001 0 0l-17.826 17.813c-2.163 2.162-5.668 2.16-7.828-.002-2.16-2.163-2.159-5.667.001-7.827l.001-.001 17.825-17.812c2.163-2.162 5.668-2.16 7.828.002 2.16 2.161 2.16 5.666-.001 7.827z" fill="#808080"/></svg>