<svg viewBox="0 0 512.002 512.002" xmlns="http://www.w3.org/2000/svg"><path d="M160.155 283.628l-66.286 66.284 119.177 119.176 66.285-66.284-25.411-25.412 66.285-66.285-93.765-93.765z" fill="#048f46"/><path d="M273.322 264.225l-46.882-46.883-66.285 66.286-66.286 66.284 46.883 46.883z" fill="#3ddb86"/><path d="M55.618 328.322L4.023 314.497c-10.562 39.568-.327 83.533 30.715 114.575l37.753-37.753c-17.069-17.068-22.681-41.24-16.873-62.997z" fill="#707070"/><path d="M116.163 372.214L38.61 449.768 16.311 427.47l77.554-77.554zm14.402 14.387l22.299 22.299-77.554 77.554-22.299-22.299z" fill="#424242"/><path d="M512.003 98.703L309.905 300.801l-73.154-73.153L438.85 25.549z" fill="#c2c2c2"/><path d="M475.42 62.12l-202.098 202.1-36.577-36.577L438.844 25.544z" fill="#eaeaea"/><path d="M160.152 283.628l66.286-66.285 93.765 93.765-66.286 66.285z" fill="#ffac00"/><path d="M160.15 283.63l66.286-66.286 46.878 46.879-66.285 66.285z" fill="#ffd68b"/><g fill="#424242"><path d="M499.026 60.82l-22.298-22.299-50.838 50.837-37.884-37.883-22.299 22.298 37.884 37.884-39.416 39.416-37.885-37.883-22.298 22.298 37.884 37.884-68.554 68.554-70.559-70.56-143.719 143.72 22.298 22.299 121.421-121.422 122.631 122.632 22.298-22.299-52.071-52.071 68.554-68.555 37.883 37.885 22.299-22.299-37.883-37.884 39.416-39.416 37.884 37.884 22.299-22.299-37.885-37.884z"/><path d="M239.076 276.177l22.299 22.298-20.084 20.084-22.299-22.298z"/></g></svg>