<svg viewBox="0 0 512.005 512.005" xmlns="http://www.w3.org/2000/svg"><g fill="#5e5f62"><path d="M337.765 151.118l25.367 25.367 62.306-64.976a8.183 8.183 0 0 1 7.922-2.225 45.583 45.583 0 0 0 12.105 1.602 44.513 44.513 0 0 0 31.954-13.173l12.728-12.728a45.043 45.043 0 0 0 11.571-43.169 8.905 8.905 0 0 1 2.047-8.901l5.786-5.786a8.891 8.891 0 0 0 0-11.927l-13.53-12.906a8.891 8.891 0 0 0-11.927 0l-5.786 5.786a8.183 8.183 0 0 1-7.922 2.225 45.661 45.661 0 0 0-12.016-1.602A44.496 44.496 0 0 0 426.772 21.7l-12.817 12.639a45.043 45.043 0 0 0-11.571 43.169 8.905 8.905 0 0 1-2.047 8.901z"/><path d="M389.657 261.131a18.847 18.847 0 0 1-13.44-5.607l-28.661-28.661c-7.477-7.503-7.477-19.644 0-27.147l44.504-44.504 6.142 4.183a57.405 57.405 0 0 1 7.922 6.676l6.142 6.142a56.33 56.33 0 0 1 16.733 34.98 42.912 42.912 0 0 1-12.016 34.713l-13.529 13.529a19.327 19.327 0 0 1-13.529 5.697zm-29.551-46.818l28.661 28.661c.596.49 1.451.49 2.047 0l13.529-13.529a25.463 25.463 0 0 0 6.854-20.472 38.562 38.562 0 0 0-11.126-23.943l-6.053-6.053-33.378 33.378a1.425 1.425 0 0 0-.507 1.949c.018.036.045.062.062.098z"/><path d="M330.289 229.801l90.076 90.432a8.897 8.897 0 0 0 12.55 0l12.817-12.817a8.895 8.895 0 0 0 0-12.55l-90.165-90.343z"/></g><path d="M206.924 373.637l93.191 92.568a8.891 8.891 0 0 0 11.927 0l13.44-13.44a8.891 8.891 0 0 0 0-11.927l-49.31-49.399a8.839 8.839 0 0 1-2.314-4.272l-16.199-64.264zM76.438 508.751l81.709-108.412a8.892 8.892 0 0 0-.89-10.948l-33.111-33.556a8.91 8.91 0 0 0-10.948-.801L3.363 435.142c-3.774 3.142-4.29 8.758-1.148 12.532.053.062.107.134.169.196l61.237 61.861c3.658 3.284 9.292 2.973 12.568-.685.08-.099.169-.197.249-.295zm136.129-272.96L363.302 85.056c3.48-3.48 9.114-3.48 12.586 0l50.85 50.85c3.48 3.48 3.48 9.114 0 12.586L276.012 299.236c-3.48 3.48-9.114 3.48-12.586 0l-50.85-50.85c-3.481-3.481-3.481-9.124-.009-12.595z" fill="#35495e"/><path d="M281.192 306.81L178.788 409.214a8.363 8.363 0 0 1-11.829 0l-64.326-64.326a8.363 8.363 0 0 1 0-11.829l102.404-102.404a8.363 8.363 0 0 1 11.829 0l64.326 64.326a8.365 8.365 0 0 1 0 11.829z" fill="#5e5f62"/><path d="M153.786 395.978l-12.639-12.639 115.176-117.846 12.639 12.639zm-25.367-25.367l-12.639-12.639 115.176-117.847 12.55 12.551z" fill="#35495e"/></svg>