<svg enable-background="new 0 0 460 460" viewBox="0 0 460 460" xmlns="http://www.w3.org/2000/svg"><path d="m229.365 420c-71.069-.005-129.101-57.827-129.364-128.896h40.002c.262 49.027 40.319 88.893 89.362 88.896h.635v-380s-107.053 145.323-136.146 189.029c-19.727 29.637-33.994 63.876-33.853 102.222.346 93.542 76.457 169.093 169.999 168.748v-39.999z" fill="#ea6453"/><path d="m229.365 380c-49.043-.003-89.1-39.868-89.362-88.896h-40.002c.263 71.068 58.295 128.891 129.364 128.896h1.272v-40z" fill="#fff"/><path d="m366.146 189.029c-20.978-31.515-136.146-189.029-136.146-189.029v459.999c93.542.345 169.654-75.206 169.999-168.748.141-38.346-14.126-72.585-33.853-102.222z" fill="#ef1f4b"/></svg>