<svg viewBox="0 0 512 512" xmlns="http://www.w3.org/2000/svg"><path d="M199.186 512a24.856 24.856 0 0 1-17.09-6.779c-10.032-9.441-10.51-25.226-1.069-35.258 38.431-40.835 50.03-53.159 50.03-194.938 0-13.776 11.167-24.942 24.943-24.942s24.943 11.167 24.943 24.942c0 77.06-3.56 119.038-12.697 149.722-10.241 34.396-27.552 54.607-50.891 79.404-4.908 5.216-11.531 7.849-18.169 7.849z" fill="#54b88b"/><path d="M199.186 512a24.856 24.856 0 0 1-17.09-6.779c-10.032-9.441-10.51-25.226-1.069-35.258 38.431-40.835 50.03-53.159 50.03-194.938 0-13.776 11.167-24.942 24.943-24.942s24.943 11.167 24.943 24.942c0 77.06-3.56 119.038-12.697 149.722-10.241 34.396-27.552 54.607-50.891 79.404-4.908 5.216-11.531 7.849-18.169 7.849z" opacity=".2"/><path d="M256 250.083c-13.776 0-24.943 11.167-24.943 24.943 0 53.786-1.672 88.931-5.842 114.08 15.86-4.747 34.49-11.702 52.688-20.516 2.113-24.189 3.039-54.32 3.039-93.564 0-13.776-11.166-24.943-24.942-24.943z" opacity=".1"/><path d="M131.287 62.356c-34.438 0-62.356 27.918-62.356 62.356s27.918 62.356 62.356 62.356H256V62.356C256 27.918 228.082 0 193.644 0c-34.439 0-62.357 27.918-62.357 62.356zm0 249.425c0 34.438 27.918 62.356 62.356 62.356s62.356-27.918 62.356-62.356V187.069H131.287c-34.438 0-62.356 27.918-62.356 62.356s27.918 62.356 62.356 62.356z" fill="#54b88b"/><path d="M131.287 311.781c0 34.438 27.918 62.356 62.356 62.356s62.356-27.918 62.356-62.356V187.069H131.287c-34.438 0-62.356 27.918-62.356 62.356s27.918 62.356 62.356 62.356z" opacity=".1"/><path d="M380.713 311.781c34.438 0 62.356-27.918 62.356-62.356s-27.918-62.356-62.356-62.356H256v124.713c0 34.438 27.918 62.356 62.356 62.356 34.439 0 62.357-27.918 62.357-62.357zm0-249.425C380.713 27.918 352.795 0 318.356 0 283.918 0 256 27.918 256 62.356v124.713h124.713c34.438 0 62.356-27.918 62.356-62.356 0-34.439-27.918-62.357-62.356-62.357z" fill="#54b88b"/><path d="M380.713 62.356C380.713 27.918 352.795 0 318.356 0 283.918 0 256 27.918 256 62.356v124.713h124.713c34.438 0 62.356-27.918 62.356-62.356 0-34.439-27.918-62.357-62.356-62.357z" opacity=".1"/><g opacity=".1"><path d="M356.394 294.963a7.481 7.481 0 0 1-5.304-2.196l-23.384-23.384a7.5 7.5 0 0 1 10.607-10.607l23.384 23.384a7.5 7.5 0 0 1-5.303 12.803zm-45.416-45.416a7.48 7.48 0 0 1-5.304-2.196L199.526 141.202a7.5 7.5 0 0 1 10.607-10.607l106.148 106.148a7.5 7.5 0 0 1-5.303 12.804zm-128.18-128.181a7.481 7.481 0 0 1-5.304-2.196l-27.191-27.191a7.5 7.5 0 0 1 10.607-10.607l27.191 27.191a7.5 7.5 0 0 1-5.303 12.803zm150.212-3.807a7.5 7.5 0 0 1-5.304-12.803l23.384-23.384a7.5 7.5 0 0 1 10.607 10.607l-23.384 23.384a7.481 7.481 0 0 1-5.303 2.196z"/><path d="M207.144 243.425a7.5 7.5 0 0 1-5.304-12.803l103.834-103.834a7.5 7.5 0 1 1 10.608 10.607L212.447 241.229a7.483 7.483 0 0 1-5.303 2.196zm-51.538 51.538a7.5 7.5 0 0 1-5.304-12.803l23.384-23.384a7.5 7.5 0 0 1 10.607 10.607l-23.384 23.384a7.481 7.481 0 0 1-5.303 2.196z"/></g></svg>