<svg enable-background="new 0 0 512 512" viewBox="0 0 512 512" xmlns="http://www.w3.org/2000/svg"><path d="m199.186 512c-6.131 0-12.273-2.246-17.09-6.779-10.032-9.441-10.51-25.226-1.069-35.258 38.431-40.835 50.03-53.159 50.03-194.938 0-13.776 11.167-24.942 24.943-24.942s24.943 11.167 24.943 24.942c0 77.06-3.56 119.038-12.697 149.722-10.241 34.396-27.552 54.607-50.891 79.404-4.908 5.216-11.531 7.849-18.169 7.849z" fill="#54b88b"/><path d="m199.186 512c-6.131 0-12.273-2.246-17.09-6.779-10.032-9.441-10.51-25.226-1.069-35.258 38.431-40.835 50.03-53.159 50.03-194.938 0-13.776 11.167-24.942 24.943-24.942s24.943 11.167 24.943 24.942c0 77.06-3.56 119.038-12.697 149.722-10.241 34.396-27.552 54.607-50.891 79.404-4.908 5.216-11.531 7.849-18.169 7.849z" opacity=".2"/><path d="m256 250.083c-13.776 0-24.943 11.167-24.943 24.943 0 53.786-1.672 88.931-5.842 114.08 15.86-4.747 34.49-11.702 52.688-20.516 2.113-24.189 3.039-54.32 3.039-93.564 0-13.776-11.166-24.943-24.942-24.943z" opacity=".1"/><path d="m131.287 62.356c-34.438 0-62.356 27.918-62.356 62.356s27.918 62.356 62.356 62.356h124.713v-124.712c0-34.438-27.918-62.356-62.356-62.356-34.439 0-62.357 27.918-62.357 62.356z" fill="#54b88b"/><path d="m131.287 311.781c0 34.438 27.918 62.356 62.356 62.356s62.356-27.918 62.356-62.356v-124.712h-124.712c-34.438 0-62.356 27.918-62.356 62.356s27.918 62.356 62.356 62.356z" fill="#54b88b"/><path d="m131.287 311.781c0 34.438 27.918 62.356 62.356 62.356s62.356-27.918 62.356-62.356v-124.712h-124.712c-34.438 0-62.356 27.918-62.356 62.356s27.918 62.356 62.356 62.356z" opacity=".1"/><path d="m380.713 311.781c34.438 0 62.356-27.918 62.356-62.356s-27.918-62.356-62.356-62.356h-124.713v124.713c0 34.438 27.918 62.356 62.356 62.356 34.439 0 62.357-27.918 62.357-62.357z" fill="#54b88b"/><path d="m380.713 62.356c0-34.438-27.918-62.356-62.357-62.356-34.438 0-62.356 27.918-62.356 62.356v124.713h124.713c34.438 0 62.356-27.918 62.356-62.356 0-34.439-27.918-62.357-62.356-62.357z" fill="#54b88b"/><path d="m380.713 62.356c0-34.438-27.918-62.356-62.357-62.356-34.438 0-62.356 27.918-62.356 62.356v124.713h124.713c34.438 0 62.356-27.918 62.356-62.356 0-34.439-27.918-62.357-62.356-62.357z" opacity=".1"/><g opacity=".1"><path d="m356.394 294.963c-1.919 0-3.839-.732-5.304-2.196l-23.384-23.384c-2.929-2.93-2.929-7.678 0-10.607 2.93-2.928 7.678-2.928 10.607 0l23.384 23.384c2.929 2.93 2.929 7.678 0 10.607-1.465 1.463-3.384 2.196-5.303 2.196z"/><path d="m310.978 249.547c-1.92 0-3.839-.732-5.304-2.196l-106.148-106.149c-2.929-2.93-2.929-7.678 0-10.607 2.931-2.929 7.679-2.927 10.607 0l106.148 106.148c2.929 2.93 2.929 7.678 0 10.607-1.465 1.464-3.384 2.197-5.303 2.197z"/><path d="m182.798 121.366c-1.919 0-3.839-.732-5.304-2.196l-27.191-27.191c-2.929-2.93-2.929-7.678 0-10.607 2.93-2.928 7.678-2.928 10.607 0l27.191 27.191c2.929 2.93 2.929 7.678 0 10.607-1.464 1.464-3.384 2.196-5.303 2.196z"/><path d="m333.01 117.559c-1.919 0-3.839-.732-5.304-2.196-2.929-2.93-2.929-7.678 0-10.607l23.384-23.384c2.93-2.928 7.678-2.928 10.607 0 2.929 2.93 2.929 7.678 0 10.607l-23.384 23.384c-1.464 1.463-3.384 2.196-5.303 2.196z"/><path d="m207.144 243.425c-1.919 0-3.839-.732-5.304-2.196-2.929-2.93-2.929-7.678 0-10.607l103.834-103.834c2.93-2.928 7.678-2.928 10.608 0 2.929 2.93 2.929 7.678 0 10.607l-103.835 103.834c-1.465 1.463-3.384 2.196-5.303 2.196z"/><path d="m155.606 294.963c-1.919 0-3.839-.732-5.304-2.196-2.929-2.93-2.929-7.678 0-10.607l23.384-23.384c2.93-2.928 7.678-2.928 10.607 0 2.929 2.93 2.929 7.678 0 10.607l-23.384 23.384c-1.464 1.463-3.384 2.196-5.303 2.196z"/></g></svg>