<svg viewBox="0 0 512.004 512.004" xmlns="http://www.w3.org/2000/svg"><path d="M256.002 70.846c-14.62 0-26.47-11.85-26.47-26.47v-26.47L220.71.26h44.116c9.75 0 17.646 7.897 17.646 17.646v26.47c0 14.62-11.85 26.47-26.47 26.47z" fill="#fec9a3"/><path d="M220.71 159.077v123.525h88.231l-17.646-17.646V159.077" fill="#787d82"/><path d="M326.588 123.785V88.492c0-9.75-7.897-17.646-17.646-17.646H185.417V18.877c.353-8.956-5.859-16.843-14.646-18.617-9.6-1.659-18.732 4.782-20.39 14.391a17.547 17.547 0 0 0-.256 3.256v61.762c0 14.62 11.85 26.47 26.47 26.47h44.116v52.939h70.585v-26.47c0 14.62 11.85 26.47 26.47 26.47h61.762c9.75 0 17.646-7.897 17.646-17.646 0-9.75-7.897-17.646-17.646-17.646l-52.94-.001z" fill="#4398d1"/><path d="M261.208 282.602h24.881l-21.264-21.264v-75.791h-17.646v79.409a8.81 8.81 0 0 0 2.559 6.264z" fill="#616569"/><path d="M361.88 62.023l79.409-35.293L361.88.26z" fill="#de4c3c"/><path d="M353.101.26h17.646v299.988h-17.646z" fill="#d9d9d9"/><path d="M344.234 256.132h-17.646l-8.824 26.47H203.063l-52.939 70.585h-35.293L.13 512.004h511.744z" fill="#3e8cc7"/><path d="M379.527 317.895c-70.585 97.055-176.464 158.817-291.694 194.11h424.042z" fill="#3582bd"/><path d="M88.362 123.785a36.259 36.259 0 0 0-14.205 3c-17.911-16.517-45.819-15.396-62.336 2.515A44.15 44.15 0 0 0 .13 159.078h123.524c.001-19.491-15.802-35.293-35.292-35.293zm388.22 70.585a33.936 33.936 0 0 0-7.941.971 44.114 44.114 0 0 0-27.352-9.794c-24.361 0-44.116 19.755-44.116 44.116h114.701c0-19.491-15.802-35.293-35.292-35.293zm-326.458 61.762c0-19.49-15.802-35.293-35.293-35.293-19.49 0-35.293 15.802-35.293 35.293z" fill="#d9d9d9"/><path d="M247.179 414.95l-35.293-61.763h-97.055L.13 512.004h353.898l-53.91-97.054z" fill="#4398d1"/></svg>