<svg enable-background="new 0 0 512.004 512.004" viewBox="0 0 512.004 512.004" xmlns="http://www.w3.org/2000/svg"><path d="m256.002 70.846c-14.62 0-26.47-11.85-26.47-26.47v-26.47l-8.822-17.646h44.116c9.75 0 17.646 7.897 17.646 17.646v26.47c0 14.62-11.85 26.47-26.47 26.47z" fill="#fec9a3"/><path d="m220.71 159.077v123.525h88.231l-17.646-17.646v-105.879" fill="#787d82"/><path d="m326.588 123.785v-35.293c0-9.75-7.897-17.646-17.646-17.646h-123.525v-51.969c.353-8.956-5.859-16.843-14.646-18.617-9.6-1.659-18.732 4.782-20.39 14.391-.185 1.076-.274 2.171-.256 3.256v61.762c0 14.62 11.85 26.47 26.47 26.47h44.116v52.939h70.585v-26.47c0 14.62 11.85 26.47 26.47 26.47h61.762c9.75 0 17.646-7.897 17.646-17.646 0-9.75-7.897-17.646-17.646-17.646-.001-.001-52.94-.001-52.94-.001z" fill="#4398d1"/><path d="m261.208 282.602h24.881l-21.264-21.264v-75.791h-17.646v79.409c-.018 2.347.909 4.597 2.559 6.264z" fill="#616569"/><path d="m361.88 62.023 79.409-35.293-79.409-26.47z" fill="#de4c3c"/><path d="m353.101.26h17.646v299.988h-17.646z" fill="#d9d9d9"/><path d="m344.234 256.132h-17.646l-8.824 26.47h-114.701l-52.939 70.585h-35.293l-114.701 158.817h511.744z" fill="#3e8cc7"/><path d="m379.527 317.895c-70.585 97.055-176.464 158.817-291.694 194.11h424.042z" fill="#3582bd"/><g fill="#d9d9d9"><path d="m88.362 123.785c-4.888.035-9.723 1.05-14.205 3-17.911-16.517-45.819-15.396-62.336 2.515-7.482 8.117-11.655 18.74-11.691 29.778h123.524c.001-19.491-15.802-35.293-35.292-35.293z"/><path d="m476.582 194.37c-2.673.009-5.338.335-7.941.971-7.747-6.256-17.391-9.714-27.352-9.794-24.361 0-44.116 19.755-44.116 44.116h114.701c0-19.491-15.802-35.293-35.292-35.293z"/><path d="m150.124 256.132c0-19.49-15.802-35.293-35.293-35.293-19.49 0-35.293 15.802-35.293 35.293z"/></g><path d="m247.179 414.95-35.293-61.763h-61.762-35.293l-114.701 158.817h353.898l-53.91-97.054z" fill="#4398d1"/></svg>