<svg viewBox="0 0 512 512" xmlns="http://www.w3.org/2000/svg"><path d="m457.909 0-283.41 283.41 103.342 103.342 151.077-151.077c55.282-55.282 71.131-138.751 39.958-210.449z" fill="#f9eed7"/><path d="m125.372 495.38 130.548-130.548-81.422-81.422-130.548 130.548c-22.16 22.16-22.16 58.089 0 80.248l1.174 1.174c22.16 22.16 58.089 22.16 80.248 0z" fill="#ffd15c"/><path d="m174.506 283.404-10.322 10.322 45.391 45.391c8.96 8.96 8.96 23.486 0 32.446l-123.809 123.811a56.512 56.512 0 0 1 -20.317 13.048c20.162 7.495 43.726 3.157 59.931-13.048l130.548-130.548z" fill="#edbb4c"/><path d="m477.594 49.693c18.42 65.56.417 136.884-48.672 185.973l-151.072 151.082-21.923-21.923s-5.014-33.588 34.39-72.992c39.394-39.394 95.822-31.941 112.866-117.119 17.034-85.179 74.4-125.021 74.4-125.021zm-16.92 293.775-27.857-27.857-27.857 27.857c-15.386 15.386-15.386 40.329 0 55.715s40.329 15.386 55.715 0c15.384-15.385 15.384-40.33-.001-55.715z" fill="#ff525d"/><circle cx="84.293" cy="458.074" fill="#5c5e70" r="14.808"/><circle cx="179.49" cy="361.845" fill="#5c5e70" r="14.808"/><path d="m260.171 250.547a7.818 7.818 0 0 1 -5.528-13.346l25.019-25.019a7.818 7.818 0 0 1 11.056 11.056l-25.019 25.019a7.796 7.796 0 0 1 -5.528 2.29z" fill="#d6c8b0"/><g fill="#ff6e7c"><circle cx="444.689" cy="375.116" r="11.467"/><circle cx="456.719" cy="122.842" r="11.467"/></g></svg>