<svg viewBox="0 0 512 512" xmlns="http://www.w3.org/2000/svg"><path d="M194.207 370.759L167.724 512V344.276zm44.138-26.483V512l-26.483-141.241z" fill="#f5f5f5"/><path d="M211.862 370.759L238.345 512h-70.621l26.483-141.241-26.483-26.483 34.604-34.604h1.413l34.604 34.604z" fill="#00448f"/><path d="M282.483 193.854v54.025a47.917 47.917 0 0 1-.618 8.033 57.548 57.548 0 0 1-4.237 16.066c-9.684 22.863-32.106 37.711-56.938 37.694h-16.949l-.706-.706-.706.706H185.38c-24.832.018-47.254-14.83-56.938-37.694a57.548 57.548 0 0 1-4.237-16.066 47.917 47.917 0 0 1-.618-8.033v-54.025c0-14.627 11.855-26.483 26.483-26.483H256c14.627 0 26.483 11.855 26.483 26.483z" fill="#d3d3d3"/><path d="M123.586 158.897H97.103c-9.737-.026-17.629-7.918-17.655-17.655.071-9.719 7.936-17.585 17.655-17.655h26.483z" fill="#fed8b5"/><path d="M335.448 256l-17.655-35.31h26.483l-44.138-61.793h-17.655V256h26.483z" fill="#c4c4c4"/><path d="M124.204 255.912a47.917 47.917 0 0 1-.618-8.033V256zm157.661 0l.618.088v-8.121a48.128 48.128 0 0 1-.618 8.033z" fill="#fed8b5"/><path d="M61.793 220.69h26.483L70.621 256h52.965V158.897h-17.655z" fill="#c4c4c4"/><path d="M282.483 123.586v-17.655l8.828-8.828v-35.31C291.31 27.666 263.645 0 229.517 0h-52.966c-34.127 0-61.793 27.666-61.793 61.793v44.138l8.828 8.828v79.095c0-14.627 11.855-26.483 26.483-26.483H256c14.627 0 26.483 11.855 26.483 26.483zm-110.345 17.655c-7.309 0-13.241-5.932-13.241-13.241s5.932-13.241 13.241-13.241 13.241 5.932 13.241 13.241-5.932 13.241-13.241 13.241zm61.793 0c-7.309 0-13.241-5.932-13.241-13.241s5.932-13.241 13.241-13.241 13.241 5.932 13.241 13.241-5.932 13.241-13.241 13.241z" fill="#fed8b5"/><path d="M326.621 141.241c-.071 9.719-7.936 17.585-17.655 17.655h-26.483v-35.31h26.483c9.736.027 17.628 7.919 17.655 17.655zm91.895 127.206A17.232 17.232 0 0 0 423.724 256v-17.655h9.622c14.168-.018 25.671 11.449 25.688 25.618v.865c0 14.627-11.855 26.483-26.483 26.483h-26.483v17.655h-52.966v-44.138c0-14.627 11.855-26.483 26.483-26.483h8.828V256c.026 9.737 7.918 17.629 17.655 17.655a17.235 17.235 0 0 0 12.448-5.208z" fill="#fed8b5"/><g fill="#f5f5f5"><path d="M406.069 308.966v150.069c0 29.255-23.711 52.966-52.966 52.966V308.966z"/><path d="M317.793 512h-79.448V344.276l-34.604-34.604h16.949c24.832.018 47.254-14.83 56.938-37.694l4.855 1.677c39 0 70.621 31.62 70.621 70.621V512zM128.441 271.978c9.684 22.863 32.106 37.711 56.938 37.694h16.949l-34.604 34.604V512H52.966V344.276c0-39 31.62-70.621 70.621-70.621z"/></g><circle cx="233.931" cy="128" fill="#454545" r="13.241"/><circle cx="172.138" cy="128" fill="#454545" r="13.241"/><path d="M414.897 176.552V256a8.38 8.38 0 0 1-2.737 6.268 8.21 8.21 0 0 1-6.091 2.56c-4.873 0-8.828-3.955-8.828-8.828v-79.448z" fill="#168de2"/><path d="M397.241 141.241h17.655v17.655h-17.655z" fill="#f5f5f5"/><path d="M423.724 123.586h-35.31c-4.873 0-8.828 3.955-8.828 8.828V256c.044 14.61 11.873 26.439 26.483 26.483 14.627 0 26.483-11.855 26.483-26.483V132.414c0-4.873-3.955-8.828-8.828-8.828zm-26.483 17.655h17.655v17.655h-17.655zM414.897 256a8.38 8.38 0 0 1-2.737 6.268 8.21 8.21 0 0 1-6.091 2.56c-4.873 0-8.828-3.955-8.828-8.828v-79.448h17.655V256z" fill="#454545"/><path d="M397.241 52.966h17.655v35.31h-17.655z" fill="#168de2"/><path d="M388.414 61.793h35.31v17.655h-35.31z" fill="#168de2"/><path d="M79.448 353.103h17.655V512H79.448zm229.518 0h17.655V512h-17.655z" fill="#d3d3d3"/><path d="M167.724 26.483h70.621v17.655h-70.621zm0 35.31h70.621v17.655h-70.621z" fill="#ebb691"/><path d="M203.034 222.499h-.071a45.802 45.802 0 0 1-32.662-13.594l12.518-12.447a28.227 28.227 0 0 0 20.145 8.386 28.502 28.502 0 0 0 20.303-8.404l12.482 12.482a46.017 46.017 0 0 1-32.715 13.577z" fill="#b0b0b0"/></svg>