<svg enable-background="new 0 0 512 512" viewBox="0 0 512 512" xmlns="http://www.w3.org/2000/svg"><path d="m194.207 370.759-26.483 141.241v-167.724z" fill="#f5f5f5"/><path d="m238.345 344.276v167.724l-26.483-141.241z" fill="#f5f5f5"/><path d="m211.862 370.759 26.483 141.241h-70.621l26.483-141.241-26.483-26.483 34.604-34.604h1.413l34.604 34.604z" fill="#00448f"/><path d="m282.483 193.854v54.025c.018 2.692-.185 5.376-.618 8.033-.627 5.535-2.057 10.946-4.237 16.066-9.684 22.863-32.106 37.711-56.938 37.694h-16.949l-.706-.706-.706.706h-16.949c-24.832.018-47.254-14.83-56.938-37.694-2.18-5.12-3.61-10.531-4.237-16.066-.433-2.657-.636-5.341-.618-8.033v-54.025c0-14.627 11.855-26.483 26.483-26.483h105.93c14.627 0 26.483 11.855 26.483 26.483z" fill="#d3d3d3"/><path d="m123.586 158.897h-26.483c-9.737-.026-17.629-7.918-17.655-17.655.071-9.719 7.936-17.585 17.655-17.655h26.483z" fill="#fed8b5"/><path d="m335.448 256-17.655-35.31h26.483l-44.138-61.793h-17.655v34.957 54.025 8.121h26.483z" fill="#c4c4c4"/><path d="m124.204 255.912c-.433-2.657-.636-5.341-.618-8.033v8.121z" fill="#fed8b5"/><path d="m281.865 255.912.618.088v-8.121c.017 2.692-.186 5.376-.618 8.033z" fill="#fed8b5"/><path d="m61.793 220.69h26.483l-17.655 35.31h26.482 26.483v-8.121-54.025-34.957h-17.655z" fill="#c4c4c4"/><path d="m282.483 123.586v-17.655l8.828-8.828v-35.31c-.001-34.127-27.666-61.793-61.794-61.793h-52.966c-34.127 0-61.793 27.666-61.793 61.793v44.138l8.828 8.828v79.095c0-14.627 11.855-26.483 26.483-26.483h105.931c14.627 0 26.483 11.855 26.483 26.483zm-110.345 17.655c-7.309 0-13.241-5.932-13.241-13.241s5.932-13.241 13.241-13.241 13.241 5.932 13.241 13.241-5.932 13.241-13.241 13.241zm61.793 0c-7.309 0-13.241-5.932-13.241-13.241s5.932-13.241 13.241-13.241 13.241 5.932 13.241 13.241-5.932 13.241-13.241 13.241z" fill="#fed8b5"/><path d="m326.621 141.241c-.071 9.719-7.936 17.585-17.655 17.655h-26.483v-35.31h26.483c9.736.027 17.628 7.919 17.655 17.655z" fill="#fed8b5"/><path d="m418.516 268.447c3.354-3.266 5.235-7.759 5.208-12.447v-17.655h9.622c14.168-.018 25.671 11.449 25.688 25.618v.071.794c0 14.627-11.855 26.483-26.483 26.483h-26.483v17.655h-52.966v-44.138c0-14.627 11.855-26.483 26.483-26.483h8.828v17.655c.026 9.737 7.918 17.629 17.655 17.655 4.688.027 9.182-1.854 12.448-5.208z" fill="#fed8b5"/><g fill="#f5f5f5"><path d="m406.069 308.966v150.069c0 29.255-23.711 52.966-52.966 52.966v-203.035z"/><path d="m317.793 512h-79.448v-167.724l-34.604-34.604h16.949c24.832.018 47.254-14.83 56.938-37.694l4.855 1.677c39 0 70.621 31.62 70.621 70.621v167.724z"/><path d="m128.441 271.978c9.684 22.863 32.106 37.711 56.938 37.694h16.949l-34.604 34.604v167.724h-114.758v-167.724c0-39 31.62-70.621 70.621-70.621z"/></g><circle cx="233.931" cy="128" fill="#454545" r="13.241"/><circle cx="172.138" cy="128" fill="#454545" r="13.241"/><path d="m414.897 176.552v79.448c.018 2.383-.971 4.661-2.737 6.268-1.58 1.668-3.787 2.595-6.091 2.56-4.873 0-8.828-3.955-8.828-8.828v-79.448z" fill="#168de2"/><path d="m397.241 141.241h17.655v17.655h-17.655z" fill="#f5f5f5"/><path d="m423.724 123.586h-35.31c-4.873 0-8.828 3.955-8.828 8.828v123.586c.044 14.61 11.873 26.439 26.483 26.483 14.627 0 26.483-11.855 26.483-26.483v-123.586c0-4.873-3.955-8.828-8.828-8.828zm-26.483 17.655h17.655v17.655h-17.655zm17.656 114.759c.018 2.383-.971 4.661-2.737 6.268-1.58 1.668-3.787 2.595-6.091 2.56-4.873 0-8.828-3.955-8.828-8.828v-79.448h17.655v79.448z" fill="#454545"/><path d="m397.241 52.966h17.655v35.31h-17.655z" fill="#168de2"/><path d="m388.414 61.793h35.31v17.655h-35.31z" fill="#168de2"/><path d="m79.448 353.103h17.655v158.897h-17.655z" fill="#d3d3d3"/><path d="m308.966 353.103h17.655v158.897h-17.655z" fill="#d3d3d3"/><path d="m167.724 26.483h70.621v17.655h-70.621z" fill="#ebb691"/><path d="m167.724 61.793h70.621v17.655h-70.621z" fill="#ebb691"/><path d="m203.034 222.499h-.071c-12.27.026-24.038-4.873-32.662-13.594l12.518-12.447c5.323 5.385 12.579 8.404 20.145 8.386 7.618.026 14.927-3.001 20.303-8.404l12.482 12.482c-8.659 8.713-20.435 13.595-32.715 13.577z" fill="#b0b0b0"/></svg>