<svg enable-background="new 0 0 60 60" viewBox="0 0 60 60" xmlns="http://www.w3.org/2000/svg"><path d="m41.857 22.096c1.963-1.31 3.143-3.514 3.143-5.874v-11.222h-30v11.222c0 2.36 1.18 4.564 3.143 5.874l9.319 6.843c.338.248.538.642.538 1.061 0 .419-.2.813-.537 1.061l-9.319 6.843c-1.964 1.31-3.144 3.514-3.144 5.874v11.222h30v-11.222c0-2.36-1.18-4.564-3.143-5.874l-9.319-6.843c-.338-.248-.538-.642-.538-1.061 0-.419.2-.813.537-1.061z" fill="#e6e6e6"/><path d="m10 55h40v4h-40z" fill="#9e6c53"/><path d="m10 1h40v4h-40z" fill="#9e6c53"/><path d="m54 58h-4-44c-.552 0-1 .447-1 1s.448 1 1 1h44 4c.552 0 1-.447 1-1s-.448-1-1-1z" fill="#8a5336"/><path d="m6 2h44 4c.552 0 1-.447 1-1s-.448-1-1-1h-4-44c-.552 0-1 .447-1 1s.448 1 1 1z" fill="#8a5336"/><path d="m40.192 19.6c1.132-.755 1.808-2.018 1.808-3.377 0-1.306-.889-2.445-2.156-2.762l-15.053-3.763c-3.449-.863-6.791 1.746-6.791 5.302v1.223c0 1.359.676 2.622 1.808 3.377l9.192 6.746v15.877c0 3.63-3.764 6.036-7.058 4.511-1.774-.821-3.922.394-3.941 2.349v.041 5.876h24v-11.223c0-.014 0-.027 0-.041-.019-1.931-1.889-3.322-3.791-2.991l-2.049.357c-2.695.469-5.161-1.605-5.161-4.339v-10.417z" fill="#ebba16"/></svg>